M48
; DRILL file {KiCad 7.0.11+dfsg-1build4} date Thu Jul 30 22:50:34 2026
; FORMAT={-:-/ absolute / metric / decimal}
; #@! TF.CreationDate,2026-07-30T22:50:34+00:00
; #@! TF.GenerationSoftware,Kicad,Pcbnew,7.0.11+dfsg-1build4
; #@! TF.FileFunction,MixedPlating,1,2
FMAT,2
METRIC
; #@! TA.AperFunction,Plated,PTH,ComponentDrill
T1C0.200
; #@! TA.AperFunction,Plated,PTH,ViaDrill
T2C0.250
; #@! TA.AperFunction,Plated,PTH,ViaDrill
T3C0.300
; #@! TA.AperFunction,Plated,PTH,ViaDrill
T4C0.350
; #@! TA.AperFunction,Plated,PTH,ComponentDrill
T5C0.600
; #@! TA.AperFunction,Plated,PTH,ComponentDrill
T6C0.900
; #@! TA.AperFunction,Plated,PTH,ComponentDrill
T7C1.000
; #@! TA.AperFunction,NonPlated,NPTH,ComponentDrill
T8C0.650
; #@! TA.AperFunction,NonPlated,NPTH,ComponentDrill
T9C2.300
; #@! TA.AperFunction,NonPlated,NPTH,ComponentDrill
T10C2.700
%
G90
G05
T1
X13.1Y-14.16
X13.1Y-15.56
X13.8Y-13.46
X13.8Y-14.86
X13.8Y-16.26
X14.5Y-14.16
X14.5Y-15.56
X15.2Y-13.46
X15.2Y-14.86
X15.2Y-16.26
X15.9Y-14.16
X15.9Y-15.56
T2
X13.54Y-44.6
X13.924Y-50.301
X58.479Y-16.451
T3
X4.018Y-33.357
X7.809Y-48.542
X13.531Y-22.056
X16.99Y-33.697
X17.007Y-41.226
X19.741Y-40.299
X21.136Y-20.047
X32.25Y-16.664
X37.978Y-25.878
X44.189Y-17.476
X51.791Y-5.765
X52.982Y-37.251
X54.618Y-20.457
X60.146Y-27.672
X62.479Y-46.283
X70.922Y-33.106
T4
X5.684Y-18.528
X5.782Y-14.167
X8.406Y-46.988
X8.577Y-13.202
X8.748Y-21.628
X9.323Y-49.087
X9.41Y-20.693
X10.385Y-46.02
X10.518Y-49.031
X11.205Y-34.038
X11.455Y-15.144
X11.722Y-48.689
X13.272Y-41.85
X13.637Y-31.405
X14.243Y-29.473
X16.658Y-26.239
X17.433Y-44.679
X18.192Y-26.276
X22.028Y-22.83
X22.163Y-40.818
X22.199Y-28.401
X22.435Y-15.168
X23.206Y-11.235
X23.307Y-27.903
X23.43Y-23.103
X25.563Y-35.127
X26.415Y-22.968
X26.716Y-34.846
X29.484Y-26.063
X30.617Y-19.749
X33.954Y-35.795
X35.364Y-32.111
X38.756Y-29.169
X39.545Y-21.982
X46.035Y-17.469
X49.559Y-0.925
X49.63Y-15.625
X51.4Y-10.26
X52.105Y-17.815
X59.146Y-0.815
X60.0Y-52.35
X61.243Y-3.357
T6
X22.46Y-48.02
X22.46Y-50.06
X25.0Y-47.0
X25.0Y-49.04
T7
X29.3Y-24.0
X31.84Y-24.0
X34.38Y-24.0
X36.92Y-24.0
X39.46Y-24.0
X42.0Y-24.0
X44.54Y-24.0
X47.08Y-24.0
X49.62Y-24.0
X52.16Y-24.0
X54.7Y-24.0
T8
X52.11Y-3.2
X57.89Y-3.2
T9
X27.3Y-42.53
X27.3Y-54.53
T10
X10.0Y-37.0
X33.0Y-12.0
X70.0Y-10.0
X70.0Y-44.0
T5
X50.68Y-2.12G85X50.68Y-3.22
G05
X50.68Y-6.55G85X50.68Y-7.15
G05
X59.32Y-2.12G85X59.32Y-3.22
G05
X59.32Y-6.55G85X59.32Y-7.15
G05
M30
