%TF.GenerationSoftware,KiCad,Pcbnew,7.0.11+dfsg-1build4*%
%TF.CreationDate,2026-07-30T22:50:34+00:00*%
%TF.ProjectId,model02,6d6f6465-6c30-4322-9e6b-696361645f70,rev?*%
%TF.SameCoordinates,Original*%
%TF.FileFunction,Other,User*%
%FSLAX46Y46*%
G04 Gerber Fmt 4.6, Leading zero omitted, Abs format (unit mm)*
G04 Created by KiCad (PCBNEW 7.0.11+dfsg-1build4) date 2026-07-30 22:50:34*
%MOMM*%
%LPD*%
G01*
G04 APERTURE LIST*
%ADD10C,0.050000*%
G04 APERTURE END LIST*
D10*
%TO.C,C12*%
X26020000Y-15770000D02*
X28980000Y-15770000D01*
X26020000Y-17230000D02*
X26020000Y-15770000D01*
X28980000Y-15770000D02*
X28980000Y-17230000D01*
X28980000Y-17230000D02*
X26020000Y-17230000D01*
%TO.C,C8*%
X50520000Y-36270000D02*
X53480000Y-36270000D01*
X50520000Y-37730000D02*
X50520000Y-36270000D01*
X53480000Y-36270000D02*
X53480000Y-37730000D01*
X53480000Y-37730000D02*
X50520000Y-37730000D01*
%TO.C,D1*%
X34350000Y-48250000D02*
X41650000Y-48250000D01*
X34350000Y-52750000D02*
X34350000Y-48250000D01*
X41650000Y-48250000D02*
X41650000Y-52750000D01*
X41650000Y-52750000D02*
X34350000Y-52750000D01*
%TO.C,C6*%
X26300000Y-36020000D02*
X29700000Y-36020000D01*
X26300000Y-37980000D02*
X26300000Y-36020000D01*
X29700000Y-36020000D02*
X29700000Y-37980000D01*
X29700000Y-37980000D02*
X26300000Y-37980000D01*
%TO.C,C3*%
X66300000Y-19520000D02*
X69700000Y-19520000D01*
X66300000Y-21480000D02*
X66300000Y-19520000D01*
X69700000Y-19520000D02*
X69700000Y-21480000D01*
X69700000Y-21480000D02*
X66300000Y-21480000D01*
%TO.C,C14*%
X13320000Y-51270000D02*
X16280000Y-51270000D01*
X13320000Y-52730000D02*
X13320000Y-51270000D01*
X16280000Y-51270000D02*
X16280000Y-52730000D01*
X16280000Y-52730000D02*
X13320000Y-52730000D01*
%TO.C,C9*%
X5270000Y-32980000D02*
X5270000Y-30020000D01*
X6730000Y-32980000D02*
X5270000Y-32980000D01*
X5270000Y-30020000D02*
X6730000Y-30020000D01*
X6730000Y-30020000D02*
X6730000Y-32980000D01*
%TO.C,H1*%
X35950000Y-12000000D02*
G75*
G03*
X30050000Y-12000000I-2950000J0D01*
G01*
X30050000Y-12000000D02*
G75*
G03*
X35950000Y-12000000I2950000J0D01*
G01*
%TO.C,Y1*%
X61520000Y-53250000D02*
X61520000Y-50750000D01*
X61520000Y-50750000D02*
X58480000Y-50750000D01*
X58480000Y-53250000D02*
X61520000Y-53250000D01*
X58480000Y-50750000D02*
X58480000Y-53250000D01*
%TO.C,H3*%
X12950000Y-37000000D02*
G75*
G03*
X7050000Y-37000000I-2950000J0D01*
G01*
X7050000Y-37000000D02*
G75*
G03*
X12950000Y-37000000I2950000J0D01*
G01*
%TO.C,RP2*%
X8520000Y-32270000D02*
X11480000Y-32270000D01*
X8520000Y-33730000D02*
X8520000Y-32270000D01*
X11480000Y-32270000D02*
X11480000Y-33730000D01*
X11480000Y-33730000D02*
X8520000Y-33730000D01*
%TO.C,RP1*%
X8520000Y-29270000D02*
X11480000Y-29270000D01*
X8520000Y-30730000D02*
X8520000Y-29270000D01*
X11480000Y-29270000D02*
X11480000Y-30730000D01*
X11480000Y-30730000D02*
X8520000Y-30730000D01*
%TO.C,C21*%
X67020000Y-38270000D02*
X69980000Y-38270000D01*
X67020000Y-39730000D02*
X67020000Y-38270000D01*
X69980000Y-38270000D02*
X69980000Y-39730000D01*
X69980000Y-39730000D02*
X67020000Y-39730000D01*
%TO.C,F1*%
X52050000Y-10550000D02*
X57950000Y-10550000D01*
X52050000Y-14450000D02*
X52050000Y-10550000D01*
X57950000Y-10550000D02*
X57950000Y-14450000D01*
X57950000Y-14450000D02*
X52050000Y-14450000D01*
%TO.C,SW2*%
X65750000Y-700000D02*
X74250000Y-700000D01*
X65750000Y-6700000D02*
X65750000Y-700000D01*
X74250000Y-700000D02*
X74250000Y-6700000D01*
X74250000Y-6700000D02*
X65750000Y-6700000D01*
%TO.C,J3*%
X27500000Y-34550000D02*
X56450000Y-34550000D01*
X56450000Y-34550000D02*
X56450000Y-22250000D01*
X27500000Y-22250000D02*
X27500000Y-34550000D01*
X56450000Y-22250000D02*
X27500000Y-22250000D01*
%TO.C,R6*%
X30520000Y-36270000D02*
X33480000Y-36270000D01*
X30520000Y-37730000D02*
X30520000Y-36270000D01*
X33480000Y-36270000D02*
X33480000Y-37730000D01*
X33480000Y-37730000D02*
X30520000Y-37730000D01*
%TO.C,U5*%
X44950000Y-13800000D02*
X44950000Y-17200000D01*
X44950000Y-17200000D02*
X49050000Y-17200000D01*
X49050000Y-13800000D02*
X44950000Y-13800000D01*
X49050000Y-17200000D02*
X49050000Y-13800000D01*
%TO.C,J2*%
X49680000Y-530000D02*
X49680000Y-9950000D01*
X49680000Y-530000D02*
X60320000Y-530000D01*
X49680000Y-9950000D02*
X60320000Y-9950000D01*
X60320000Y-530000D02*
X60320000Y-9950000D01*
%TO.C,U3*%
X54480000Y-50430000D02*
X66520000Y-50430000D01*
X66520000Y-50430000D02*
X66520000Y-38570000D01*
X54480000Y-38570000D02*
X54480000Y-50430000D01*
X66520000Y-38570000D02*
X54480000Y-38570000D01*
%TO.C,U2*%
X10900000Y-42900000D02*
X10900000Y-49100000D01*
X10900000Y-49100000D02*
X17100000Y-49100000D01*
X17100000Y-42900000D02*
X10900000Y-42900000D01*
X17100000Y-49100000D02*
X17100000Y-42900000D01*
%TO.C,C7*%
X34520000Y-36270000D02*
X37480000Y-36270000D01*
X34520000Y-37730000D02*
X34520000Y-36270000D01*
X37480000Y-36270000D02*
X37480000Y-37730000D01*
X37480000Y-37730000D02*
X34520000Y-37730000D01*
%TO.C,H2*%
X72950000Y-10000000D02*
G75*
G03*
X67050000Y-10000000I-2950000J0D01*
G01*
X67050000Y-10000000D02*
G75*
G03*
X72950000Y-10000000I2950000J0D01*
G01*
%TO.C,R16*%
X56020000Y-18770000D02*
X58980000Y-18770000D01*
X56020000Y-20230000D02*
X56020000Y-18770000D01*
X58980000Y-18770000D02*
X58980000Y-20230000D01*
X58980000Y-20230000D02*
X56020000Y-20230000D01*
%TO.C,R14*%
X5270000Y-29480000D02*
X5270000Y-26520000D01*
X6730000Y-29480000D02*
X5270000Y-29480000D01*
X5270000Y-26520000D02*
X6730000Y-26520000D01*
X6730000Y-26520000D02*
X6730000Y-29480000D01*
%TO.C,C20*%
X67020000Y-25770000D02*
X69980000Y-25770000D01*
X67020000Y-27230000D02*
X67020000Y-25770000D01*
X69980000Y-25770000D02*
X69980000Y-27230000D01*
X69980000Y-27230000D02*
X67020000Y-27230000D01*
%TO.C,U4*%
X56450000Y-15300000D02*
X56450000Y-18700000D01*
X56450000Y-18700000D02*
X60550000Y-18700000D01*
X60550000Y-15300000D02*
X56450000Y-15300000D01*
X60550000Y-18700000D02*
X60550000Y-15300000D01*
%TO.C,R8*%
X42520000Y-36270000D02*
X45480000Y-36270000D01*
X42520000Y-37730000D02*
X42520000Y-36270000D01*
X45480000Y-36270000D02*
X45480000Y-37730000D01*
X45480000Y-37730000D02*
X42520000Y-37730000D01*
%TO.C,C2*%
X60800000Y-19520000D02*
X64200000Y-19520000D01*
X60800000Y-21480000D02*
X60800000Y-19520000D01*
X64200000Y-19520000D02*
X64200000Y-21480000D01*
X64200000Y-21480000D02*
X60800000Y-21480000D01*
%TO.C,R11*%
X52020000Y-19270000D02*
X54980000Y-19270000D01*
X52020000Y-20730000D02*
X52020000Y-19270000D01*
X54980000Y-19270000D02*
X54980000Y-20730000D01*
X54980000Y-20730000D02*
X52020000Y-20730000D01*
%TO.C,C15*%
X71020000Y-49270000D02*
X73980000Y-49270000D01*
X71020000Y-50730000D02*
X71020000Y-49270000D01*
X73980000Y-49270000D02*
X73980000Y-50730000D01*
X73980000Y-50730000D02*
X71020000Y-50730000D01*
%TO.C,R1*%
X45520000Y-19070000D02*
X48480000Y-19070000D01*
X45520000Y-20530000D02*
X45520000Y-19070000D01*
X48480000Y-19070000D02*
X48480000Y-20530000D01*
X48480000Y-20530000D02*
X45520000Y-20530000D01*
%TO.C,R7*%
X38520000Y-36270000D02*
X41480000Y-36270000D01*
X38520000Y-37730000D02*
X38520000Y-36270000D01*
X41480000Y-36270000D02*
X41480000Y-37730000D01*
X41480000Y-37730000D02*
X38520000Y-37730000D01*
%TO.C,H4*%
X72950000Y-44000000D02*
G75*
G03*
X67050000Y-44000000I-2950000J0D01*
G01*
X67050000Y-44000000D02*
G75*
G03*
X72950000Y-44000000I2950000J0D01*
G01*
%TO.C,R2*%
X60520000Y-12270000D02*
X63480000Y-12270000D01*
X60520000Y-13730000D02*
X60520000Y-12270000D01*
X63480000Y-12270000D02*
X63480000Y-13730000D01*
X63480000Y-13730000D02*
X60520000Y-13730000D01*
%TO.C,C4*%
X26800000Y-19020000D02*
X30200000Y-19020000D01*
X26800000Y-20980000D02*
X26800000Y-19020000D01*
X30200000Y-19020000D02*
X30200000Y-20980000D01*
X30200000Y-20980000D02*
X26800000Y-20980000D01*
%TO.C,R12*%
X46520000Y-36270000D02*
X49480000Y-36270000D01*
X46520000Y-37730000D02*
X46520000Y-36270000D01*
X49480000Y-36270000D02*
X49480000Y-37730000D01*
X49480000Y-37730000D02*
X46520000Y-37730000D01*
%TO.C,R10*%
X48520000Y-19270000D02*
X51480000Y-19270000D01*
X48520000Y-20730000D02*
X48520000Y-19270000D01*
X51480000Y-19270000D02*
X51480000Y-20730000D01*
X51480000Y-20730000D02*
X48520000Y-20730000D01*
%TO.C,C13*%
X16820000Y-38770000D02*
X19780000Y-38770000D01*
X16820000Y-40230000D02*
X16820000Y-38770000D01*
X19780000Y-38770000D02*
X19780000Y-40230000D01*
X19780000Y-40230000D02*
X16820000Y-40230000D01*
%TO.C,C5*%
X22300000Y-36020000D02*
X25700000Y-36020000D01*
X22300000Y-37980000D02*
X22300000Y-36020000D01*
X25700000Y-36020000D02*
X25700000Y-37980000D01*
X25700000Y-37980000D02*
X22300000Y-37980000D01*
%TO.C,R15*%
X52520000Y-17270000D02*
X55480000Y-17270000D01*
X52520000Y-18730000D02*
X52520000Y-17270000D01*
X55480000Y-17270000D02*
X55480000Y-18730000D01*
X55480000Y-18730000D02*
X52520000Y-18730000D01*
%TO.C,SW1*%
X2250000Y-43000000D02*
X10750000Y-43000000D01*
X2250000Y-49000000D02*
X2250000Y-43000000D01*
X10750000Y-43000000D02*
X10750000Y-49000000D01*
X10750000Y-49000000D02*
X2250000Y-49000000D01*
%TO.C,C17*%
X6300000Y-49520000D02*
X9700000Y-49520000D01*
X6300000Y-51480000D02*
X6300000Y-49520000D01*
X9700000Y-49520000D02*
X9700000Y-51480000D01*
X9700000Y-51480000D02*
X6300000Y-51480000D01*
%TO.C,J1*%
X34000000Y-41830000D02*
X34000000Y-55230000D01*
X28880000Y-41830000D02*
X34000000Y-41830000D01*
X19600000Y-41830000D02*
X25720000Y-41830000D01*
X34000000Y-55230000D02*
X28880000Y-55230000D01*
X19600000Y-55230000D02*
X19600000Y-41830000D01*
X19600000Y-55230000D02*
X25720000Y-55230000D01*
X28879999Y-41830000D02*
G75*
G03*
X25720001Y-41830000I-1579999J-700001D01*
G01*
X25720000Y-55230000D02*
G75*
G03*
X28880000Y-55230000I1580000J700000D01*
G01*
%TO.C,X1*%
X70400000Y-39800000D02*
X75600000Y-39800000D01*
X75600000Y-39800000D02*
X75600000Y-26200000D01*
X70400000Y-26200000D02*
X70400000Y-39800000D01*
X75600000Y-26200000D02*
X70400000Y-26200000D01*
%TO.C,C19*%
X14520000Y-40770000D02*
X17480000Y-40770000D01*
X14520000Y-42230000D02*
X14520000Y-40770000D01*
X17480000Y-40770000D02*
X17480000Y-42230000D01*
X17480000Y-42230000D02*
X14520000Y-42230000D01*
%TO.C,C1*%
X41300000Y-17020000D02*
X44700000Y-17020000D01*
X41300000Y-18980000D02*
X41300000Y-17020000D01*
X44700000Y-17020000D02*
X44700000Y-18980000D01*
X44700000Y-18980000D02*
X41300000Y-18980000D01*
%TO.C,U1*%
X-8000000Y15350000D02*
X-8000000Y-5650000D01*
X-8000000Y-5650000D02*
X6250000Y-5650000D01*
X6250000Y-25850000D02*
X6250000Y-5650000D01*
X6250000Y-25850000D02*
X25750000Y-25850000D01*
X25750000Y-5650000D02*
X25750000Y-25850000D01*
X25750000Y-5650000D02*
X40000000Y-5650000D01*
X40000000Y15350000D02*
X-8000000Y15350000D01*
X40000000Y-5650000D02*
X40000000Y15350000D01*
%TO.C,C16*%
X66020000Y-51270000D02*
X68980000Y-51270000D01*
X66020000Y-52730000D02*
X66020000Y-51270000D01*
X68980000Y-51270000D02*
X68980000Y-52730000D01*
X68980000Y-52730000D02*
X66020000Y-52730000D01*
%TO.C,C18*%
X9800000Y-49520000D02*
X13200000Y-49520000D01*
X9800000Y-51480000D02*
X9800000Y-49520000D01*
X13200000Y-49520000D02*
X13200000Y-51480000D01*
X13200000Y-51480000D02*
X9800000Y-51480000D01*
%TO.C,R4*%
X20320000Y-38570000D02*
X23280000Y-38570000D01*
X20320000Y-40030000D02*
X20320000Y-38570000D01*
X23280000Y-38570000D02*
X23280000Y-40030000D01*
X23280000Y-40030000D02*
X20320000Y-40030000D01*
%TO.C,R13*%
X50520000Y-50270000D02*
X53480000Y-50270000D01*
X50520000Y-51730000D02*
X50520000Y-50270000D01*
X53480000Y-50270000D02*
X53480000Y-51730000D01*
X53480000Y-51730000D02*
X50520000Y-51730000D01*
%TO.C,L1*%
X61220000Y-14920000D02*
X65780000Y-14920000D01*
X61220000Y-18080000D02*
X61220000Y-14920000D01*
X65780000Y-14920000D02*
X65780000Y-18080000D01*
X65780000Y-18080000D02*
X61220000Y-18080000D01*
%TO.C,C10*%
X11800000Y-32450000D02*
X11800000Y-34550000D01*
X11800000Y-34550000D02*
X12950000Y-34550000D01*
X12950000Y-31100000D02*
X12950000Y-32450000D01*
X12950000Y-31100000D02*
X14100000Y-29950000D01*
X12950000Y-32450000D02*
X11800000Y-32450000D01*
X12950000Y-34550000D02*
X12950000Y-35900000D01*
X12950000Y-35900000D02*
X14100000Y-37050000D01*
X14100000Y-29950000D02*
X20050000Y-29950000D01*
X14100000Y-37050000D02*
X20050000Y-37050000D01*
X20050000Y-29950000D02*
X20050000Y-32450000D01*
X20050000Y-32450000D02*
X21200000Y-32450000D01*
X20050000Y-34550000D02*
X20050000Y-37050000D01*
X21200000Y-32450000D02*
X21200000Y-34550000D01*
X21200000Y-34550000D02*
X20050000Y-34550000D01*
%TD*%
M02*
