%TF.GenerationSoftware,KiCad,Pcbnew,7.0.11+dfsg-1build4*%
%TF.CreationDate,2026-07-30T22:50:34+00:00*%
%TF.ProjectId,model02,6d6f6465-6c30-4322-9e6b-696361645f70,rev?*%
%TF.SameCoordinates,Original*%
%TF.FileFunction,Legend,Top*%
%TF.FilePolarity,Positive*%
%FSLAX46Y46*%
G04 Gerber Fmt 4.6, Leading zero omitted, Abs format (unit mm)*
G04 Created by KiCad (PCBNEW 7.0.11+dfsg-1build4) date 2026-07-30 22:50:34*
%MOMM*%
%LPD*%
G01*
G04 APERTURE LIST*
%ADD10C,0.135000*%
%ADD11C,0.224999*%
%ADD12C,0.150000*%
%ADD13C,0.120000*%
G04 APERTURE END LIST*
D10*
X22592857Y-27166480D02*
X22721429Y-27209337D01*
X22721429Y-27209337D02*
X22935714Y-27209337D01*
X22935714Y-27209337D02*
X23021429Y-27166480D01*
X23021429Y-27166480D02*
X23064286Y-27123622D01*
X23064286Y-27123622D02*
X23107143Y-27037908D01*
X23107143Y-27037908D02*
X23107143Y-26952194D01*
X23107143Y-26952194D02*
X23064286Y-26866480D01*
X23064286Y-26866480D02*
X23021429Y-26823622D01*
X23021429Y-26823622D02*
X22935714Y-26780765D01*
X22935714Y-26780765D02*
X22764286Y-26737908D01*
X22764286Y-26737908D02*
X22678571Y-26695051D01*
X22678571Y-26695051D02*
X22635714Y-26652194D01*
X22635714Y-26652194D02*
X22592857Y-26566480D01*
X22592857Y-26566480D02*
X22592857Y-26480765D01*
X22592857Y-26480765D02*
X22635714Y-26395051D01*
X22635714Y-26395051D02*
X22678571Y-26352194D01*
X22678571Y-26352194D02*
X22764286Y-26309337D01*
X22764286Y-26309337D02*
X22978571Y-26309337D01*
X22978571Y-26309337D02*
X23107143Y-26352194D01*
X23921429Y-27209337D02*
X23492857Y-27209337D01*
X23492857Y-27209337D02*
X23492857Y-26309337D01*
X24221428Y-27209337D02*
X24221428Y-26309337D01*
X25164285Y-27123622D02*
X25121428Y-27166480D01*
X25121428Y-27166480D02*
X24992856Y-27209337D01*
X24992856Y-27209337D02*
X24907142Y-27209337D01*
X24907142Y-27209337D02*
X24778571Y-27166480D01*
X24778571Y-27166480D02*
X24692856Y-27080765D01*
X24692856Y-27080765D02*
X24649999Y-26995051D01*
X24649999Y-26995051D02*
X24607142Y-26823622D01*
X24607142Y-26823622D02*
X24607142Y-26695051D01*
X24607142Y-26695051D02*
X24649999Y-26523622D01*
X24649999Y-26523622D02*
X24692856Y-26437908D01*
X24692856Y-26437908D02*
X24778571Y-26352194D01*
X24778571Y-26352194D02*
X24907142Y-26309337D01*
X24907142Y-26309337D02*
X24992856Y-26309337D01*
X24992856Y-26309337D02*
X25121428Y-26352194D01*
X25121428Y-26352194D02*
X25164285Y-26395051D01*
X26235713Y-27209337D02*
X26235713Y-26309337D01*
X26749999Y-27209337D02*
X26364285Y-26695051D01*
X26749999Y-26309337D02*
X26235713Y-26823622D01*
X27092856Y-27166480D02*
X27221428Y-27209337D01*
X27221428Y-27209337D02*
X27435713Y-27209337D01*
X27435713Y-27209337D02*
X27521428Y-27166480D01*
X27521428Y-27166480D02*
X27564285Y-27123622D01*
X27564285Y-27123622D02*
X27607142Y-27037908D01*
X27607142Y-27037908D02*
X27607142Y-26952194D01*
X27607142Y-26952194D02*
X27564285Y-26866480D01*
X27564285Y-26866480D02*
X27521428Y-26823622D01*
X27521428Y-26823622D02*
X27435713Y-26780765D01*
X27435713Y-26780765D02*
X27264285Y-26737908D01*
X27264285Y-26737908D02*
X27178570Y-26695051D01*
X27178570Y-26695051D02*
X27135713Y-26652194D01*
X27135713Y-26652194D02*
X27092856Y-26566480D01*
X27092856Y-26566480D02*
X27092856Y-26480765D01*
X27092856Y-26480765D02*
X27135713Y-26395051D01*
X27135713Y-26395051D02*
X27178570Y-26352194D01*
X27178570Y-26352194D02*
X27264285Y-26309337D01*
X27264285Y-26309337D02*
X27478570Y-26309337D01*
X27478570Y-26309337D02*
X27607142Y-26352194D01*
X28164285Y-26309337D02*
X28249999Y-26309337D01*
X28249999Y-26309337D02*
X28335713Y-26352194D01*
X28335713Y-26352194D02*
X28378571Y-26395051D01*
X28378571Y-26395051D02*
X28421428Y-26480765D01*
X28421428Y-26480765D02*
X28464285Y-26652194D01*
X28464285Y-26652194D02*
X28464285Y-26866480D01*
X28464285Y-26866480D02*
X28421428Y-27037908D01*
X28421428Y-27037908D02*
X28378571Y-27123622D01*
X28378571Y-27123622D02*
X28335713Y-27166480D01*
X28335713Y-27166480D02*
X28249999Y-27209337D01*
X28249999Y-27209337D02*
X28164285Y-27209337D01*
X28164285Y-27209337D02*
X28078571Y-27166480D01*
X28078571Y-27166480D02*
X28035713Y-27123622D01*
X28035713Y-27123622D02*
X27992856Y-27037908D01*
X27992856Y-27037908D02*
X27949999Y-26866480D01*
X27949999Y-26866480D02*
X27949999Y-26652194D01*
X27949999Y-26652194D02*
X27992856Y-26480765D01*
X27992856Y-26480765D02*
X28035713Y-26395051D01*
X28035713Y-26395051D02*
X28078571Y-26352194D01*
X28078571Y-26352194D02*
X28164285Y-26309337D01*
X28978571Y-26695051D02*
X28892856Y-26652194D01*
X28892856Y-26652194D02*
X28849999Y-26609337D01*
X28849999Y-26609337D02*
X28807142Y-26523622D01*
X28807142Y-26523622D02*
X28807142Y-26480765D01*
X28807142Y-26480765D02*
X28849999Y-26395051D01*
X28849999Y-26395051D02*
X28892856Y-26352194D01*
X28892856Y-26352194D02*
X28978571Y-26309337D01*
X28978571Y-26309337D02*
X29149999Y-26309337D01*
X29149999Y-26309337D02*
X29235714Y-26352194D01*
X29235714Y-26352194D02*
X29278571Y-26395051D01*
X29278571Y-26395051D02*
X29321428Y-26480765D01*
X29321428Y-26480765D02*
X29321428Y-26523622D01*
X29321428Y-26523622D02*
X29278571Y-26609337D01*
X29278571Y-26609337D02*
X29235714Y-26652194D01*
X29235714Y-26652194D02*
X29149999Y-26695051D01*
X29149999Y-26695051D02*
X28978571Y-26695051D01*
X28978571Y-26695051D02*
X28892856Y-26737908D01*
X28892856Y-26737908D02*
X28849999Y-26780765D01*
X28849999Y-26780765D02*
X28807142Y-26866480D01*
X28807142Y-26866480D02*
X28807142Y-27037908D01*
X28807142Y-27037908D02*
X28849999Y-27123622D01*
X28849999Y-27123622D02*
X28892856Y-27166480D01*
X28892856Y-27166480D02*
X28978571Y-27209337D01*
X28978571Y-27209337D02*
X29149999Y-27209337D01*
X29149999Y-27209337D02*
X29235714Y-27166480D01*
X29235714Y-27166480D02*
X29278571Y-27123622D01*
X29278571Y-27123622D02*
X29321428Y-27037908D01*
X29321428Y-27037908D02*
X29321428Y-26866480D01*
X29321428Y-26866480D02*
X29278571Y-26780765D01*
X29278571Y-26780765D02*
X29235714Y-26737908D01*
X29235714Y-26737908D02*
X29149999Y-26695051D01*
X29621428Y-26309337D02*
X30178571Y-26309337D01*
X30178571Y-26309337D02*
X29878571Y-26652194D01*
X29878571Y-26652194D02*
X30007142Y-26652194D01*
X30007142Y-26652194D02*
X30092857Y-26695051D01*
X30092857Y-26695051D02*
X30135714Y-26737908D01*
X30135714Y-26737908D02*
X30178571Y-26823622D01*
X30178571Y-26823622D02*
X30178571Y-27037908D01*
X30178571Y-27037908D02*
X30135714Y-27123622D01*
X30135714Y-27123622D02*
X30092857Y-27166480D01*
X30092857Y-27166480D02*
X30007142Y-27209337D01*
X30007142Y-27209337D02*
X29749999Y-27209337D01*
X29749999Y-27209337D02*
X29664285Y-27166480D01*
X29664285Y-27166480D02*
X29621428Y-27123622D01*
X30992857Y-26309337D02*
X30564285Y-26309337D01*
X30564285Y-26309337D02*
X30521428Y-26737908D01*
X30521428Y-26737908D02*
X30564285Y-26695051D01*
X30564285Y-26695051D02*
X30650000Y-26652194D01*
X30650000Y-26652194D02*
X30864285Y-26652194D01*
X30864285Y-26652194D02*
X30950000Y-26695051D01*
X30950000Y-26695051D02*
X30992857Y-26737908D01*
X30992857Y-26737908D02*
X31035714Y-26823622D01*
X31035714Y-26823622D02*
X31035714Y-27037908D01*
X31035714Y-27037908D02*
X30992857Y-27123622D01*
X30992857Y-27123622D02*
X30950000Y-27166480D01*
X30950000Y-27166480D02*
X30864285Y-27209337D01*
X30864285Y-27209337D02*
X30650000Y-27209337D01*
X30650000Y-27209337D02*
X30564285Y-27166480D01*
X30564285Y-27166480D02*
X30521428Y-27123622D01*
X31721428Y-26737908D02*
X31421428Y-26737908D01*
X31421428Y-27209337D02*
X31421428Y-26309337D01*
X31421428Y-26309337D02*
X31850000Y-26309337D01*
X32878571Y-26609337D02*
X32878571Y-27509337D01*
X32878571Y-26652194D02*
X32964286Y-26609337D01*
X32964286Y-26609337D02*
X33135714Y-26609337D01*
X33135714Y-26609337D02*
X33221428Y-26652194D01*
X33221428Y-26652194D02*
X33264286Y-26695051D01*
X33264286Y-26695051D02*
X33307143Y-26780765D01*
X33307143Y-26780765D02*
X33307143Y-27037908D01*
X33307143Y-27037908D02*
X33264286Y-27123622D01*
X33264286Y-27123622D02*
X33221428Y-27166480D01*
X33221428Y-27166480D02*
X33135714Y-27209337D01*
X33135714Y-27209337D02*
X32964286Y-27209337D01*
X32964286Y-27209337D02*
X32878571Y-27166480D01*
X33692857Y-27209337D02*
X33692857Y-26609337D01*
X33692857Y-26309337D02*
X33650000Y-26352194D01*
X33650000Y-26352194D02*
X33692857Y-26395051D01*
X33692857Y-26395051D02*
X33735714Y-26352194D01*
X33735714Y-26352194D02*
X33692857Y-26309337D01*
X33692857Y-26309337D02*
X33692857Y-26395051D01*
X34121428Y-26609337D02*
X34121428Y-27209337D01*
X34121428Y-26695051D02*
X34164285Y-26652194D01*
X34164285Y-26652194D02*
X34250000Y-26609337D01*
X34250000Y-26609337D02*
X34378571Y-26609337D01*
X34378571Y-26609337D02*
X34464285Y-26652194D01*
X34464285Y-26652194D02*
X34507143Y-26737908D01*
X34507143Y-26737908D02*
X34507143Y-27209337D01*
X35407143Y-27209337D02*
X34892857Y-27209337D01*
X35150000Y-27209337D02*
X35150000Y-26309337D01*
X35150000Y-26309337D02*
X35064286Y-26437908D01*
X35064286Y-26437908D02*
X34978571Y-26523622D01*
X34978571Y-26523622D02*
X34892857Y-26566480D01*
X19078572Y-44009337D02*
X19592858Y-44009337D01*
X19335715Y-44909337D02*
X19335715Y-44009337D01*
X19892857Y-44909337D02*
X19892857Y-44009337D01*
X20321428Y-44909337D02*
X20321428Y-44009337D01*
X20321428Y-44009337D02*
X20664285Y-44009337D01*
X20664285Y-44009337D02*
X20750000Y-44052194D01*
X20750000Y-44052194D02*
X20792857Y-44095051D01*
X20792857Y-44095051D02*
X20835714Y-44180765D01*
X20835714Y-44180765D02*
X20835714Y-44309337D01*
X20835714Y-44309337D02*
X20792857Y-44395051D01*
X20792857Y-44395051D02*
X20750000Y-44437908D01*
X20750000Y-44437908D02*
X20664285Y-44480765D01*
X20664285Y-44480765D02*
X20321428Y-44480765D01*
X29642857Y-44909337D02*
X29342857Y-44480765D01*
X29128571Y-44909337D02*
X29128571Y-44009337D01*
X29128571Y-44009337D02*
X29471428Y-44009337D01*
X29471428Y-44009337D02*
X29557143Y-44052194D01*
X29557143Y-44052194D02*
X29600000Y-44095051D01*
X29600000Y-44095051D02*
X29642857Y-44180765D01*
X29642857Y-44180765D02*
X29642857Y-44309337D01*
X29642857Y-44309337D02*
X29600000Y-44395051D01*
X29600000Y-44395051D02*
X29557143Y-44437908D01*
X29557143Y-44437908D02*
X29471428Y-44480765D01*
X29471428Y-44480765D02*
X29128571Y-44480765D01*
X30028571Y-44909337D02*
X30028571Y-44009337D01*
X30457142Y-44909337D02*
X30457142Y-44009337D01*
X30457142Y-44009337D02*
X30971428Y-44909337D01*
X30971428Y-44909337D02*
X30971428Y-44009337D01*
X31871428Y-44052194D02*
X31785714Y-44009337D01*
X31785714Y-44009337D02*
X31657142Y-44009337D01*
X31657142Y-44009337D02*
X31528571Y-44052194D01*
X31528571Y-44052194D02*
X31442856Y-44137908D01*
X31442856Y-44137908D02*
X31399999Y-44223622D01*
X31399999Y-44223622D02*
X31357142Y-44395051D01*
X31357142Y-44395051D02*
X31357142Y-44523622D01*
X31357142Y-44523622D02*
X31399999Y-44695051D01*
X31399999Y-44695051D02*
X31442856Y-44780765D01*
X31442856Y-44780765D02*
X31528571Y-44866480D01*
X31528571Y-44866480D02*
X31657142Y-44909337D01*
X31657142Y-44909337D02*
X31742856Y-44909337D01*
X31742856Y-44909337D02*
X31871428Y-44866480D01*
X31871428Y-44866480D02*
X31914285Y-44823622D01*
X31914285Y-44823622D02*
X31914285Y-44523622D01*
X31914285Y-44523622D02*
X31742856Y-44523622D01*
D11*
X23999999Y-16682228D02*
X24285713Y-16682228D01*
X24285713Y-16682228D02*
X24428570Y-16753657D01*
X24428570Y-16753657D02*
X24571427Y-16896514D01*
X24571427Y-16896514D02*
X24642856Y-17182228D01*
X24642856Y-17182228D02*
X24642856Y-17682228D01*
X24642856Y-17682228D02*
X24571427Y-17967942D01*
X24571427Y-17967942D02*
X24428570Y-18110800D01*
X24428570Y-18110800D02*
X24285713Y-18182228D01*
X24285713Y-18182228D02*
X23999999Y-18182228D01*
X23999999Y-18182228D02*
X23857142Y-18110800D01*
X23857142Y-18110800D02*
X23714284Y-17967942D01*
X23714284Y-17967942D02*
X23642856Y-17682228D01*
X23642856Y-17682228D02*
X23642856Y-17182228D01*
X23642856Y-17182228D02*
X23714284Y-16896514D01*
X23714284Y-16896514D02*
X23857142Y-16753657D01*
X23857142Y-16753657D02*
X23999999Y-16682228D01*
X25285713Y-18182228D02*
X25285713Y-16682228D01*
X25285713Y-16682228D02*
X25857142Y-16682228D01*
X25857142Y-16682228D02*
X25999999Y-16753657D01*
X25999999Y-16753657D02*
X26071428Y-16825085D01*
X26071428Y-16825085D02*
X26142856Y-16967942D01*
X26142856Y-16967942D02*
X26142856Y-17182228D01*
X26142856Y-17182228D02*
X26071428Y-17325085D01*
X26071428Y-17325085D02*
X25999999Y-17396514D01*
X25999999Y-17396514D02*
X25857142Y-17467942D01*
X25857142Y-17467942D02*
X25285713Y-17467942D01*
X26785713Y-17396514D02*
X27285713Y-17396514D01*
X27499999Y-18182228D02*
X26785713Y-18182228D01*
X26785713Y-18182228D02*
X26785713Y-16682228D01*
X26785713Y-16682228D02*
X27499999Y-16682228D01*
X28142856Y-18182228D02*
X28142856Y-16682228D01*
X28142856Y-16682228D02*
X28999999Y-18182228D01*
X28999999Y-18182228D02*
X28999999Y-16682228D01*
X30857142Y-18182228D02*
X30857142Y-16682228D01*
X30857142Y-16682228D02*
X31428571Y-16682228D01*
X31428571Y-16682228D02*
X31571428Y-16753657D01*
X31571428Y-16753657D02*
X31642857Y-16825085D01*
X31642857Y-16825085D02*
X31714285Y-16967942D01*
X31714285Y-16967942D02*
X31714285Y-17182228D01*
X31714285Y-17182228D02*
X31642857Y-17325085D01*
X31642857Y-17325085D02*
X31571428Y-17396514D01*
X31571428Y-17396514D02*
X31428571Y-17467942D01*
X31428571Y-17467942D02*
X30857142Y-17467942D01*
X32357142Y-18182228D02*
X32357142Y-16682228D01*
X32357142Y-17396514D02*
X33214285Y-17396514D01*
X33214285Y-18182228D02*
X33214285Y-16682228D01*
X34214286Y-16682228D02*
X34500000Y-16682228D01*
X34500000Y-16682228D02*
X34642857Y-16753657D01*
X34642857Y-16753657D02*
X34785714Y-16896514D01*
X34785714Y-16896514D02*
X34857143Y-17182228D01*
X34857143Y-17182228D02*
X34857143Y-17682228D01*
X34857143Y-17682228D02*
X34785714Y-17967942D01*
X34785714Y-17967942D02*
X34642857Y-18110800D01*
X34642857Y-18110800D02*
X34500000Y-18182228D01*
X34500000Y-18182228D02*
X34214286Y-18182228D01*
X34214286Y-18182228D02*
X34071429Y-18110800D01*
X34071429Y-18110800D02*
X33928571Y-17967942D01*
X33928571Y-17967942D02*
X33857143Y-17682228D01*
X33857143Y-17682228D02*
X33857143Y-17182228D01*
X33857143Y-17182228D02*
X33928571Y-16896514D01*
X33928571Y-16896514D02*
X34071429Y-16753657D01*
X34071429Y-16753657D02*
X34214286Y-16682228D01*
X35500000Y-18182228D02*
X35500000Y-16682228D01*
X35500000Y-16682228D02*
X36357143Y-18182228D01*
X36357143Y-18182228D02*
X36357143Y-16682228D01*
X37071429Y-17396514D02*
X37571429Y-17396514D01*
X37785715Y-18182228D02*
X37071429Y-18182228D01*
X37071429Y-18182228D02*
X37071429Y-16682228D01*
X37071429Y-16682228D02*
X37785715Y-16682228D01*
X40428572Y-18039371D02*
X40357144Y-18110800D01*
X40357144Y-18110800D02*
X40142858Y-18182228D01*
X40142858Y-18182228D02*
X40000001Y-18182228D01*
X40000001Y-18182228D02*
X39785715Y-18110800D01*
X39785715Y-18110800D02*
X39642858Y-17967942D01*
X39642858Y-17967942D02*
X39571429Y-17825085D01*
X39571429Y-17825085D02*
X39500001Y-17539371D01*
X39500001Y-17539371D02*
X39500001Y-17325085D01*
X39500001Y-17325085D02*
X39571429Y-17039371D01*
X39571429Y-17039371D02*
X39642858Y-16896514D01*
X39642858Y-16896514D02*
X39785715Y-16753657D01*
X39785715Y-16753657D02*
X40000001Y-16682228D01*
X40000001Y-16682228D02*
X40142858Y-16682228D01*
X40142858Y-16682228D02*
X40357144Y-16753657D01*
X40357144Y-16753657D02*
X40428572Y-16825085D01*
X41357144Y-16682228D02*
X41642858Y-16682228D01*
X41642858Y-16682228D02*
X41785715Y-16753657D01*
X41785715Y-16753657D02*
X41928572Y-16896514D01*
X41928572Y-16896514D02*
X42000001Y-17182228D01*
X42000001Y-17182228D02*
X42000001Y-17682228D01*
X42000001Y-17682228D02*
X41928572Y-17967942D01*
X41928572Y-17967942D02*
X41785715Y-18110800D01*
X41785715Y-18110800D02*
X41642858Y-18182228D01*
X41642858Y-18182228D02*
X41357144Y-18182228D01*
X41357144Y-18182228D02*
X41214287Y-18110800D01*
X41214287Y-18110800D02*
X41071429Y-17967942D01*
X41071429Y-17967942D02*
X41000001Y-17682228D01*
X41000001Y-17682228D02*
X41000001Y-17182228D01*
X41000001Y-17182228D02*
X41071429Y-16896514D01*
X41071429Y-16896514D02*
X41214287Y-16753657D01*
X41214287Y-16753657D02*
X41357144Y-16682228D01*
X42642858Y-18039371D02*
X42714287Y-18110800D01*
X42714287Y-18110800D02*
X42642858Y-18182228D01*
X42642858Y-18182228D02*
X42571430Y-18110800D01*
X42571430Y-18110800D02*
X42642858Y-18039371D01*
X42642858Y-18039371D02*
X42642858Y-18182228D01*
X45642858Y-18182228D02*
X45642858Y-16682228D01*
X45642858Y-16682228D02*
X46142858Y-17753657D01*
X46142858Y-17753657D02*
X46642858Y-16682228D01*
X46642858Y-16682228D02*
X46642858Y-18182228D01*
X47642859Y-16682228D02*
X47928573Y-16682228D01*
X47928573Y-16682228D02*
X48071430Y-16753657D01*
X48071430Y-16753657D02*
X48214287Y-16896514D01*
X48214287Y-16896514D02*
X48285716Y-17182228D01*
X48285716Y-17182228D02*
X48285716Y-17682228D01*
X48285716Y-17682228D02*
X48214287Y-17967942D01*
X48214287Y-17967942D02*
X48071430Y-18110800D01*
X48071430Y-18110800D02*
X47928573Y-18182228D01*
X47928573Y-18182228D02*
X47642859Y-18182228D01*
X47642859Y-18182228D02*
X47500002Y-18110800D01*
X47500002Y-18110800D02*
X47357144Y-17967942D01*
X47357144Y-17967942D02*
X47285716Y-17682228D01*
X47285716Y-17682228D02*
X47285716Y-17182228D01*
X47285716Y-17182228D02*
X47357144Y-16896514D01*
X47357144Y-16896514D02*
X47500002Y-16753657D01*
X47500002Y-16753657D02*
X47642859Y-16682228D01*
X48928573Y-18182228D02*
X48928573Y-16682228D01*
X48928573Y-16682228D02*
X49285716Y-16682228D01*
X49285716Y-16682228D02*
X49500002Y-16753657D01*
X49500002Y-16753657D02*
X49642859Y-16896514D01*
X49642859Y-16896514D02*
X49714288Y-17039371D01*
X49714288Y-17039371D02*
X49785716Y-17325085D01*
X49785716Y-17325085D02*
X49785716Y-17539371D01*
X49785716Y-17539371D02*
X49714288Y-17825085D01*
X49714288Y-17825085D02*
X49642859Y-17967942D01*
X49642859Y-17967942D02*
X49500002Y-18110800D01*
X49500002Y-18110800D02*
X49285716Y-18182228D01*
X49285716Y-18182228D02*
X48928573Y-18182228D01*
X50428573Y-17396514D02*
X50928573Y-17396514D01*
X51142859Y-18182228D02*
X50428573Y-18182228D01*
X50428573Y-18182228D02*
X50428573Y-16682228D01*
X50428573Y-16682228D02*
X51142859Y-16682228D01*
X52500002Y-18182228D02*
X51785716Y-18182228D01*
X51785716Y-18182228D02*
X51785716Y-16682228D01*
X54428574Y-16682228D02*
X54571431Y-16682228D01*
X54571431Y-16682228D02*
X54714288Y-16753657D01*
X54714288Y-16753657D02*
X54785717Y-16825085D01*
X54785717Y-16825085D02*
X54857145Y-16967942D01*
X54857145Y-16967942D02*
X54928574Y-17253657D01*
X54928574Y-17253657D02*
X54928574Y-17610800D01*
X54928574Y-17610800D02*
X54857145Y-17896514D01*
X54857145Y-17896514D02*
X54785717Y-18039371D01*
X54785717Y-18039371D02*
X54714288Y-18110800D01*
X54714288Y-18110800D02*
X54571431Y-18182228D01*
X54571431Y-18182228D02*
X54428574Y-18182228D01*
X54428574Y-18182228D02*
X54285717Y-18110800D01*
X54285717Y-18110800D02*
X54214288Y-18039371D01*
X54214288Y-18039371D02*
X54142859Y-17896514D01*
X54142859Y-17896514D02*
X54071431Y-17610800D01*
X54071431Y-17610800D02*
X54071431Y-17253657D01*
X54071431Y-17253657D02*
X54142859Y-16967942D01*
X54142859Y-16967942D02*
X54214288Y-16825085D01*
X54214288Y-16825085D02*
X54285717Y-16753657D01*
X54285717Y-16753657D02*
X54428574Y-16682228D01*
X55500002Y-16825085D02*
X55571430Y-16753657D01*
X55571430Y-16753657D02*
X55714288Y-16682228D01*
X55714288Y-16682228D02*
X56071430Y-16682228D01*
X56071430Y-16682228D02*
X56214288Y-16753657D01*
X56214288Y-16753657D02*
X56285716Y-16825085D01*
X56285716Y-16825085D02*
X56357145Y-16967942D01*
X56357145Y-16967942D02*
X56357145Y-17110800D01*
X56357145Y-17110800D02*
X56285716Y-17325085D01*
X56285716Y-17325085D02*
X55428573Y-18182228D01*
X55428573Y-18182228D02*
X56357145Y-18182228D01*
D12*
X26857142Y-15429580D02*
X26809523Y-15477200D01*
X26809523Y-15477200D02*
X26666666Y-15524819D01*
X26666666Y-15524819D02*
X26571428Y-15524819D01*
X26571428Y-15524819D02*
X26428571Y-15477200D01*
X26428571Y-15477200D02*
X26333333Y-15381961D01*
X26333333Y-15381961D02*
X26285714Y-15286723D01*
X26285714Y-15286723D02*
X26238095Y-15096247D01*
X26238095Y-15096247D02*
X26238095Y-14953390D01*
X26238095Y-14953390D02*
X26285714Y-14762914D01*
X26285714Y-14762914D02*
X26333333Y-14667676D01*
X26333333Y-14667676D02*
X26428571Y-14572438D01*
X26428571Y-14572438D02*
X26571428Y-14524819D01*
X26571428Y-14524819D02*
X26666666Y-14524819D01*
X26666666Y-14524819D02*
X26809523Y-14572438D01*
X26809523Y-14572438D02*
X26857142Y-14620057D01*
X27809523Y-15524819D02*
X27238095Y-15524819D01*
X27523809Y-15524819D02*
X27523809Y-14524819D01*
X27523809Y-14524819D02*
X27428571Y-14667676D01*
X27428571Y-14667676D02*
X27333333Y-14762914D01*
X27333333Y-14762914D02*
X27238095Y-14810533D01*
X28190476Y-14620057D02*
X28238095Y-14572438D01*
X28238095Y-14572438D02*
X28333333Y-14524819D01*
X28333333Y-14524819D02*
X28571428Y-14524819D01*
X28571428Y-14524819D02*
X28666666Y-14572438D01*
X28666666Y-14572438D02*
X28714285Y-14620057D01*
X28714285Y-14620057D02*
X28761904Y-14715295D01*
X28761904Y-14715295D02*
X28761904Y-14810533D01*
X28761904Y-14810533D02*
X28714285Y-14953390D01*
X28714285Y-14953390D02*
X28142857Y-15524819D01*
X28142857Y-15524819D02*
X28761904Y-15524819D01*
X51833333Y-35929580D02*
X51785714Y-35977200D01*
X51785714Y-35977200D02*
X51642857Y-36024819D01*
X51642857Y-36024819D02*
X51547619Y-36024819D01*
X51547619Y-36024819D02*
X51404762Y-35977200D01*
X51404762Y-35977200D02*
X51309524Y-35881961D01*
X51309524Y-35881961D02*
X51261905Y-35786723D01*
X51261905Y-35786723D02*
X51214286Y-35596247D01*
X51214286Y-35596247D02*
X51214286Y-35453390D01*
X51214286Y-35453390D02*
X51261905Y-35262914D01*
X51261905Y-35262914D02*
X51309524Y-35167676D01*
X51309524Y-35167676D02*
X51404762Y-35072438D01*
X51404762Y-35072438D02*
X51547619Y-35024819D01*
X51547619Y-35024819D02*
X51642857Y-35024819D01*
X51642857Y-35024819D02*
X51785714Y-35072438D01*
X51785714Y-35072438D02*
X51833333Y-35120057D01*
X52404762Y-35453390D02*
X52309524Y-35405771D01*
X52309524Y-35405771D02*
X52261905Y-35358152D01*
X52261905Y-35358152D02*
X52214286Y-35262914D01*
X52214286Y-35262914D02*
X52214286Y-35215295D01*
X52214286Y-35215295D02*
X52261905Y-35120057D01*
X52261905Y-35120057D02*
X52309524Y-35072438D01*
X52309524Y-35072438D02*
X52404762Y-35024819D01*
X52404762Y-35024819D02*
X52595238Y-35024819D01*
X52595238Y-35024819D02*
X52690476Y-35072438D01*
X52690476Y-35072438D02*
X52738095Y-35120057D01*
X52738095Y-35120057D02*
X52785714Y-35215295D01*
X52785714Y-35215295D02*
X52785714Y-35262914D01*
X52785714Y-35262914D02*
X52738095Y-35358152D01*
X52738095Y-35358152D02*
X52690476Y-35405771D01*
X52690476Y-35405771D02*
X52595238Y-35453390D01*
X52595238Y-35453390D02*
X52404762Y-35453390D01*
X52404762Y-35453390D02*
X52309524Y-35501009D01*
X52309524Y-35501009D02*
X52261905Y-35548628D01*
X52261905Y-35548628D02*
X52214286Y-35643866D01*
X52214286Y-35643866D02*
X52214286Y-35834342D01*
X52214286Y-35834342D02*
X52261905Y-35929580D01*
X52261905Y-35929580D02*
X52309524Y-35977200D01*
X52309524Y-35977200D02*
X52404762Y-36024819D01*
X52404762Y-36024819D02*
X52595238Y-36024819D01*
X52595238Y-36024819D02*
X52690476Y-35977200D01*
X52690476Y-35977200D02*
X52738095Y-35929580D01*
X52738095Y-35929580D02*
X52785714Y-35834342D01*
X52785714Y-35834342D02*
X52785714Y-35643866D01*
X52785714Y-35643866D02*
X52738095Y-35548628D01*
X52738095Y-35548628D02*
X52690476Y-35501009D01*
X52690476Y-35501009D02*
X52595238Y-35453390D01*
X37261905Y-47954819D02*
X37261905Y-46954819D01*
X37261905Y-46954819D02*
X37500000Y-46954819D01*
X37500000Y-46954819D02*
X37642857Y-47002438D01*
X37642857Y-47002438D02*
X37738095Y-47097676D01*
X37738095Y-47097676D02*
X37785714Y-47192914D01*
X37785714Y-47192914D02*
X37833333Y-47383390D01*
X37833333Y-47383390D02*
X37833333Y-47526247D01*
X37833333Y-47526247D02*
X37785714Y-47716723D01*
X37785714Y-47716723D02*
X37738095Y-47811961D01*
X37738095Y-47811961D02*
X37642857Y-47907200D01*
X37642857Y-47907200D02*
X37500000Y-47954819D01*
X37500000Y-47954819D02*
X37261905Y-47954819D01*
X38785714Y-47954819D02*
X38214286Y-47954819D01*
X38500000Y-47954819D02*
X38500000Y-46954819D01*
X38500000Y-46954819D02*
X38404762Y-47097676D01*
X38404762Y-47097676D02*
X38309524Y-47192914D01*
X38309524Y-47192914D02*
X38214286Y-47240533D01*
X27833333Y-35679580D02*
X27785714Y-35727200D01*
X27785714Y-35727200D02*
X27642857Y-35774819D01*
X27642857Y-35774819D02*
X27547619Y-35774819D01*
X27547619Y-35774819D02*
X27404762Y-35727200D01*
X27404762Y-35727200D02*
X27309524Y-35631961D01*
X27309524Y-35631961D02*
X27261905Y-35536723D01*
X27261905Y-35536723D02*
X27214286Y-35346247D01*
X27214286Y-35346247D02*
X27214286Y-35203390D01*
X27214286Y-35203390D02*
X27261905Y-35012914D01*
X27261905Y-35012914D02*
X27309524Y-34917676D01*
X27309524Y-34917676D02*
X27404762Y-34822438D01*
X27404762Y-34822438D02*
X27547619Y-34774819D01*
X27547619Y-34774819D02*
X27642857Y-34774819D01*
X27642857Y-34774819D02*
X27785714Y-34822438D01*
X27785714Y-34822438D02*
X27833333Y-34870057D01*
X28690476Y-34774819D02*
X28500000Y-34774819D01*
X28500000Y-34774819D02*
X28404762Y-34822438D01*
X28404762Y-34822438D02*
X28357143Y-34870057D01*
X28357143Y-34870057D02*
X28261905Y-35012914D01*
X28261905Y-35012914D02*
X28214286Y-35203390D01*
X28214286Y-35203390D02*
X28214286Y-35584342D01*
X28214286Y-35584342D02*
X28261905Y-35679580D01*
X28261905Y-35679580D02*
X28309524Y-35727200D01*
X28309524Y-35727200D02*
X28404762Y-35774819D01*
X28404762Y-35774819D02*
X28595238Y-35774819D01*
X28595238Y-35774819D02*
X28690476Y-35727200D01*
X28690476Y-35727200D02*
X28738095Y-35679580D01*
X28738095Y-35679580D02*
X28785714Y-35584342D01*
X28785714Y-35584342D02*
X28785714Y-35346247D01*
X28785714Y-35346247D02*
X28738095Y-35251009D01*
X28738095Y-35251009D02*
X28690476Y-35203390D01*
X28690476Y-35203390D02*
X28595238Y-35155771D01*
X28595238Y-35155771D02*
X28404762Y-35155771D01*
X28404762Y-35155771D02*
X28309524Y-35203390D01*
X28309524Y-35203390D02*
X28261905Y-35251009D01*
X28261905Y-35251009D02*
X28214286Y-35346247D01*
X67833333Y-19179580D02*
X67785714Y-19227200D01*
X67785714Y-19227200D02*
X67642857Y-19274819D01*
X67642857Y-19274819D02*
X67547619Y-19274819D01*
X67547619Y-19274819D02*
X67404762Y-19227200D01*
X67404762Y-19227200D02*
X67309524Y-19131961D01*
X67309524Y-19131961D02*
X67261905Y-19036723D01*
X67261905Y-19036723D02*
X67214286Y-18846247D01*
X67214286Y-18846247D02*
X67214286Y-18703390D01*
X67214286Y-18703390D02*
X67261905Y-18512914D01*
X67261905Y-18512914D02*
X67309524Y-18417676D01*
X67309524Y-18417676D02*
X67404762Y-18322438D01*
X67404762Y-18322438D02*
X67547619Y-18274819D01*
X67547619Y-18274819D02*
X67642857Y-18274819D01*
X67642857Y-18274819D02*
X67785714Y-18322438D01*
X67785714Y-18322438D02*
X67833333Y-18370057D01*
X68166667Y-18274819D02*
X68785714Y-18274819D01*
X68785714Y-18274819D02*
X68452381Y-18655771D01*
X68452381Y-18655771D02*
X68595238Y-18655771D01*
X68595238Y-18655771D02*
X68690476Y-18703390D01*
X68690476Y-18703390D02*
X68738095Y-18751009D01*
X68738095Y-18751009D02*
X68785714Y-18846247D01*
X68785714Y-18846247D02*
X68785714Y-19084342D01*
X68785714Y-19084342D02*
X68738095Y-19179580D01*
X68738095Y-19179580D02*
X68690476Y-19227200D01*
X68690476Y-19227200D02*
X68595238Y-19274819D01*
X68595238Y-19274819D02*
X68309524Y-19274819D01*
X68309524Y-19274819D02*
X68214286Y-19227200D01*
X68214286Y-19227200D02*
X68166667Y-19179580D01*
X14157142Y-50929580D02*
X14109523Y-50977200D01*
X14109523Y-50977200D02*
X13966666Y-51024819D01*
X13966666Y-51024819D02*
X13871428Y-51024819D01*
X13871428Y-51024819D02*
X13728571Y-50977200D01*
X13728571Y-50977200D02*
X13633333Y-50881961D01*
X13633333Y-50881961D02*
X13585714Y-50786723D01*
X13585714Y-50786723D02*
X13538095Y-50596247D01*
X13538095Y-50596247D02*
X13538095Y-50453390D01*
X13538095Y-50453390D02*
X13585714Y-50262914D01*
X13585714Y-50262914D02*
X13633333Y-50167676D01*
X13633333Y-50167676D02*
X13728571Y-50072438D01*
X13728571Y-50072438D02*
X13871428Y-50024819D01*
X13871428Y-50024819D02*
X13966666Y-50024819D01*
X13966666Y-50024819D02*
X14109523Y-50072438D01*
X14109523Y-50072438D02*
X14157142Y-50120057D01*
X15109523Y-51024819D02*
X14538095Y-51024819D01*
X14823809Y-51024819D02*
X14823809Y-50024819D01*
X14823809Y-50024819D02*
X14728571Y-50167676D01*
X14728571Y-50167676D02*
X14633333Y-50262914D01*
X14633333Y-50262914D02*
X14538095Y-50310533D01*
X15966666Y-50358152D02*
X15966666Y-51024819D01*
X15728571Y-49977200D02*
X15490476Y-50691485D01*
X15490476Y-50691485D02*
X16109523Y-50691485D01*
X4929580Y-31666666D02*
X4977200Y-31714285D01*
X4977200Y-31714285D02*
X5024819Y-31857142D01*
X5024819Y-31857142D02*
X5024819Y-31952380D01*
X5024819Y-31952380D02*
X4977200Y-32095237D01*
X4977200Y-32095237D02*
X4881961Y-32190475D01*
X4881961Y-32190475D02*
X4786723Y-32238094D01*
X4786723Y-32238094D02*
X4596247Y-32285713D01*
X4596247Y-32285713D02*
X4453390Y-32285713D01*
X4453390Y-32285713D02*
X4262914Y-32238094D01*
X4262914Y-32238094D02*
X4167676Y-32190475D01*
X4167676Y-32190475D02*
X4072438Y-32095237D01*
X4072438Y-32095237D02*
X4024819Y-31952380D01*
X4024819Y-31952380D02*
X4024819Y-31857142D01*
X4024819Y-31857142D02*
X4072438Y-31714285D01*
X4072438Y-31714285D02*
X4120057Y-31666666D01*
X5024819Y-31190475D02*
X5024819Y-30999999D01*
X5024819Y-30999999D02*
X4977200Y-30904761D01*
X4977200Y-30904761D02*
X4929580Y-30857142D01*
X4929580Y-30857142D02*
X4786723Y-30761904D01*
X4786723Y-30761904D02*
X4596247Y-30714285D01*
X4596247Y-30714285D02*
X4215295Y-30714285D01*
X4215295Y-30714285D02*
X4120057Y-30761904D01*
X4120057Y-30761904D02*
X4072438Y-30809523D01*
X4072438Y-30809523D02*
X4024819Y-30904761D01*
X4024819Y-30904761D02*
X4024819Y-31095237D01*
X4024819Y-31095237D02*
X4072438Y-31190475D01*
X4072438Y-31190475D02*
X4120057Y-31238094D01*
X4120057Y-31238094D02*
X4215295Y-31285713D01*
X4215295Y-31285713D02*
X4453390Y-31285713D01*
X4453390Y-31285713D02*
X4548628Y-31238094D01*
X4548628Y-31238094D02*
X4596247Y-31190475D01*
X4596247Y-31190475D02*
X4643866Y-31095237D01*
X4643866Y-31095237D02*
X4643866Y-30904761D01*
X4643866Y-30904761D02*
X4596247Y-30809523D01*
X4596247Y-30809523D02*
X4548628Y-30761904D01*
X4548628Y-30761904D02*
X4453390Y-30714285D01*
X32238095Y-8754819D02*
X32238095Y-7754819D01*
X32238095Y-8231009D02*
X32809523Y-8231009D01*
X32809523Y-8754819D02*
X32809523Y-7754819D01*
X33809523Y-8754819D02*
X33238095Y-8754819D01*
X33523809Y-8754819D02*
X33523809Y-7754819D01*
X33523809Y-7754819D02*
X33428571Y-7897676D01*
X33428571Y-7897676D02*
X33333333Y-7992914D01*
X33333333Y-7992914D02*
X33238095Y-8040533D01*
X59523809Y-53978628D02*
X59523809Y-54454819D01*
X59190476Y-53454819D02*
X59523809Y-53978628D01*
X59523809Y-53978628D02*
X59857142Y-53454819D01*
X60714285Y-54454819D02*
X60142857Y-54454819D01*
X60428571Y-54454819D02*
X60428571Y-53454819D01*
X60428571Y-53454819D02*
X60333333Y-53597676D01*
X60333333Y-53597676D02*
X60238095Y-53692914D01*
X60238095Y-53692914D02*
X60142857Y-53740533D01*
X9238095Y-33754819D02*
X9238095Y-32754819D01*
X9238095Y-33231009D02*
X9809523Y-33231009D01*
X9809523Y-33754819D02*
X9809523Y-32754819D01*
X10190476Y-32754819D02*
X10809523Y-32754819D01*
X10809523Y-32754819D02*
X10476190Y-33135771D01*
X10476190Y-33135771D02*
X10619047Y-33135771D01*
X10619047Y-33135771D02*
X10714285Y-33183390D01*
X10714285Y-33183390D02*
X10761904Y-33231009D01*
X10761904Y-33231009D02*
X10809523Y-33326247D01*
X10809523Y-33326247D02*
X10809523Y-33564342D01*
X10809523Y-33564342D02*
X10761904Y-33659580D01*
X10761904Y-33659580D02*
X10714285Y-33707200D01*
X10714285Y-33707200D02*
X10619047Y-33754819D01*
X10619047Y-33754819D02*
X10333333Y-33754819D01*
X10333333Y-33754819D02*
X10238095Y-33707200D01*
X10238095Y-33707200D02*
X10190476Y-33659580D01*
X9333333Y-32024819D02*
X9000000Y-31548628D01*
X8761905Y-32024819D02*
X8761905Y-31024819D01*
X8761905Y-31024819D02*
X9142857Y-31024819D01*
X9142857Y-31024819D02*
X9238095Y-31072438D01*
X9238095Y-31072438D02*
X9285714Y-31120057D01*
X9285714Y-31120057D02*
X9333333Y-31215295D01*
X9333333Y-31215295D02*
X9333333Y-31358152D01*
X9333333Y-31358152D02*
X9285714Y-31453390D01*
X9285714Y-31453390D02*
X9238095Y-31501009D01*
X9238095Y-31501009D02*
X9142857Y-31548628D01*
X9142857Y-31548628D02*
X8761905Y-31548628D01*
X9761905Y-32024819D02*
X9761905Y-31024819D01*
X9761905Y-31024819D02*
X10142857Y-31024819D01*
X10142857Y-31024819D02*
X10238095Y-31072438D01*
X10238095Y-31072438D02*
X10285714Y-31120057D01*
X10285714Y-31120057D02*
X10333333Y-31215295D01*
X10333333Y-31215295D02*
X10333333Y-31358152D01*
X10333333Y-31358152D02*
X10285714Y-31453390D01*
X10285714Y-31453390D02*
X10238095Y-31501009D01*
X10238095Y-31501009D02*
X10142857Y-31548628D01*
X10142857Y-31548628D02*
X9761905Y-31548628D01*
X10714286Y-31120057D02*
X10761905Y-31072438D01*
X10761905Y-31072438D02*
X10857143Y-31024819D01*
X10857143Y-31024819D02*
X11095238Y-31024819D01*
X11095238Y-31024819D02*
X11190476Y-31072438D01*
X11190476Y-31072438D02*
X11238095Y-31120057D01*
X11238095Y-31120057D02*
X11285714Y-31215295D01*
X11285714Y-31215295D02*
X11285714Y-31310533D01*
X11285714Y-31310533D02*
X11238095Y-31453390D01*
X11238095Y-31453390D02*
X10666667Y-32024819D01*
X10666667Y-32024819D02*
X11285714Y-32024819D01*
X9333333Y-29024819D02*
X9000000Y-28548628D01*
X8761905Y-29024819D02*
X8761905Y-28024819D01*
X8761905Y-28024819D02*
X9142857Y-28024819D01*
X9142857Y-28024819D02*
X9238095Y-28072438D01*
X9238095Y-28072438D02*
X9285714Y-28120057D01*
X9285714Y-28120057D02*
X9333333Y-28215295D01*
X9333333Y-28215295D02*
X9333333Y-28358152D01*
X9333333Y-28358152D02*
X9285714Y-28453390D01*
X9285714Y-28453390D02*
X9238095Y-28501009D01*
X9238095Y-28501009D02*
X9142857Y-28548628D01*
X9142857Y-28548628D02*
X8761905Y-28548628D01*
X9761905Y-29024819D02*
X9761905Y-28024819D01*
X9761905Y-28024819D02*
X10142857Y-28024819D01*
X10142857Y-28024819D02*
X10238095Y-28072438D01*
X10238095Y-28072438D02*
X10285714Y-28120057D01*
X10285714Y-28120057D02*
X10333333Y-28215295D01*
X10333333Y-28215295D02*
X10333333Y-28358152D01*
X10333333Y-28358152D02*
X10285714Y-28453390D01*
X10285714Y-28453390D02*
X10238095Y-28501009D01*
X10238095Y-28501009D02*
X10142857Y-28548628D01*
X10142857Y-28548628D02*
X9761905Y-28548628D01*
X11285714Y-29024819D02*
X10714286Y-29024819D01*
X11000000Y-29024819D02*
X11000000Y-28024819D01*
X11000000Y-28024819D02*
X10904762Y-28167676D01*
X10904762Y-28167676D02*
X10809524Y-28262914D01*
X10809524Y-28262914D02*
X10714286Y-28310533D01*
X67857142Y-37929580D02*
X67809523Y-37977200D01*
X67809523Y-37977200D02*
X67666666Y-38024819D01*
X67666666Y-38024819D02*
X67571428Y-38024819D01*
X67571428Y-38024819D02*
X67428571Y-37977200D01*
X67428571Y-37977200D02*
X67333333Y-37881961D01*
X67333333Y-37881961D02*
X67285714Y-37786723D01*
X67285714Y-37786723D02*
X67238095Y-37596247D01*
X67238095Y-37596247D02*
X67238095Y-37453390D01*
X67238095Y-37453390D02*
X67285714Y-37262914D01*
X67285714Y-37262914D02*
X67333333Y-37167676D01*
X67333333Y-37167676D02*
X67428571Y-37072438D01*
X67428571Y-37072438D02*
X67571428Y-37024819D01*
X67571428Y-37024819D02*
X67666666Y-37024819D01*
X67666666Y-37024819D02*
X67809523Y-37072438D01*
X67809523Y-37072438D02*
X67857142Y-37120057D01*
X68238095Y-37120057D02*
X68285714Y-37072438D01*
X68285714Y-37072438D02*
X68380952Y-37024819D01*
X68380952Y-37024819D02*
X68619047Y-37024819D01*
X68619047Y-37024819D02*
X68714285Y-37072438D01*
X68714285Y-37072438D02*
X68761904Y-37120057D01*
X68761904Y-37120057D02*
X68809523Y-37215295D01*
X68809523Y-37215295D02*
X68809523Y-37310533D01*
X68809523Y-37310533D02*
X68761904Y-37453390D01*
X68761904Y-37453390D02*
X68190476Y-38024819D01*
X68190476Y-38024819D02*
X68809523Y-38024819D01*
X69761904Y-38024819D02*
X69190476Y-38024819D01*
X69476190Y-38024819D02*
X69476190Y-37024819D01*
X69476190Y-37024819D02*
X69380952Y-37167676D01*
X69380952Y-37167676D02*
X69285714Y-37262914D01*
X69285714Y-37262914D02*
X69190476Y-37310533D01*
X54666666Y-9781009D02*
X54333333Y-9781009D01*
X54333333Y-10304819D02*
X54333333Y-9304819D01*
X54333333Y-9304819D02*
X54809523Y-9304819D01*
X55714285Y-10304819D02*
X55142857Y-10304819D01*
X55428571Y-10304819D02*
X55428571Y-9304819D01*
X55428571Y-9304819D02*
X55333333Y-9447676D01*
X55333333Y-9447676D02*
X55238095Y-9542914D01*
X55238095Y-9542914D02*
X55142857Y-9590533D01*
X68666667Y-357200D02*
X68809524Y-404819D01*
X68809524Y-404819D02*
X69047619Y-404819D01*
X69047619Y-404819D02*
X69142857Y-357200D01*
X69142857Y-357200D02*
X69190476Y-309580D01*
X69190476Y-309580D02*
X69238095Y-214342D01*
X69238095Y-214342D02*
X69238095Y-119104D01*
X69238095Y-119104D02*
X69190476Y-23866D01*
X69190476Y-23866D02*
X69142857Y23752D01*
X69142857Y23752D02*
X69047619Y71371D01*
X69047619Y71371D02*
X68857143Y118990D01*
X68857143Y118990D02*
X68761905Y166609D01*
X68761905Y166609D02*
X68714286Y214228D01*
X68714286Y214228D02*
X68666667Y309466D01*
X68666667Y309466D02*
X68666667Y404704D01*
X68666667Y404704D02*
X68714286Y499942D01*
X68714286Y499942D02*
X68761905Y547561D01*
X68761905Y547561D02*
X68857143Y595180D01*
X68857143Y595180D02*
X69095238Y595180D01*
X69095238Y595180D02*
X69238095Y547561D01*
X69571429Y595180D02*
X69809524Y-404819D01*
X69809524Y-404819D02*
X70000000Y309466D01*
X70000000Y309466D02*
X70190476Y-404819D01*
X70190476Y-404819D02*
X70428572Y595180D01*
X70761905Y499942D02*
X70809524Y547561D01*
X70809524Y547561D02*
X70904762Y595180D01*
X70904762Y595180D02*
X71142857Y595180D01*
X71142857Y595180D02*
X71238095Y547561D01*
X71238095Y547561D02*
X71285714Y499942D01*
X71285714Y499942D02*
X71333333Y404704D01*
X71333333Y404704D02*
X71333333Y309466D01*
X71333333Y309466D02*
X71285714Y166609D01*
X71285714Y166609D02*
X70714286Y-404819D01*
X70714286Y-404819D02*
X71333333Y-404819D01*
X25984819Y-28713333D02*
X26699104Y-28713333D01*
X26699104Y-28713333D02*
X26841961Y-28760952D01*
X26841961Y-28760952D02*
X26937200Y-28856190D01*
X26937200Y-28856190D02*
X26984819Y-28999047D01*
X26984819Y-28999047D02*
X26984819Y-29094285D01*
X25984819Y-28332380D02*
X25984819Y-27713333D01*
X25984819Y-27713333D02*
X26365771Y-28046666D01*
X26365771Y-28046666D02*
X26365771Y-27903809D01*
X26365771Y-27903809D02*
X26413390Y-27808571D01*
X26413390Y-27808571D02*
X26461009Y-27760952D01*
X26461009Y-27760952D02*
X26556247Y-27713333D01*
X26556247Y-27713333D02*
X26794342Y-27713333D01*
X26794342Y-27713333D02*
X26889580Y-27760952D01*
X26889580Y-27760952D02*
X26937200Y-27808571D01*
X26937200Y-27808571D02*
X26984819Y-27903809D01*
X26984819Y-27903809D02*
X26984819Y-28189523D01*
X26984819Y-28189523D02*
X26937200Y-28284761D01*
X26937200Y-28284761D02*
X26889580Y-28332380D01*
X31833333Y-36024819D02*
X31500000Y-35548628D01*
X31261905Y-36024819D02*
X31261905Y-35024819D01*
X31261905Y-35024819D02*
X31642857Y-35024819D01*
X31642857Y-35024819D02*
X31738095Y-35072438D01*
X31738095Y-35072438D02*
X31785714Y-35120057D01*
X31785714Y-35120057D02*
X31833333Y-35215295D01*
X31833333Y-35215295D02*
X31833333Y-35358152D01*
X31833333Y-35358152D02*
X31785714Y-35453390D01*
X31785714Y-35453390D02*
X31738095Y-35501009D01*
X31738095Y-35501009D02*
X31642857Y-35548628D01*
X31642857Y-35548628D02*
X31261905Y-35548628D01*
X32690476Y-35024819D02*
X32500000Y-35024819D01*
X32500000Y-35024819D02*
X32404762Y-35072438D01*
X32404762Y-35072438D02*
X32357143Y-35120057D01*
X32357143Y-35120057D02*
X32261905Y-35262914D01*
X32261905Y-35262914D02*
X32214286Y-35453390D01*
X32214286Y-35453390D02*
X32214286Y-35834342D01*
X32214286Y-35834342D02*
X32261905Y-35929580D01*
X32261905Y-35929580D02*
X32309524Y-35977200D01*
X32309524Y-35977200D02*
X32404762Y-36024819D01*
X32404762Y-36024819D02*
X32595238Y-36024819D01*
X32595238Y-36024819D02*
X32690476Y-35977200D01*
X32690476Y-35977200D02*
X32738095Y-35929580D01*
X32738095Y-35929580D02*
X32785714Y-35834342D01*
X32785714Y-35834342D02*
X32785714Y-35596247D01*
X32785714Y-35596247D02*
X32738095Y-35501009D01*
X32738095Y-35501009D02*
X32690476Y-35453390D01*
X32690476Y-35453390D02*
X32595238Y-35405771D01*
X32595238Y-35405771D02*
X32404762Y-35405771D01*
X32404762Y-35405771D02*
X32309524Y-35453390D01*
X32309524Y-35453390D02*
X32261905Y-35501009D01*
X32261905Y-35501009D02*
X32214286Y-35596247D01*
X46238095Y-12554819D02*
X46238095Y-13364342D01*
X46238095Y-13364342D02*
X46285714Y-13459580D01*
X46285714Y-13459580D02*
X46333333Y-13507200D01*
X46333333Y-13507200D02*
X46428571Y-13554819D01*
X46428571Y-13554819D02*
X46619047Y-13554819D01*
X46619047Y-13554819D02*
X46714285Y-13507200D01*
X46714285Y-13507200D02*
X46761904Y-13459580D01*
X46761904Y-13459580D02*
X46809523Y-13364342D01*
X46809523Y-13364342D02*
X46809523Y-12554819D01*
X47761904Y-12554819D02*
X47285714Y-12554819D01*
X47285714Y-12554819D02*
X47238095Y-13031009D01*
X47238095Y-13031009D02*
X47285714Y-12983390D01*
X47285714Y-12983390D02*
X47380952Y-12935771D01*
X47380952Y-12935771D02*
X47619047Y-12935771D01*
X47619047Y-12935771D02*
X47714285Y-12983390D01*
X47714285Y-12983390D02*
X47761904Y-13031009D01*
X47761904Y-13031009D02*
X47809523Y-13126247D01*
X47809523Y-13126247D02*
X47809523Y-13364342D01*
X47809523Y-13364342D02*
X47761904Y-13459580D01*
X47761904Y-13459580D02*
X47714285Y-13507200D01*
X47714285Y-13507200D02*
X47619047Y-13554819D01*
X47619047Y-13554819D02*
X47380952Y-13554819D01*
X47380952Y-13554819D02*
X47285714Y-13507200D01*
X47285714Y-13507200D02*
X47238095Y-13459580D01*
X54666666Y390180D02*
X54666666Y-324104D01*
X54666666Y-324104D02*
X54619047Y-466961D01*
X54619047Y-466961D02*
X54523809Y-562200D01*
X54523809Y-562200D02*
X54380952Y-609819D01*
X54380952Y-609819D02*
X54285714Y-609819D01*
X55095238Y294942D02*
X55142857Y342561D01*
X55142857Y342561D02*
X55238095Y390180D01*
X55238095Y390180D02*
X55476190Y390180D01*
X55476190Y390180D02*
X55571428Y342561D01*
X55571428Y342561D02*
X55619047Y294942D01*
X55619047Y294942D02*
X55666666Y199704D01*
X55666666Y199704D02*
X55666666Y104466D01*
X55666666Y104466D02*
X55619047Y-38390D01*
X55619047Y-38390D02*
X55047619Y-609819D01*
X55047619Y-609819D02*
X55666666Y-609819D01*
X53234819Y-45261904D02*
X54044342Y-45261904D01*
X54044342Y-45261904D02*
X54139580Y-45214285D01*
X54139580Y-45214285D02*
X54187200Y-45166666D01*
X54187200Y-45166666D02*
X54234819Y-45071428D01*
X54234819Y-45071428D02*
X54234819Y-44880952D01*
X54234819Y-44880952D02*
X54187200Y-44785714D01*
X54187200Y-44785714D02*
X54139580Y-44738095D01*
X54139580Y-44738095D02*
X54044342Y-44690476D01*
X54044342Y-44690476D02*
X53234819Y-44690476D01*
X53234819Y-44309523D02*
X53234819Y-43690476D01*
X53234819Y-43690476D02*
X53615771Y-44023809D01*
X53615771Y-44023809D02*
X53615771Y-43880952D01*
X53615771Y-43880952D02*
X53663390Y-43785714D01*
X53663390Y-43785714D02*
X53711009Y-43738095D01*
X53711009Y-43738095D02*
X53806247Y-43690476D01*
X53806247Y-43690476D02*
X54044342Y-43690476D01*
X54044342Y-43690476D02*
X54139580Y-43738095D01*
X54139580Y-43738095D02*
X54187200Y-43785714D01*
X54187200Y-43785714D02*
X54234819Y-43880952D01*
X54234819Y-43880952D02*
X54234819Y-44166666D01*
X54234819Y-44166666D02*
X54187200Y-44261904D01*
X54187200Y-44261904D02*
X54139580Y-44309523D01*
X13238095Y-41654819D02*
X13238095Y-42464342D01*
X13238095Y-42464342D02*
X13285714Y-42559580D01*
X13285714Y-42559580D02*
X13333333Y-42607200D01*
X13333333Y-42607200D02*
X13428571Y-42654819D01*
X13428571Y-42654819D02*
X13619047Y-42654819D01*
X13619047Y-42654819D02*
X13714285Y-42607200D01*
X13714285Y-42607200D02*
X13761904Y-42559580D01*
X13761904Y-42559580D02*
X13809523Y-42464342D01*
X13809523Y-42464342D02*
X13809523Y-41654819D01*
X14238095Y-41750057D02*
X14285714Y-41702438D01*
X14285714Y-41702438D02*
X14380952Y-41654819D01*
X14380952Y-41654819D02*
X14619047Y-41654819D01*
X14619047Y-41654819D02*
X14714285Y-41702438D01*
X14714285Y-41702438D02*
X14761904Y-41750057D01*
X14761904Y-41750057D02*
X14809523Y-41845295D01*
X14809523Y-41845295D02*
X14809523Y-41940533D01*
X14809523Y-41940533D02*
X14761904Y-42083390D01*
X14761904Y-42083390D02*
X14190476Y-42654819D01*
X14190476Y-42654819D02*
X14809523Y-42654819D01*
X35833333Y-35929580D02*
X35785714Y-35977200D01*
X35785714Y-35977200D02*
X35642857Y-36024819D01*
X35642857Y-36024819D02*
X35547619Y-36024819D01*
X35547619Y-36024819D02*
X35404762Y-35977200D01*
X35404762Y-35977200D02*
X35309524Y-35881961D01*
X35309524Y-35881961D02*
X35261905Y-35786723D01*
X35261905Y-35786723D02*
X35214286Y-35596247D01*
X35214286Y-35596247D02*
X35214286Y-35453390D01*
X35214286Y-35453390D02*
X35261905Y-35262914D01*
X35261905Y-35262914D02*
X35309524Y-35167676D01*
X35309524Y-35167676D02*
X35404762Y-35072438D01*
X35404762Y-35072438D02*
X35547619Y-35024819D01*
X35547619Y-35024819D02*
X35642857Y-35024819D01*
X35642857Y-35024819D02*
X35785714Y-35072438D01*
X35785714Y-35072438D02*
X35833333Y-35120057D01*
X36166667Y-35024819D02*
X36833333Y-35024819D01*
X36833333Y-35024819D02*
X36404762Y-36024819D01*
X69238095Y-6754819D02*
X69238095Y-5754819D01*
X69238095Y-6231009D02*
X69809523Y-6231009D01*
X69809523Y-6754819D02*
X69809523Y-5754819D01*
X70238095Y-5850057D02*
X70285714Y-5802438D01*
X70285714Y-5802438D02*
X70380952Y-5754819D01*
X70380952Y-5754819D02*
X70619047Y-5754819D01*
X70619047Y-5754819D02*
X70714285Y-5802438D01*
X70714285Y-5802438D02*
X70761904Y-5850057D01*
X70761904Y-5850057D02*
X70809523Y-5945295D01*
X70809523Y-5945295D02*
X70809523Y-6040533D01*
X70809523Y-6040533D02*
X70761904Y-6183390D01*
X70761904Y-6183390D02*
X70190476Y-6754819D01*
X70190476Y-6754819D02*
X70809523Y-6754819D01*
X56857142Y-18524819D02*
X56523809Y-18048628D01*
X56285714Y-18524819D02*
X56285714Y-17524819D01*
X56285714Y-17524819D02*
X56666666Y-17524819D01*
X56666666Y-17524819D02*
X56761904Y-17572438D01*
X56761904Y-17572438D02*
X56809523Y-17620057D01*
X56809523Y-17620057D02*
X56857142Y-17715295D01*
X56857142Y-17715295D02*
X56857142Y-17858152D01*
X56857142Y-17858152D02*
X56809523Y-17953390D01*
X56809523Y-17953390D02*
X56761904Y-18001009D01*
X56761904Y-18001009D02*
X56666666Y-18048628D01*
X56666666Y-18048628D02*
X56285714Y-18048628D01*
X57809523Y-18524819D02*
X57238095Y-18524819D01*
X57523809Y-18524819D02*
X57523809Y-17524819D01*
X57523809Y-17524819D02*
X57428571Y-17667676D01*
X57428571Y-17667676D02*
X57333333Y-17762914D01*
X57333333Y-17762914D02*
X57238095Y-17810533D01*
X58666666Y-17524819D02*
X58476190Y-17524819D01*
X58476190Y-17524819D02*
X58380952Y-17572438D01*
X58380952Y-17572438D02*
X58333333Y-17620057D01*
X58333333Y-17620057D02*
X58238095Y-17762914D01*
X58238095Y-17762914D02*
X58190476Y-17953390D01*
X58190476Y-17953390D02*
X58190476Y-18334342D01*
X58190476Y-18334342D02*
X58238095Y-18429580D01*
X58238095Y-18429580D02*
X58285714Y-18477200D01*
X58285714Y-18477200D02*
X58380952Y-18524819D01*
X58380952Y-18524819D02*
X58571428Y-18524819D01*
X58571428Y-18524819D02*
X58666666Y-18477200D01*
X58666666Y-18477200D02*
X58714285Y-18429580D01*
X58714285Y-18429580D02*
X58761904Y-18334342D01*
X58761904Y-18334342D02*
X58761904Y-18096247D01*
X58761904Y-18096247D02*
X58714285Y-18001009D01*
X58714285Y-18001009D02*
X58666666Y-17953390D01*
X58666666Y-17953390D02*
X58571428Y-17905771D01*
X58571428Y-17905771D02*
X58380952Y-17905771D01*
X58380952Y-17905771D02*
X58285714Y-17953390D01*
X58285714Y-17953390D02*
X58238095Y-18001009D01*
X58238095Y-18001009D02*
X58190476Y-18096247D01*
X5024819Y-28642857D02*
X4548628Y-28976190D01*
X5024819Y-29214285D02*
X4024819Y-29214285D01*
X4024819Y-29214285D02*
X4024819Y-28833333D01*
X4024819Y-28833333D02*
X4072438Y-28738095D01*
X4072438Y-28738095D02*
X4120057Y-28690476D01*
X4120057Y-28690476D02*
X4215295Y-28642857D01*
X4215295Y-28642857D02*
X4358152Y-28642857D01*
X4358152Y-28642857D02*
X4453390Y-28690476D01*
X4453390Y-28690476D02*
X4501009Y-28738095D01*
X4501009Y-28738095D02*
X4548628Y-28833333D01*
X4548628Y-28833333D02*
X4548628Y-29214285D01*
X5024819Y-27690476D02*
X5024819Y-28261904D01*
X5024819Y-27976190D02*
X4024819Y-27976190D01*
X4024819Y-27976190D02*
X4167676Y-28071428D01*
X4167676Y-28071428D02*
X4262914Y-28166666D01*
X4262914Y-28166666D02*
X4310533Y-28261904D01*
X4358152Y-26833333D02*
X5024819Y-26833333D01*
X3977200Y-27071428D02*
X4691485Y-27309523D01*
X4691485Y-27309523D02*
X4691485Y-26690476D01*
X67857142Y-25429580D02*
X67809523Y-25477200D01*
X67809523Y-25477200D02*
X67666666Y-25524819D01*
X67666666Y-25524819D02*
X67571428Y-25524819D01*
X67571428Y-25524819D02*
X67428571Y-25477200D01*
X67428571Y-25477200D02*
X67333333Y-25381961D01*
X67333333Y-25381961D02*
X67285714Y-25286723D01*
X67285714Y-25286723D02*
X67238095Y-25096247D01*
X67238095Y-25096247D02*
X67238095Y-24953390D01*
X67238095Y-24953390D02*
X67285714Y-24762914D01*
X67285714Y-24762914D02*
X67333333Y-24667676D01*
X67333333Y-24667676D02*
X67428571Y-24572438D01*
X67428571Y-24572438D02*
X67571428Y-24524819D01*
X67571428Y-24524819D02*
X67666666Y-24524819D01*
X67666666Y-24524819D02*
X67809523Y-24572438D01*
X67809523Y-24572438D02*
X67857142Y-24620057D01*
X68238095Y-24620057D02*
X68285714Y-24572438D01*
X68285714Y-24572438D02*
X68380952Y-24524819D01*
X68380952Y-24524819D02*
X68619047Y-24524819D01*
X68619047Y-24524819D02*
X68714285Y-24572438D01*
X68714285Y-24572438D02*
X68761904Y-24620057D01*
X68761904Y-24620057D02*
X68809523Y-24715295D01*
X68809523Y-24715295D02*
X68809523Y-24810533D01*
X68809523Y-24810533D02*
X68761904Y-24953390D01*
X68761904Y-24953390D02*
X68190476Y-25524819D01*
X68190476Y-25524819D02*
X68809523Y-25524819D01*
X69428571Y-24524819D02*
X69523809Y-24524819D01*
X69523809Y-24524819D02*
X69619047Y-24572438D01*
X69619047Y-24572438D02*
X69666666Y-24620057D01*
X69666666Y-24620057D02*
X69714285Y-24715295D01*
X69714285Y-24715295D02*
X69761904Y-24905771D01*
X69761904Y-24905771D02*
X69761904Y-25143866D01*
X69761904Y-25143866D02*
X69714285Y-25334342D01*
X69714285Y-25334342D02*
X69666666Y-25429580D01*
X69666666Y-25429580D02*
X69619047Y-25477200D01*
X69619047Y-25477200D02*
X69523809Y-25524819D01*
X69523809Y-25524819D02*
X69428571Y-25524819D01*
X69428571Y-25524819D02*
X69333333Y-25477200D01*
X69333333Y-25477200D02*
X69285714Y-25429580D01*
X69285714Y-25429580D02*
X69238095Y-25334342D01*
X69238095Y-25334342D02*
X69190476Y-25143866D01*
X69190476Y-25143866D02*
X69190476Y-24905771D01*
X69190476Y-24905771D02*
X69238095Y-24715295D01*
X69238095Y-24715295D02*
X69285714Y-24620057D01*
X69285714Y-24620057D02*
X69333333Y-24572438D01*
X69333333Y-24572438D02*
X69428571Y-24524819D01*
X57738095Y-14054819D02*
X57738095Y-14864342D01*
X57738095Y-14864342D02*
X57785714Y-14959580D01*
X57785714Y-14959580D02*
X57833333Y-15007200D01*
X57833333Y-15007200D02*
X57928571Y-15054819D01*
X57928571Y-15054819D02*
X58119047Y-15054819D01*
X58119047Y-15054819D02*
X58214285Y-15007200D01*
X58214285Y-15007200D02*
X58261904Y-14959580D01*
X58261904Y-14959580D02*
X58309523Y-14864342D01*
X58309523Y-14864342D02*
X58309523Y-14054819D01*
X59214285Y-14388152D02*
X59214285Y-15054819D01*
X58976190Y-14007200D02*
X58738095Y-14721485D01*
X58738095Y-14721485D02*
X59357142Y-14721485D01*
X43833333Y-36024819D02*
X43500000Y-35548628D01*
X43261905Y-36024819D02*
X43261905Y-35024819D01*
X43261905Y-35024819D02*
X43642857Y-35024819D01*
X43642857Y-35024819D02*
X43738095Y-35072438D01*
X43738095Y-35072438D02*
X43785714Y-35120057D01*
X43785714Y-35120057D02*
X43833333Y-35215295D01*
X43833333Y-35215295D02*
X43833333Y-35358152D01*
X43833333Y-35358152D02*
X43785714Y-35453390D01*
X43785714Y-35453390D02*
X43738095Y-35501009D01*
X43738095Y-35501009D02*
X43642857Y-35548628D01*
X43642857Y-35548628D02*
X43261905Y-35548628D01*
X44404762Y-35453390D02*
X44309524Y-35405771D01*
X44309524Y-35405771D02*
X44261905Y-35358152D01*
X44261905Y-35358152D02*
X44214286Y-35262914D01*
X44214286Y-35262914D02*
X44214286Y-35215295D01*
X44214286Y-35215295D02*
X44261905Y-35120057D01*
X44261905Y-35120057D02*
X44309524Y-35072438D01*
X44309524Y-35072438D02*
X44404762Y-35024819D01*
X44404762Y-35024819D02*
X44595238Y-35024819D01*
X44595238Y-35024819D02*
X44690476Y-35072438D01*
X44690476Y-35072438D02*
X44738095Y-35120057D01*
X44738095Y-35120057D02*
X44785714Y-35215295D01*
X44785714Y-35215295D02*
X44785714Y-35262914D01*
X44785714Y-35262914D02*
X44738095Y-35358152D01*
X44738095Y-35358152D02*
X44690476Y-35405771D01*
X44690476Y-35405771D02*
X44595238Y-35453390D01*
X44595238Y-35453390D02*
X44404762Y-35453390D01*
X44404762Y-35453390D02*
X44309524Y-35501009D01*
X44309524Y-35501009D02*
X44261905Y-35548628D01*
X44261905Y-35548628D02*
X44214286Y-35643866D01*
X44214286Y-35643866D02*
X44214286Y-35834342D01*
X44214286Y-35834342D02*
X44261905Y-35929580D01*
X44261905Y-35929580D02*
X44309524Y-35977200D01*
X44309524Y-35977200D02*
X44404762Y-36024819D01*
X44404762Y-36024819D02*
X44595238Y-36024819D01*
X44595238Y-36024819D02*
X44690476Y-35977200D01*
X44690476Y-35977200D02*
X44738095Y-35929580D01*
X44738095Y-35929580D02*
X44785714Y-35834342D01*
X44785714Y-35834342D02*
X44785714Y-35643866D01*
X44785714Y-35643866D02*
X44738095Y-35548628D01*
X44738095Y-35548628D02*
X44690476Y-35501009D01*
X44690476Y-35501009D02*
X44595238Y-35453390D01*
X62333333Y-19179580D02*
X62285714Y-19227200D01*
X62285714Y-19227200D02*
X62142857Y-19274819D01*
X62142857Y-19274819D02*
X62047619Y-19274819D01*
X62047619Y-19274819D02*
X61904762Y-19227200D01*
X61904762Y-19227200D02*
X61809524Y-19131961D01*
X61809524Y-19131961D02*
X61761905Y-19036723D01*
X61761905Y-19036723D02*
X61714286Y-18846247D01*
X61714286Y-18846247D02*
X61714286Y-18703390D01*
X61714286Y-18703390D02*
X61761905Y-18512914D01*
X61761905Y-18512914D02*
X61809524Y-18417676D01*
X61809524Y-18417676D02*
X61904762Y-18322438D01*
X61904762Y-18322438D02*
X62047619Y-18274819D01*
X62047619Y-18274819D02*
X62142857Y-18274819D01*
X62142857Y-18274819D02*
X62285714Y-18322438D01*
X62285714Y-18322438D02*
X62333333Y-18370057D01*
X62714286Y-18370057D02*
X62761905Y-18322438D01*
X62761905Y-18322438D02*
X62857143Y-18274819D01*
X62857143Y-18274819D02*
X63095238Y-18274819D01*
X63095238Y-18274819D02*
X63190476Y-18322438D01*
X63190476Y-18322438D02*
X63238095Y-18370057D01*
X63238095Y-18370057D02*
X63285714Y-18465295D01*
X63285714Y-18465295D02*
X63285714Y-18560533D01*
X63285714Y-18560533D02*
X63238095Y-18703390D01*
X63238095Y-18703390D02*
X62666667Y-19274819D01*
X62666667Y-19274819D02*
X63285714Y-19274819D01*
X52857142Y-19024819D02*
X52523809Y-18548628D01*
X52285714Y-19024819D02*
X52285714Y-18024819D01*
X52285714Y-18024819D02*
X52666666Y-18024819D01*
X52666666Y-18024819D02*
X52761904Y-18072438D01*
X52761904Y-18072438D02*
X52809523Y-18120057D01*
X52809523Y-18120057D02*
X52857142Y-18215295D01*
X52857142Y-18215295D02*
X52857142Y-18358152D01*
X52857142Y-18358152D02*
X52809523Y-18453390D01*
X52809523Y-18453390D02*
X52761904Y-18501009D01*
X52761904Y-18501009D02*
X52666666Y-18548628D01*
X52666666Y-18548628D02*
X52285714Y-18548628D01*
X53809523Y-19024819D02*
X53238095Y-19024819D01*
X53523809Y-19024819D02*
X53523809Y-18024819D01*
X53523809Y-18024819D02*
X53428571Y-18167676D01*
X53428571Y-18167676D02*
X53333333Y-18262914D01*
X53333333Y-18262914D02*
X53238095Y-18310533D01*
X54761904Y-19024819D02*
X54190476Y-19024819D01*
X54476190Y-19024819D02*
X54476190Y-18024819D01*
X54476190Y-18024819D02*
X54380952Y-18167676D01*
X54380952Y-18167676D02*
X54285714Y-18262914D01*
X54285714Y-18262914D02*
X54190476Y-18310533D01*
X71857142Y-48929580D02*
X71809523Y-48977200D01*
X71809523Y-48977200D02*
X71666666Y-49024819D01*
X71666666Y-49024819D02*
X71571428Y-49024819D01*
X71571428Y-49024819D02*
X71428571Y-48977200D01*
X71428571Y-48977200D02*
X71333333Y-48881961D01*
X71333333Y-48881961D02*
X71285714Y-48786723D01*
X71285714Y-48786723D02*
X71238095Y-48596247D01*
X71238095Y-48596247D02*
X71238095Y-48453390D01*
X71238095Y-48453390D02*
X71285714Y-48262914D01*
X71285714Y-48262914D02*
X71333333Y-48167676D01*
X71333333Y-48167676D02*
X71428571Y-48072438D01*
X71428571Y-48072438D02*
X71571428Y-48024819D01*
X71571428Y-48024819D02*
X71666666Y-48024819D01*
X71666666Y-48024819D02*
X71809523Y-48072438D01*
X71809523Y-48072438D02*
X71857142Y-48120057D01*
X72809523Y-49024819D02*
X72238095Y-49024819D01*
X72523809Y-49024819D02*
X72523809Y-48024819D01*
X72523809Y-48024819D02*
X72428571Y-48167676D01*
X72428571Y-48167676D02*
X72333333Y-48262914D01*
X72333333Y-48262914D02*
X72238095Y-48310533D01*
X73714285Y-48024819D02*
X73238095Y-48024819D01*
X73238095Y-48024819D02*
X73190476Y-48501009D01*
X73190476Y-48501009D02*
X73238095Y-48453390D01*
X73238095Y-48453390D02*
X73333333Y-48405771D01*
X73333333Y-48405771D02*
X73571428Y-48405771D01*
X73571428Y-48405771D02*
X73666666Y-48453390D01*
X73666666Y-48453390D02*
X73714285Y-48501009D01*
X73714285Y-48501009D02*
X73761904Y-48596247D01*
X73761904Y-48596247D02*
X73761904Y-48834342D01*
X73761904Y-48834342D02*
X73714285Y-48929580D01*
X73714285Y-48929580D02*
X73666666Y-48977200D01*
X73666666Y-48977200D02*
X73571428Y-49024819D01*
X73571428Y-49024819D02*
X73333333Y-49024819D01*
X73333333Y-49024819D02*
X73238095Y-48977200D01*
X73238095Y-48977200D02*
X73190476Y-48929580D01*
X46833333Y-18824819D02*
X46500000Y-18348628D01*
X46261905Y-18824819D02*
X46261905Y-17824819D01*
X46261905Y-17824819D02*
X46642857Y-17824819D01*
X46642857Y-17824819D02*
X46738095Y-17872438D01*
X46738095Y-17872438D02*
X46785714Y-17920057D01*
X46785714Y-17920057D02*
X46833333Y-18015295D01*
X46833333Y-18015295D02*
X46833333Y-18158152D01*
X46833333Y-18158152D02*
X46785714Y-18253390D01*
X46785714Y-18253390D02*
X46738095Y-18301009D01*
X46738095Y-18301009D02*
X46642857Y-18348628D01*
X46642857Y-18348628D02*
X46261905Y-18348628D01*
X47785714Y-18824819D02*
X47214286Y-18824819D01*
X47500000Y-18824819D02*
X47500000Y-17824819D01*
X47500000Y-17824819D02*
X47404762Y-17967676D01*
X47404762Y-17967676D02*
X47309524Y-18062914D01*
X47309524Y-18062914D02*
X47214286Y-18110533D01*
X39833333Y-36024819D02*
X39500000Y-35548628D01*
X39261905Y-36024819D02*
X39261905Y-35024819D01*
X39261905Y-35024819D02*
X39642857Y-35024819D01*
X39642857Y-35024819D02*
X39738095Y-35072438D01*
X39738095Y-35072438D02*
X39785714Y-35120057D01*
X39785714Y-35120057D02*
X39833333Y-35215295D01*
X39833333Y-35215295D02*
X39833333Y-35358152D01*
X39833333Y-35358152D02*
X39785714Y-35453390D01*
X39785714Y-35453390D02*
X39738095Y-35501009D01*
X39738095Y-35501009D02*
X39642857Y-35548628D01*
X39642857Y-35548628D02*
X39261905Y-35548628D01*
X40166667Y-35024819D02*
X40833333Y-35024819D01*
X40833333Y-35024819D02*
X40404762Y-36024819D01*
X69238095Y-40754819D02*
X69238095Y-39754819D01*
X69238095Y-40231009D02*
X69809523Y-40231009D01*
X69809523Y-40754819D02*
X69809523Y-39754819D01*
X70714285Y-40088152D02*
X70714285Y-40754819D01*
X70476190Y-39707200D02*
X70238095Y-40421485D01*
X70238095Y-40421485D02*
X70857142Y-40421485D01*
X61833333Y-12024819D02*
X61500000Y-11548628D01*
X61261905Y-12024819D02*
X61261905Y-11024819D01*
X61261905Y-11024819D02*
X61642857Y-11024819D01*
X61642857Y-11024819D02*
X61738095Y-11072438D01*
X61738095Y-11072438D02*
X61785714Y-11120057D01*
X61785714Y-11120057D02*
X61833333Y-11215295D01*
X61833333Y-11215295D02*
X61833333Y-11358152D01*
X61833333Y-11358152D02*
X61785714Y-11453390D01*
X61785714Y-11453390D02*
X61738095Y-11501009D01*
X61738095Y-11501009D02*
X61642857Y-11548628D01*
X61642857Y-11548628D02*
X61261905Y-11548628D01*
X62214286Y-11120057D02*
X62261905Y-11072438D01*
X62261905Y-11072438D02*
X62357143Y-11024819D01*
X62357143Y-11024819D02*
X62595238Y-11024819D01*
X62595238Y-11024819D02*
X62690476Y-11072438D01*
X62690476Y-11072438D02*
X62738095Y-11120057D01*
X62738095Y-11120057D02*
X62785714Y-11215295D01*
X62785714Y-11215295D02*
X62785714Y-11310533D01*
X62785714Y-11310533D02*
X62738095Y-11453390D01*
X62738095Y-11453390D02*
X62166667Y-12024819D01*
X62166667Y-12024819D02*
X62785714Y-12024819D01*
X28333333Y-18679580D02*
X28285714Y-18727200D01*
X28285714Y-18727200D02*
X28142857Y-18774819D01*
X28142857Y-18774819D02*
X28047619Y-18774819D01*
X28047619Y-18774819D02*
X27904762Y-18727200D01*
X27904762Y-18727200D02*
X27809524Y-18631961D01*
X27809524Y-18631961D02*
X27761905Y-18536723D01*
X27761905Y-18536723D02*
X27714286Y-18346247D01*
X27714286Y-18346247D02*
X27714286Y-18203390D01*
X27714286Y-18203390D02*
X27761905Y-18012914D01*
X27761905Y-18012914D02*
X27809524Y-17917676D01*
X27809524Y-17917676D02*
X27904762Y-17822438D01*
X27904762Y-17822438D02*
X28047619Y-17774819D01*
X28047619Y-17774819D02*
X28142857Y-17774819D01*
X28142857Y-17774819D02*
X28285714Y-17822438D01*
X28285714Y-17822438D02*
X28333333Y-17870057D01*
X29190476Y-18108152D02*
X29190476Y-18774819D01*
X28952381Y-17727200D02*
X28714286Y-18441485D01*
X28714286Y-18441485D02*
X29333333Y-18441485D01*
X47357142Y-36024819D02*
X47023809Y-35548628D01*
X46785714Y-36024819D02*
X46785714Y-35024819D01*
X46785714Y-35024819D02*
X47166666Y-35024819D01*
X47166666Y-35024819D02*
X47261904Y-35072438D01*
X47261904Y-35072438D02*
X47309523Y-35120057D01*
X47309523Y-35120057D02*
X47357142Y-35215295D01*
X47357142Y-35215295D02*
X47357142Y-35358152D01*
X47357142Y-35358152D02*
X47309523Y-35453390D01*
X47309523Y-35453390D02*
X47261904Y-35501009D01*
X47261904Y-35501009D02*
X47166666Y-35548628D01*
X47166666Y-35548628D02*
X46785714Y-35548628D01*
X48309523Y-36024819D02*
X47738095Y-36024819D01*
X48023809Y-36024819D02*
X48023809Y-35024819D01*
X48023809Y-35024819D02*
X47928571Y-35167676D01*
X47928571Y-35167676D02*
X47833333Y-35262914D01*
X47833333Y-35262914D02*
X47738095Y-35310533D01*
X48690476Y-35120057D02*
X48738095Y-35072438D01*
X48738095Y-35072438D02*
X48833333Y-35024819D01*
X48833333Y-35024819D02*
X49071428Y-35024819D01*
X49071428Y-35024819D02*
X49166666Y-35072438D01*
X49166666Y-35072438D02*
X49214285Y-35120057D01*
X49214285Y-35120057D02*
X49261904Y-35215295D01*
X49261904Y-35215295D02*
X49261904Y-35310533D01*
X49261904Y-35310533D02*
X49214285Y-35453390D01*
X49214285Y-35453390D02*
X48642857Y-36024819D01*
X48642857Y-36024819D02*
X49261904Y-36024819D01*
X49357142Y-19024819D02*
X49023809Y-18548628D01*
X48785714Y-19024819D02*
X48785714Y-18024819D01*
X48785714Y-18024819D02*
X49166666Y-18024819D01*
X49166666Y-18024819D02*
X49261904Y-18072438D01*
X49261904Y-18072438D02*
X49309523Y-18120057D01*
X49309523Y-18120057D02*
X49357142Y-18215295D01*
X49357142Y-18215295D02*
X49357142Y-18358152D01*
X49357142Y-18358152D02*
X49309523Y-18453390D01*
X49309523Y-18453390D02*
X49261904Y-18501009D01*
X49261904Y-18501009D02*
X49166666Y-18548628D01*
X49166666Y-18548628D02*
X48785714Y-18548628D01*
X50309523Y-19024819D02*
X49738095Y-19024819D01*
X50023809Y-19024819D02*
X50023809Y-18024819D01*
X50023809Y-18024819D02*
X49928571Y-18167676D01*
X49928571Y-18167676D02*
X49833333Y-18262914D01*
X49833333Y-18262914D02*
X49738095Y-18310533D01*
X50928571Y-18024819D02*
X51023809Y-18024819D01*
X51023809Y-18024819D02*
X51119047Y-18072438D01*
X51119047Y-18072438D02*
X51166666Y-18120057D01*
X51166666Y-18120057D02*
X51214285Y-18215295D01*
X51214285Y-18215295D02*
X51261904Y-18405771D01*
X51261904Y-18405771D02*
X51261904Y-18643866D01*
X51261904Y-18643866D02*
X51214285Y-18834342D01*
X51214285Y-18834342D02*
X51166666Y-18929580D01*
X51166666Y-18929580D02*
X51119047Y-18977200D01*
X51119047Y-18977200D02*
X51023809Y-19024819D01*
X51023809Y-19024819D02*
X50928571Y-19024819D01*
X50928571Y-19024819D02*
X50833333Y-18977200D01*
X50833333Y-18977200D02*
X50785714Y-18929580D01*
X50785714Y-18929580D02*
X50738095Y-18834342D01*
X50738095Y-18834342D02*
X50690476Y-18643866D01*
X50690476Y-18643866D02*
X50690476Y-18405771D01*
X50690476Y-18405771D02*
X50738095Y-18215295D01*
X50738095Y-18215295D02*
X50785714Y-18120057D01*
X50785714Y-18120057D02*
X50833333Y-18072438D01*
X50833333Y-18072438D02*
X50928571Y-18024819D01*
X17657142Y-38429580D02*
X17609523Y-38477200D01*
X17609523Y-38477200D02*
X17466666Y-38524819D01*
X17466666Y-38524819D02*
X17371428Y-38524819D01*
X17371428Y-38524819D02*
X17228571Y-38477200D01*
X17228571Y-38477200D02*
X17133333Y-38381961D01*
X17133333Y-38381961D02*
X17085714Y-38286723D01*
X17085714Y-38286723D02*
X17038095Y-38096247D01*
X17038095Y-38096247D02*
X17038095Y-37953390D01*
X17038095Y-37953390D02*
X17085714Y-37762914D01*
X17085714Y-37762914D02*
X17133333Y-37667676D01*
X17133333Y-37667676D02*
X17228571Y-37572438D01*
X17228571Y-37572438D02*
X17371428Y-37524819D01*
X17371428Y-37524819D02*
X17466666Y-37524819D01*
X17466666Y-37524819D02*
X17609523Y-37572438D01*
X17609523Y-37572438D02*
X17657142Y-37620057D01*
X18609523Y-38524819D02*
X18038095Y-38524819D01*
X18323809Y-38524819D02*
X18323809Y-37524819D01*
X18323809Y-37524819D02*
X18228571Y-37667676D01*
X18228571Y-37667676D02*
X18133333Y-37762914D01*
X18133333Y-37762914D02*
X18038095Y-37810533D01*
X18942857Y-37524819D02*
X19561904Y-37524819D01*
X19561904Y-37524819D02*
X19228571Y-37905771D01*
X19228571Y-37905771D02*
X19371428Y-37905771D01*
X19371428Y-37905771D02*
X19466666Y-37953390D01*
X19466666Y-37953390D02*
X19514285Y-38001009D01*
X19514285Y-38001009D02*
X19561904Y-38096247D01*
X19561904Y-38096247D02*
X19561904Y-38334342D01*
X19561904Y-38334342D02*
X19514285Y-38429580D01*
X19514285Y-38429580D02*
X19466666Y-38477200D01*
X19466666Y-38477200D02*
X19371428Y-38524819D01*
X19371428Y-38524819D02*
X19085714Y-38524819D01*
X19085714Y-38524819D02*
X18990476Y-38477200D01*
X18990476Y-38477200D02*
X18942857Y-38429580D01*
X23833333Y-35679580D02*
X23785714Y-35727200D01*
X23785714Y-35727200D02*
X23642857Y-35774819D01*
X23642857Y-35774819D02*
X23547619Y-35774819D01*
X23547619Y-35774819D02*
X23404762Y-35727200D01*
X23404762Y-35727200D02*
X23309524Y-35631961D01*
X23309524Y-35631961D02*
X23261905Y-35536723D01*
X23261905Y-35536723D02*
X23214286Y-35346247D01*
X23214286Y-35346247D02*
X23214286Y-35203390D01*
X23214286Y-35203390D02*
X23261905Y-35012914D01*
X23261905Y-35012914D02*
X23309524Y-34917676D01*
X23309524Y-34917676D02*
X23404762Y-34822438D01*
X23404762Y-34822438D02*
X23547619Y-34774819D01*
X23547619Y-34774819D02*
X23642857Y-34774819D01*
X23642857Y-34774819D02*
X23785714Y-34822438D01*
X23785714Y-34822438D02*
X23833333Y-34870057D01*
X24738095Y-34774819D02*
X24261905Y-34774819D01*
X24261905Y-34774819D02*
X24214286Y-35251009D01*
X24214286Y-35251009D02*
X24261905Y-35203390D01*
X24261905Y-35203390D02*
X24357143Y-35155771D01*
X24357143Y-35155771D02*
X24595238Y-35155771D01*
X24595238Y-35155771D02*
X24690476Y-35203390D01*
X24690476Y-35203390D02*
X24738095Y-35251009D01*
X24738095Y-35251009D02*
X24785714Y-35346247D01*
X24785714Y-35346247D02*
X24785714Y-35584342D01*
X24785714Y-35584342D02*
X24738095Y-35679580D01*
X24738095Y-35679580D02*
X24690476Y-35727200D01*
X24690476Y-35727200D02*
X24595238Y-35774819D01*
X24595238Y-35774819D02*
X24357143Y-35774819D01*
X24357143Y-35774819D02*
X24261905Y-35727200D01*
X24261905Y-35727200D02*
X24214286Y-35679580D01*
X53357142Y-17024819D02*
X53023809Y-16548628D01*
X52785714Y-17024819D02*
X52785714Y-16024819D01*
X52785714Y-16024819D02*
X53166666Y-16024819D01*
X53166666Y-16024819D02*
X53261904Y-16072438D01*
X53261904Y-16072438D02*
X53309523Y-16120057D01*
X53309523Y-16120057D02*
X53357142Y-16215295D01*
X53357142Y-16215295D02*
X53357142Y-16358152D01*
X53357142Y-16358152D02*
X53309523Y-16453390D01*
X53309523Y-16453390D02*
X53261904Y-16501009D01*
X53261904Y-16501009D02*
X53166666Y-16548628D01*
X53166666Y-16548628D02*
X52785714Y-16548628D01*
X54309523Y-17024819D02*
X53738095Y-17024819D01*
X54023809Y-17024819D02*
X54023809Y-16024819D01*
X54023809Y-16024819D02*
X53928571Y-16167676D01*
X53928571Y-16167676D02*
X53833333Y-16262914D01*
X53833333Y-16262914D02*
X53738095Y-16310533D01*
X55214285Y-16024819D02*
X54738095Y-16024819D01*
X54738095Y-16024819D02*
X54690476Y-16501009D01*
X54690476Y-16501009D02*
X54738095Y-16453390D01*
X54738095Y-16453390D02*
X54833333Y-16405771D01*
X54833333Y-16405771D02*
X55071428Y-16405771D01*
X55071428Y-16405771D02*
X55166666Y-16453390D01*
X55166666Y-16453390D02*
X55214285Y-16501009D01*
X55214285Y-16501009D02*
X55261904Y-16596247D01*
X55261904Y-16596247D02*
X55261904Y-16834342D01*
X55261904Y-16834342D02*
X55214285Y-16929580D01*
X55214285Y-16929580D02*
X55166666Y-16977200D01*
X55166666Y-16977200D02*
X55071428Y-17024819D01*
X55071428Y-17024819D02*
X54833333Y-17024819D01*
X54833333Y-17024819D02*
X54738095Y-16977200D01*
X54738095Y-16977200D02*
X54690476Y-16929580D01*
X5166667Y-42657200D02*
X5309524Y-42704819D01*
X5309524Y-42704819D02*
X5547619Y-42704819D01*
X5547619Y-42704819D02*
X5642857Y-42657200D01*
X5642857Y-42657200D02*
X5690476Y-42609580D01*
X5690476Y-42609580D02*
X5738095Y-42514342D01*
X5738095Y-42514342D02*
X5738095Y-42419104D01*
X5738095Y-42419104D02*
X5690476Y-42323866D01*
X5690476Y-42323866D02*
X5642857Y-42276247D01*
X5642857Y-42276247D02*
X5547619Y-42228628D01*
X5547619Y-42228628D02*
X5357143Y-42181009D01*
X5357143Y-42181009D02*
X5261905Y-42133390D01*
X5261905Y-42133390D02*
X5214286Y-42085771D01*
X5214286Y-42085771D02*
X5166667Y-41990533D01*
X5166667Y-41990533D02*
X5166667Y-41895295D01*
X5166667Y-41895295D02*
X5214286Y-41800057D01*
X5214286Y-41800057D02*
X5261905Y-41752438D01*
X5261905Y-41752438D02*
X5357143Y-41704819D01*
X5357143Y-41704819D02*
X5595238Y-41704819D01*
X5595238Y-41704819D02*
X5738095Y-41752438D01*
X6071429Y-41704819D02*
X6309524Y-42704819D01*
X6309524Y-42704819D02*
X6500000Y-41990533D01*
X6500000Y-41990533D02*
X6690476Y-42704819D01*
X6690476Y-42704819D02*
X6928572Y-41704819D01*
X7833333Y-42704819D02*
X7261905Y-42704819D01*
X7547619Y-42704819D02*
X7547619Y-41704819D01*
X7547619Y-41704819D02*
X7452381Y-41847676D01*
X7452381Y-41847676D02*
X7357143Y-41942914D01*
X7357143Y-41942914D02*
X7261905Y-41990533D01*
X7357142Y-49179580D02*
X7309523Y-49227200D01*
X7309523Y-49227200D02*
X7166666Y-49274819D01*
X7166666Y-49274819D02*
X7071428Y-49274819D01*
X7071428Y-49274819D02*
X6928571Y-49227200D01*
X6928571Y-49227200D02*
X6833333Y-49131961D01*
X6833333Y-49131961D02*
X6785714Y-49036723D01*
X6785714Y-49036723D02*
X6738095Y-48846247D01*
X6738095Y-48846247D02*
X6738095Y-48703390D01*
X6738095Y-48703390D02*
X6785714Y-48512914D01*
X6785714Y-48512914D02*
X6833333Y-48417676D01*
X6833333Y-48417676D02*
X6928571Y-48322438D01*
X6928571Y-48322438D02*
X7071428Y-48274819D01*
X7071428Y-48274819D02*
X7166666Y-48274819D01*
X7166666Y-48274819D02*
X7309523Y-48322438D01*
X7309523Y-48322438D02*
X7357142Y-48370057D01*
X8309523Y-49274819D02*
X7738095Y-49274819D01*
X8023809Y-49274819D02*
X8023809Y-48274819D01*
X8023809Y-48274819D02*
X7928571Y-48417676D01*
X7928571Y-48417676D02*
X7833333Y-48512914D01*
X7833333Y-48512914D02*
X7738095Y-48560533D01*
X8642857Y-48274819D02*
X9309523Y-48274819D01*
X9309523Y-48274819D02*
X8880952Y-49274819D01*
X34094819Y-44133333D02*
X34809104Y-44133333D01*
X34809104Y-44133333D02*
X34951961Y-44180952D01*
X34951961Y-44180952D02*
X35047200Y-44276190D01*
X35047200Y-44276190D02*
X35094819Y-44419047D01*
X35094819Y-44419047D02*
X35094819Y-44514285D01*
X35094819Y-43133333D02*
X35094819Y-43704761D01*
X35094819Y-43419047D02*
X34094819Y-43419047D01*
X34094819Y-43419047D02*
X34237676Y-43514285D01*
X34237676Y-43514285D02*
X34332914Y-43609523D01*
X34332914Y-43609523D02*
X34380533Y-43704761D01*
X68904819Y-33809523D02*
X69904819Y-33142857D01*
X68904819Y-33142857D02*
X69904819Y-33809523D01*
X69904819Y-32238095D02*
X69904819Y-32809523D01*
X69904819Y-32523809D02*
X68904819Y-32523809D01*
X68904819Y-32523809D02*
X69047676Y-32619047D01*
X69047676Y-32619047D02*
X69142914Y-32714285D01*
X69142914Y-32714285D02*
X69190533Y-32809523D01*
X15357142Y-40429580D02*
X15309523Y-40477200D01*
X15309523Y-40477200D02*
X15166666Y-40524819D01*
X15166666Y-40524819D02*
X15071428Y-40524819D01*
X15071428Y-40524819D02*
X14928571Y-40477200D01*
X14928571Y-40477200D02*
X14833333Y-40381961D01*
X14833333Y-40381961D02*
X14785714Y-40286723D01*
X14785714Y-40286723D02*
X14738095Y-40096247D01*
X14738095Y-40096247D02*
X14738095Y-39953390D01*
X14738095Y-39953390D02*
X14785714Y-39762914D01*
X14785714Y-39762914D02*
X14833333Y-39667676D01*
X14833333Y-39667676D02*
X14928571Y-39572438D01*
X14928571Y-39572438D02*
X15071428Y-39524819D01*
X15071428Y-39524819D02*
X15166666Y-39524819D01*
X15166666Y-39524819D02*
X15309523Y-39572438D01*
X15309523Y-39572438D02*
X15357142Y-39620057D01*
X16309523Y-40524819D02*
X15738095Y-40524819D01*
X16023809Y-40524819D02*
X16023809Y-39524819D01*
X16023809Y-39524819D02*
X15928571Y-39667676D01*
X15928571Y-39667676D02*
X15833333Y-39762914D01*
X15833333Y-39762914D02*
X15738095Y-39810533D01*
X16785714Y-40524819D02*
X16976190Y-40524819D01*
X16976190Y-40524819D02*
X17071428Y-40477200D01*
X17071428Y-40477200D02*
X17119047Y-40429580D01*
X17119047Y-40429580D02*
X17214285Y-40286723D01*
X17214285Y-40286723D02*
X17261904Y-40096247D01*
X17261904Y-40096247D02*
X17261904Y-39715295D01*
X17261904Y-39715295D02*
X17214285Y-39620057D01*
X17214285Y-39620057D02*
X17166666Y-39572438D01*
X17166666Y-39572438D02*
X17071428Y-39524819D01*
X17071428Y-39524819D02*
X16880952Y-39524819D01*
X16880952Y-39524819D02*
X16785714Y-39572438D01*
X16785714Y-39572438D02*
X16738095Y-39620057D01*
X16738095Y-39620057D02*
X16690476Y-39715295D01*
X16690476Y-39715295D02*
X16690476Y-39953390D01*
X16690476Y-39953390D02*
X16738095Y-40048628D01*
X16738095Y-40048628D02*
X16785714Y-40096247D01*
X16785714Y-40096247D02*
X16880952Y-40143866D01*
X16880952Y-40143866D02*
X17071428Y-40143866D01*
X17071428Y-40143866D02*
X17166666Y-40096247D01*
X17166666Y-40096247D02*
X17214285Y-40048628D01*
X17214285Y-40048628D02*
X17261904Y-39953390D01*
X42833333Y-16679580D02*
X42785714Y-16727200D01*
X42785714Y-16727200D02*
X42642857Y-16774819D01*
X42642857Y-16774819D02*
X42547619Y-16774819D01*
X42547619Y-16774819D02*
X42404762Y-16727200D01*
X42404762Y-16727200D02*
X42309524Y-16631961D01*
X42309524Y-16631961D02*
X42261905Y-16536723D01*
X42261905Y-16536723D02*
X42214286Y-16346247D01*
X42214286Y-16346247D02*
X42214286Y-16203390D01*
X42214286Y-16203390D02*
X42261905Y-16012914D01*
X42261905Y-16012914D02*
X42309524Y-15917676D01*
X42309524Y-15917676D02*
X42404762Y-15822438D01*
X42404762Y-15822438D02*
X42547619Y-15774819D01*
X42547619Y-15774819D02*
X42642857Y-15774819D01*
X42642857Y-15774819D02*
X42785714Y-15822438D01*
X42785714Y-15822438D02*
X42833333Y-15870057D01*
X43785714Y-16774819D02*
X43214286Y-16774819D01*
X43500000Y-16774819D02*
X43500000Y-15774819D01*
X43500000Y-15774819D02*
X43404762Y-15917676D01*
X43404762Y-15917676D02*
X43309524Y-16012914D01*
X43309524Y-16012914D02*
X43214286Y-16060533D01*
X4954819Y-24561904D02*
X5764342Y-24561904D01*
X5764342Y-24561904D02*
X5859580Y-24514285D01*
X5859580Y-24514285D02*
X5907200Y-24466666D01*
X5907200Y-24466666D02*
X5954819Y-24371428D01*
X5954819Y-24371428D02*
X5954819Y-24180952D01*
X5954819Y-24180952D02*
X5907200Y-24085714D01*
X5907200Y-24085714D02*
X5859580Y-24038095D01*
X5859580Y-24038095D02*
X5764342Y-23990476D01*
X5764342Y-23990476D02*
X4954819Y-23990476D01*
X5954819Y-22990476D02*
X5954819Y-23561904D01*
X5954819Y-23276190D02*
X4954819Y-23276190D01*
X4954819Y-23276190D02*
X5097676Y-23371428D01*
X5097676Y-23371428D02*
X5192914Y-23466666D01*
X5192914Y-23466666D02*
X5240533Y-23561904D01*
X66857142Y-50929580D02*
X66809523Y-50977200D01*
X66809523Y-50977200D02*
X66666666Y-51024819D01*
X66666666Y-51024819D02*
X66571428Y-51024819D01*
X66571428Y-51024819D02*
X66428571Y-50977200D01*
X66428571Y-50977200D02*
X66333333Y-50881961D01*
X66333333Y-50881961D02*
X66285714Y-50786723D01*
X66285714Y-50786723D02*
X66238095Y-50596247D01*
X66238095Y-50596247D02*
X66238095Y-50453390D01*
X66238095Y-50453390D02*
X66285714Y-50262914D01*
X66285714Y-50262914D02*
X66333333Y-50167676D01*
X66333333Y-50167676D02*
X66428571Y-50072438D01*
X66428571Y-50072438D02*
X66571428Y-50024819D01*
X66571428Y-50024819D02*
X66666666Y-50024819D01*
X66666666Y-50024819D02*
X66809523Y-50072438D01*
X66809523Y-50072438D02*
X66857142Y-50120057D01*
X67809523Y-51024819D02*
X67238095Y-51024819D01*
X67523809Y-51024819D02*
X67523809Y-50024819D01*
X67523809Y-50024819D02*
X67428571Y-50167676D01*
X67428571Y-50167676D02*
X67333333Y-50262914D01*
X67333333Y-50262914D02*
X67238095Y-50310533D01*
X68666666Y-50024819D02*
X68476190Y-50024819D01*
X68476190Y-50024819D02*
X68380952Y-50072438D01*
X68380952Y-50072438D02*
X68333333Y-50120057D01*
X68333333Y-50120057D02*
X68238095Y-50262914D01*
X68238095Y-50262914D02*
X68190476Y-50453390D01*
X68190476Y-50453390D02*
X68190476Y-50834342D01*
X68190476Y-50834342D02*
X68238095Y-50929580D01*
X68238095Y-50929580D02*
X68285714Y-50977200D01*
X68285714Y-50977200D02*
X68380952Y-51024819D01*
X68380952Y-51024819D02*
X68571428Y-51024819D01*
X68571428Y-51024819D02*
X68666666Y-50977200D01*
X68666666Y-50977200D02*
X68714285Y-50929580D01*
X68714285Y-50929580D02*
X68761904Y-50834342D01*
X68761904Y-50834342D02*
X68761904Y-50596247D01*
X68761904Y-50596247D02*
X68714285Y-50501009D01*
X68714285Y-50501009D02*
X68666666Y-50453390D01*
X68666666Y-50453390D02*
X68571428Y-50405771D01*
X68571428Y-50405771D02*
X68380952Y-50405771D01*
X68380952Y-50405771D02*
X68285714Y-50453390D01*
X68285714Y-50453390D02*
X68238095Y-50501009D01*
X68238095Y-50501009D02*
X68190476Y-50596247D01*
X10857142Y-49179580D02*
X10809523Y-49227200D01*
X10809523Y-49227200D02*
X10666666Y-49274819D01*
X10666666Y-49274819D02*
X10571428Y-49274819D01*
X10571428Y-49274819D02*
X10428571Y-49227200D01*
X10428571Y-49227200D02*
X10333333Y-49131961D01*
X10333333Y-49131961D02*
X10285714Y-49036723D01*
X10285714Y-49036723D02*
X10238095Y-48846247D01*
X10238095Y-48846247D02*
X10238095Y-48703390D01*
X10238095Y-48703390D02*
X10285714Y-48512914D01*
X10285714Y-48512914D02*
X10333333Y-48417676D01*
X10333333Y-48417676D02*
X10428571Y-48322438D01*
X10428571Y-48322438D02*
X10571428Y-48274819D01*
X10571428Y-48274819D02*
X10666666Y-48274819D01*
X10666666Y-48274819D02*
X10809523Y-48322438D01*
X10809523Y-48322438D02*
X10857142Y-48370057D01*
X11809523Y-49274819D02*
X11238095Y-49274819D01*
X11523809Y-49274819D02*
X11523809Y-48274819D01*
X11523809Y-48274819D02*
X11428571Y-48417676D01*
X11428571Y-48417676D02*
X11333333Y-48512914D01*
X11333333Y-48512914D02*
X11238095Y-48560533D01*
X12380952Y-48703390D02*
X12285714Y-48655771D01*
X12285714Y-48655771D02*
X12238095Y-48608152D01*
X12238095Y-48608152D02*
X12190476Y-48512914D01*
X12190476Y-48512914D02*
X12190476Y-48465295D01*
X12190476Y-48465295D02*
X12238095Y-48370057D01*
X12238095Y-48370057D02*
X12285714Y-48322438D01*
X12285714Y-48322438D02*
X12380952Y-48274819D01*
X12380952Y-48274819D02*
X12571428Y-48274819D01*
X12571428Y-48274819D02*
X12666666Y-48322438D01*
X12666666Y-48322438D02*
X12714285Y-48370057D01*
X12714285Y-48370057D02*
X12761904Y-48465295D01*
X12761904Y-48465295D02*
X12761904Y-48512914D01*
X12761904Y-48512914D02*
X12714285Y-48608152D01*
X12714285Y-48608152D02*
X12666666Y-48655771D01*
X12666666Y-48655771D02*
X12571428Y-48703390D01*
X12571428Y-48703390D02*
X12380952Y-48703390D01*
X12380952Y-48703390D02*
X12285714Y-48751009D01*
X12285714Y-48751009D02*
X12238095Y-48798628D01*
X12238095Y-48798628D02*
X12190476Y-48893866D01*
X12190476Y-48893866D02*
X12190476Y-49084342D01*
X12190476Y-49084342D02*
X12238095Y-49179580D01*
X12238095Y-49179580D02*
X12285714Y-49227200D01*
X12285714Y-49227200D02*
X12380952Y-49274819D01*
X12380952Y-49274819D02*
X12571428Y-49274819D01*
X12571428Y-49274819D02*
X12666666Y-49227200D01*
X12666666Y-49227200D02*
X12714285Y-49179580D01*
X12714285Y-49179580D02*
X12761904Y-49084342D01*
X12761904Y-49084342D02*
X12761904Y-48893866D01*
X12761904Y-48893866D02*
X12714285Y-48798628D01*
X12714285Y-48798628D02*
X12666666Y-48751009D01*
X12666666Y-48751009D02*
X12571428Y-48703390D01*
X21633333Y-38324819D02*
X21300000Y-37848628D01*
X21061905Y-38324819D02*
X21061905Y-37324819D01*
X21061905Y-37324819D02*
X21442857Y-37324819D01*
X21442857Y-37324819D02*
X21538095Y-37372438D01*
X21538095Y-37372438D02*
X21585714Y-37420057D01*
X21585714Y-37420057D02*
X21633333Y-37515295D01*
X21633333Y-37515295D02*
X21633333Y-37658152D01*
X21633333Y-37658152D02*
X21585714Y-37753390D01*
X21585714Y-37753390D02*
X21538095Y-37801009D01*
X21538095Y-37801009D02*
X21442857Y-37848628D01*
X21442857Y-37848628D02*
X21061905Y-37848628D01*
X22490476Y-37658152D02*
X22490476Y-38324819D01*
X22252381Y-37277200D02*
X22014286Y-37991485D01*
X22014286Y-37991485D02*
X22633333Y-37991485D01*
X51357142Y-50024819D02*
X51023809Y-49548628D01*
X50785714Y-50024819D02*
X50785714Y-49024819D01*
X50785714Y-49024819D02*
X51166666Y-49024819D01*
X51166666Y-49024819D02*
X51261904Y-49072438D01*
X51261904Y-49072438D02*
X51309523Y-49120057D01*
X51309523Y-49120057D02*
X51357142Y-49215295D01*
X51357142Y-49215295D02*
X51357142Y-49358152D01*
X51357142Y-49358152D02*
X51309523Y-49453390D01*
X51309523Y-49453390D02*
X51261904Y-49501009D01*
X51261904Y-49501009D02*
X51166666Y-49548628D01*
X51166666Y-49548628D02*
X50785714Y-49548628D01*
X52309523Y-50024819D02*
X51738095Y-50024819D01*
X52023809Y-50024819D02*
X52023809Y-49024819D01*
X52023809Y-49024819D02*
X51928571Y-49167676D01*
X51928571Y-49167676D02*
X51833333Y-49262914D01*
X51833333Y-49262914D02*
X51738095Y-49310533D01*
X52642857Y-49024819D02*
X53261904Y-49024819D01*
X53261904Y-49024819D02*
X52928571Y-49405771D01*
X52928571Y-49405771D02*
X53071428Y-49405771D01*
X53071428Y-49405771D02*
X53166666Y-49453390D01*
X53166666Y-49453390D02*
X53214285Y-49501009D01*
X53214285Y-49501009D02*
X53261904Y-49596247D01*
X53261904Y-49596247D02*
X53261904Y-49834342D01*
X53261904Y-49834342D02*
X53214285Y-49929580D01*
X53214285Y-49929580D02*
X53166666Y-49977200D01*
X53166666Y-49977200D02*
X53071428Y-50024819D01*
X53071428Y-50024819D02*
X52785714Y-50024819D01*
X52785714Y-50024819D02*
X52690476Y-49977200D01*
X52690476Y-49977200D02*
X52642857Y-49929580D01*
X63333333Y-14674819D02*
X62857143Y-14674819D01*
X62857143Y-14674819D02*
X62857143Y-13674819D01*
X64190476Y-14674819D02*
X63619048Y-14674819D01*
X63904762Y-14674819D02*
X63904762Y-13674819D01*
X63904762Y-13674819D02*
X63809524Y-13817676D01*
X63809524Y-13817676D02*
X63714286Y-13912914D01*
X63714286Y-13912914D02*
X63619048Y-13960533D01*
X15857142Y-29509580D02*
X15809523Y-29557200D01*
X15809523Y-29557200D02*
X15666666Y-29604819D01*
X15666666Y-29604819D02*
X15571428Y-29604819D01*
X15571428Y-29604819D02*
X15428571Y-29557200D01*
X15428571Y-29557200D02*
X15333333Y-29461961D01*
X15333333Y-29461961D02*
X15285714Y-29366723D01*
X15285714Y-29366723D02*
X15238095Y-29176247D01*
X15238095Y-29176247D02*
X15238095Y-29033390D01*
X15238095Y-29033390D02*
X15285714Y-28842914D01*
X15285714Y-28842914D02*
X15333333Y-28747676D01*
X15333333Y-28747676D02*
X15428571Y-28652438D01*
X15428571Y-28652438D02*
X15571428Y-28604819D01*
X15571428Y-28604819D02*
X15666666Y-28604819D01*
X15666666Y-28604819D02*
X15809523Y-28652438D01*
X15809523Y-28652438D02*
X15857142Y-28700057D01*
X16809523Y-29604819D02*
X16238095Y-29604819D01*
X16523809Y-29604819D02*
X16523809Y-28604819D01*
X16523809Y-28604819D02*
X16428571Y-28747676D01*
X16428571Y-28747676D02*
X16333333Y-28842914D01*
X16333333Y-28842914D02*
X16238095Y-28890533D01*
X17428571Y-28604819D02*
X17523809Y-28604819D01*
X17523809Y-28604819D02*
X17619047Y-28652438D01*
X17619047Y-28652438D02*
X17666666Y-28700057D01*
X17666666Y-28700057D02*
X17714285Y-28795295D01*
X17714285Y-28795295D02*
X17761904Y-28985771D01*
X17761904Y-28985771D02*
X17761904Y-29223866D01*
X17761904Y-29223866D02*
X17714285Y-29414342D01*
X17714285Y-29414342D02*
X17666666Y-29509580D01*
X17666666Y-29509580D02*
X17619047Y-29557200D01*
X17619047Y-29557200D02*
X17523809Y-29604819D01*
X17523809Y-29604819D02*
X17428571Y-29604819D01*
X17428571Y-29604819D02*
X17333333Y-29557200D01*
X17333333Y-29557200D02*
X17285714Y-29509580D01*
X17285714Y-29509580D02*
X17238095Y-29414342D01*
X17238095Y-29414342D02*
X17190476Y-29223866D01*
X17190476Y-29223866D02*
X17190476Y-28985771D01*
X17190476Y-28985771D02*
X17238095Y-28795295D01*
X17238095Y-28795295D02*
X17285714Y-28700057D01*
X17285714Y-28700057D02*
X17333333Y-28652438D01*
X17333333Y-28652438D02*
X17428571Y-28604819D01*
D13*
%TO.C,C12*%
X27359420Y-15990000D02*
X27640580Y-15990000D01*
X27359420Y-17010000D02*
X27640580Y-17010000D01*
%TO.C,C8*%
X51859420Y-36490000D02*
X52140580Y-36490000D01*
X51859420Y-37510000D02*
X52140580Y-37510000D01*
%TO.C,D1*%
X34340000Y-48350000D02*
X34340000Y-52650000D01*
X34340000Y-48350000D02*
X40150000Y-48350000D01*
X34340000Y-52650000D02*
X40150000Y-52650000D01*
%TO.C,C6*%
X27738748Y-36265000D02*
X28261252Y-36265000D01*
X27738748Y-37735000D02*
X28261252Y-37735000D01*
%TO.C,C3*%
X67738748Y-19765000D02*
X68261252Y-19765000D01*
X67738748Y-21235000D02*
X68261252Y-21235000D01*
%TO.C,C14*%
X14659420Y-51490000D02*
X14940580Y-51490000D01*
X14659420Y-52510000D02*
X14940580Y-52510000D01*
%TO.C,C9*%
X5490000Y-31640580D02*
X5490000Y-31359420D01*
X6510000Y-31640580D02*
X6510000Y-31359420D01*
%TO.C,Y1*%
X61420000Y-53150000D02*
X61420000Y-52500000D01*
X61420000Y-53150000D02*
X58580000Y-53150000D01*
X61420000Y-50850000D02*
X58580000Y-50850000D01*
%TO.C,RP2*%
X9762742Y-32477500D02*
X10237258Y-32477500D01*
X9762742Y-33522500D02*
X10237258Y-33522500D01*
%TO.C,RP1*%
X9762742Y-29477500D02*
X10237258Y-29477500D01*
X9762742Y-30522500D02*
X10237258Y-30522500D01*
%TO.C,C21*%
X68359420Y-38490000D02*
X68640580Y-38490000D01*
X68359420Y-39510000D02*
X68640580Y-39510000D01*
%TO.C,F1*%
X53613748Y-10790000D02*
X56386252Y-10790000D01*
X53613748Y-14210000D02*
X56386252Y-14210000D01*
%TO.C,SW2*%
X67250000Y-2700000D02*
X67250000Y-4700000D01*
X68300000Y-1400000D02*
X68750000Y-950000D01*
X68300000Y-6000000D02*
X68750000Y-6450000D01*
X68750000Y-950000D02*
X71250000Y-950000D01*
X68750000Y-6450000D02*
X71250000Y-6450000D01*
X71700000Y-1400000D02*
X71250000Y-950000D01*
X71700000Y-6000000D02*
X71250000Y-6450000D01*
X72750000Y-2700000D02*
X72750000Y-4700000D01*
%TO.C,J3*%
X27970000Y-34090000D02*
X56030000Y-34090000D01*
X27970000Y-34090000D02*
X27970000Y-25460000D01*
X28090000Y-34090000D02*
X28090000Y-25460000D01*
X28208095Y-34090000D02*
X28208095Y-25460000D01*
X28326190Y-34090000D02*
X28326190Y-25460000D01*
X28444285Y-34090000D02*
X28444285Y-25460000D01*
X28562380Y-34090000D02*
X28562380Y-25460000D01*
X28680475Y-34090000D02*
X28680475Y-25460000D01*
X28798570Y-34090000D02*
X28798570Y-25460000D01*
X28916665Y-34090000D02*
X28916665Y-25460000D01*
X29034760Y-34090000D02*
X29034760Y-25460000D01*
X29152855Y-34090000D02*
X29152855Y-25460000D01*
X29270950Y-34090000D02*
X29270950Y-25460000D01*
X29389045Y-34090000D02*
X29389045Y-25460000D01*
X29507140Y-34090000D02*
X29507140Y-25460000D01*
X29625235Y-34090000D02*
X29625235Y-25460000D01*
X29743330Y-34090000D02*
X29743330Y-25460000D01*
X29861425Y-34090000D02*
X29861425Y-25460000D01*
X29979520Y-34090000D02*
X29979520Y-25460000D01*
X30097615Y-34090000D02*
X30097615Y-25460000D01*
X30215710Y-34090000D02*
X30215710Y-25460000D01*
X30333805Y-34090000D02*
X30333805Y-25460000D01*
X30451900Y-34090000D02*
X30451900Y-25460000D01*
X30570000Y-34090000D02*
X30570000Y-25460000D01*
X33110000Y-34090000D02*
X33110000Y-25460000D01*
X35650000Y-34090000D02*
X35650000Y-25460000D01*
X38190000Y-34090000D02*
X38190000Y-25460000D01*
X40730000Y-34090000D02*
X40730000Y-25460000D01*
X43270000Y-34090000D02*
X43270000Y-25460000D01*
X45810000Y-34090000D02*
X45810000Y-25460000D01*
X48350000Y-34090000D02*
X48350000Y-25460000D01*
X50890000Y-34090000D02*
X50890000Y-25460000D01*
X53430000Y-34090000D02*
X53430000Y-25460000D01*
X56030000Y-34090000D02*
X56030000Y-25460000D01*
X27970000Y-25460000D02*
X56030000Y-25460000D01*
X28940000Y-25460000D02*
X28940000Y-25110000D01*
X29660000Y-25460000D02*
X29660000Y-25110000D01*
X31480000Y-25460000D02*
X31480000Y-25050000D01*
X32200000Y-25460000D02*
X32200000Y-25050000D01*
X34020000Y-25460000D02*
X34020000Y-25050000D01*
X34740000Y-25460000D02*
X34740000Y-25050000D01*
X36560000Y-25460000D02*
X36560000Y-25050000D01*
X37280000Y-25460000D02*
X37280000Y-25050000D01*
X39100000Y-25460000D02*
X39100000Y-25050000D01*
X39820000Y-25460000D02*
X39820000Y-25050000D01*
X41640000Y-25460000D02*
X41640000Y-25050000D01*
X42360000Y-25460000D02*
X42360000Y-25050000D01*
X44180000Y-25460000D02*
X44180000Y-25050000D01*
X44900000Y-25460000D02*
X44900000Y-25050000D01*
X46720000Y-25460000D02*
X46720000Y-25050000D01*
X47440000Y-25460000D02*
X47440000Y-25050000D01*
X49260000Y-25460000D02*
X49260000Y-25050000D01*
X49980000Y-25460000D02*
X49980000Y-25050000D01*
X51800000Y-25460000D02*
X51800000Y-25050000D01*
X52520000Y-25460000D02*
X52520000Y-25050000D01*
X54340000Y-25460000D02*
X54340000Y-25050000D01*
X55060000Y-25460000D02*
X55060000Y-25050000D01*
X27970000Y-24000000D02*
X27970000Y-22890000D01*
X27970000Y-22890000D02*
X29300000Y-22890000D01*
%TO.C,R6*%
X31762742Y-36477500D02*
X32237258Y-36477500D01*
X31762742Y-37522500D02*
X32237258Y-37522500D01*
%TO.C,U5*%
X47000000Y-13940000D02*
X46200000Y-13940000D01*
X47000000Y-13940000D02*
X47800000Y-13940000D01*
X47000000Y-17060000D02*
X46200000Y-17060000D01*
X47000000Y-17060000D02*
X47800000Y-17060000D01*
X45700000Y-13990000D02*
X45460000Y-13660000D01*
X45940000Y-13660000D01*
X45700000Y-13990000D01*
G36*
X45700000Y-13990000D02*
G01*
X45460000Y-13660000D01*
X45940000Y-13660000D01*
X45700000Y-13990000D01*
G37*
%TO.C,J2*%
X50300000Y-3900000D02*
X50300000Y-5900000D01*
X50300000Y-7800000D02*
X50300000Y-9700000D01*
X50300000Y-9700000D02*
X59700000Y-9700000D01*
X59700000Y-3900000D02*
X59700000Y-5900000D01*
X59700000Y-7800000D02*
X59700000Y-9700000D01*
%TO.C,U3*%
X54615000Y-48360000D02*
X54860000Y-48360000D01*
X66385000Y-48360000D02*
X66140000Y-48360000D01*
X54615000Y-44500000D02*
X54615000Y-48360000D01*
X54615000Y-44500000D02*
X54615000Y-40640000D01*
X66385000Y-44500000D02*
X66385000Y-48360000D01*
X66385000Y-44500000D02*
X66385000Y-40640000D01*
X54615000Y-40640000D02*
X54860000Y-40640000D01*
X66385000Y-40640000D02*
X66140000Y-40640000D01*
X54860000Y-49212500D02*
X54390000Y-49552500D01*
X54390000Y-48872500D01*
X54860000Y-49212500D01*
G36*
X54860000Y-49212500D02*
G01*
X54390000Y-49552500D01*
X54390000Y-48872500D01*
X54860000Y-49212500D01*
G37*
%TO.C,U2*%
X11390000Y-44115000D02*
X11390000Y-43630000D01*
X11390000Y-48610000D02*
X11390000Y-47885000D01*
X12115000Y-43390000D02*
X11690000Y-43390000D01*
X12115000Y-48610000D02*
X11390000Y-48610000D01*
X15885000Y-43390000D02*
X16610000Y-43390000D01*
X15885000Y-48610000D02*
X16610000Y-48610000D01*
X16610000Y-43390000D02*
X16610000Y-44115000D01*
X16610000Y-48610000D02*
X16610000Y-47885000D01*
X11390000Y-43390000D02*
X11150000Y-43060000D01*
X11630000Y-43060000D01*
X11390000Y-43390000D01*
G36*
X11390000Y-43390000D02*
G01*
X11150000Y-43060000D01*
X11630000Y-43060000D01*
X11390000Y-43390000D01*
G37*
%TO.C,C7*%
X35859420Y-36490000D02*
X36140580Y-36490000D01*
X35859420Y-37510000D02*
X36140580Y-37510000D01*
%TO.C,R16*%
X57262742Y-18977500D02*
X57737258Y-18977500D01*
X57262742Y-20022500D02*
X57737258Y-20022500D01*
%TO.C,R14*%
X5477500Y-28237258D02*
X5477500Y-27762742D01*
X6522500Y-28237258D02*
X6522500Y-27762742D01*
%TO.C,C20*%
X68359420Y-25990000D02*
X68640580Y-25990000D01*
X68359420Y-27010000D02*
X68640580Y-27010000D01*
%TO.C,U4*%
X58500000Y-15440000D02*
X57700000Y-15440000D01*
X58500000Y-15440000D02*
X59300000Y-15440000D01*
X58500000Y-18560000D02*
X57700000Y-18560000D01*
X58500000Y-18560000D02*
X59300000Y-18560000D01*
X57200000Y-15490000D02*
X56960000Y-15160000D01*
X57440000Y-15160000D01*
X57200000Y-15490000D01*
G36*
X57200000Y-15490000D02*
G01*
X56960000Y-15160000D01*
X57440000Y-15160000D01*
X57200000Y-15490000D01*
G37*
%TO.C,R8*%
X43762742Y-36477500D02*
X44237258Y-36477500D01*
X43762742Y-37522500D02*
X44237258Y-37522500D01*
%TO.C,C2*%
X62238748Y-19765000D02*
X62761252Y-19765000D01*
X62238748Y-21235000D02*
X62761252Y-21235000D01*
%TO.C,R11*%
X53262742Y-19477500D02*
X53737258Y-19477500D01*
X53262742Y-20522500D02*
X53737258Y-20522500D01*
%TO.C,C15*%
X72359420Y-49490000D02*
X72640580Y-49490000D01*
X72359420Y-50510000D02*
X72640580Y-50510000D01*
%TO.C,R1*%
X46762742Y-19277500D02*
X47237258Y-19277500D01*
X46762742Y-20322500D02*
X47237258Y-20322500D01*
%TO.C,R7*%
X39762742Y-36477500D02*
X40237258Y-36477500D01*
X39762742Y-37522500D02*
X40237258Y-37522500D01*
%TO.C,R2*%
X61762742Y-12477500D02*
X62237258Y-12477500D01*
X61762742Y-13522500D02*
X62237258Y-13522500D01*
%TO.C,C4*%
X28238748Y-19265000D02*
X28761252Y-19265000D01*
X28238748Y-20735000D02*
X28761252Y-20735000D01*
%TO.C,R12*%
X47762742Y-36477500D02*
X48237258Y-36477500D01*
X47762742Y-37522500D02*
X48237258Y-37522500D01*
%TO.C,R10*%
X49762742Y-19477500D02*
X50237258Y-19477500D01*
X49762742Y-20522500D02*
X50237258Y-20522500D01*
%TO.C,C13*%
X18159420Y-38990000D02*
X18440580Y-38990000D01*
X18159420Y-40010000D02*
X18440580Y-40010000D01*
%TO.C,C5*%
X23738748Y-36265000D02*
X24261252Y-36265000D01*
X23738748Y-37735000D02*
X24261252Y-37735000D01*
%TO.C,R15*%
X53762742Y-17477500D02*
X54237258Y-17477500D01*
X53762742Y-18522500D02*
X54237258Y-18522500D01*
%TO.C,SW1*%
X3750000Y-45000000D02*
X3750000Y-47000000D01*
X4800000Y-43700000D02*
X5250000Y-43250000D01*
X4800000Y-48300000D02*
X5250000Y-48750000D01*
X5250000Y-43250000D02*
X7750000Y-43250000D01*
X5250000Y-48750000D02*
X7750000Y-48750000D01*
X8200000Y-43700000D02*
X7750000Y-43250000D01*
X8200000Y-48300000D02*
X7750000Y-48750000D01*
X9250000Y-45000000D02*
X9250000Y-47000000D01*
%TO.C,C17*%
X7738748Y-49765000D02*
X8261252Y-49765000D01*
X7738748Y-51235000D02*
X8261252Y-51235000D01*
%TO.C,J1*%
X25500000Y-41720000D02*
X25000000Y-42220000D01*
X24500000Y-41720000D02*
X25500000Y-41720000D01*
X25000000Y-42220000D02*
X24500000Y-41720000D01*
X33500000Y-42330000D02*
X29030000Y-42330000D01*
X33500000Y-42330000D02*
X33500000Y-54730000D01*
X20100000Y-42330000D02*
X25570000Y-42330000D01*
X33500000Y-54730000D02*
X29030000Y-54730000D01*
X25570000Y-54730000D02*
X20100000Y-54730000D01*
X20100000Y-54730000D02*
X20100000Y-42330000D01*
%TO.C,X1*%
X70450000Y-39700000D02*
X75550000Y-39700000D01*
X75550000Y-39700000D02*
X75550000Y-27100000D01*
X70450000Y-27100000D02*
X70450000Y-39700000D01*
%TO.C,C19*%
X15859420Y-40990000D02*
X16140580Y-40990000D01*
X15859420Y-42010000D02*
X16140580Y-42010000D01*
%TO.C,C1*%
X42738748Y-17265000D02*
X43261252Y-17265000D01*
X42738748Y-18735000D02*
X43261252Y-18735000D01*
%TO.C,U1*%
X6800000Y500000D02*
X6800000Y-5700000D01*
X6800000Y500000D02*
X25200000Y500000D01*
X6800000Y-24350000D02*
X6800000Y-25350000D01*
X6800000Y-25350000D02*
X8300000Y-25350000D01*
X25200000Y500000D02*
X25200000Y-5700000D01*
X25200000Y-25350000D02*
X23700000Y-25350000D01*
X25200000Y-25350000D02*
X25200000Y-24350000D01*
X6800000Y-6375000D02*
X6300000Y-6375000D01*
X6800000Y-5875000D01*
X6800000Y-6375000D01*
G36*
X6800000Y-6375000D02*
G01*
X6300000Y-6375000D01*
X6800000Y-5875000D01*
X6800000Y-6375000D01*
G37*
%TO.C,C16*%
X67359420Y-51490000D02*
X67640580Y-51490000D01*
X67359420Y-52510000D02*
X67640580Y-52510000D01*
%TO.C,C18*%
X11238748Y-49765000D02*
X11761252Y-49765000D01*
X11238748Y-51235000D02*
X11761252Y-51235000D01*
%TO.C,R4*%
X21562742Y-38777500D02*
X22037258Y-38777500D01*
X21562742Y-39822500D02*
X22037258Y-39822500D01*
%TO.C,R13*%
X51762742Y-50477500D02*
X52237258Y-50477500D01*
X51762742Y-51522500D02*
X52237258Y-51522500D01*
%TO.C,L1*%
X62897936Y-15140000D02*
X64102064Y-15140000D01*
X62897936Y-17860000D02*
X64102064Y-17860000D01*
%TO.C,C10*%
X12062500Y-31652500D02*
X12850000Y-31652500D01*
X12456250Y-31258750D02*
X12456250Y-32046250D01*
X13090000Y-31154437D02*
X13090000Y-32440000D01*
X13090000Y-31154437D02*
X14154437Y-30090000D01*
X13090000Y-35845563D02*
X13090000Y-34560000D01*
X13090000Y-35845563D02*
X14154437Y-36910000D01*
X14154437Y-30090000D02*
X19910000Y-30090000D01*
X14154437Y-36910000D02*
X19910000Y-36910000D01*
X19910000Y-30090000D02*
X19910000Y-32440000D01*
X19910000Y-36910000D02*
X19910000Y-34560000D01*
%TD*%
M02*
