%TF.GenerationSoftware,KiCad,Pcbnew,7.0.11+dfsg-1build4*%
%TF.CreationDate,2026-07-30T22:50:34+00:00*%
%TF.ProjectId,model02,6d6f6465-6c30-4322-9e6b-696361645f70,rev?*%
%TF.SameCoordinates,Original*%
%TF.FileFunction,Other,Comment*%
%FSLAX46Y46*%
G04 Gerber Fmt 4.6, Leading zero omitted, Abs format (unit mm)*
G04 Created by KiCad (PCBNEW 7.0.11+dfsg-1build4) date 2026-07-30 22:50:34*
%MOMM*%
%LPD*%
G01*
G04 APERTURE LIST*
%ADD10C,0.150000*%
G04 APERTURE END LIST*
D10*
X3857142Y5602561D02*
X3857142Y7602561D01*
X4999999Y5602561D02*
X4142856Y6745419D01*
X4999999Y7602561D02*
X3857142Y6459704D01*
X5857142Y6650180D02*
X6523809Y6650180D01*
X6809523Y5602561D02*
X5857142Y5602561D01*
X5857142Y5602561D02*
X5857142Y7602561D01*
X5857142Y7602561D02*
X6809523Y7602561D01*
X7666666Y6650180D02*
X8333333Y6650180D01*
X8619047Y5602561D02*
X7666666Y5602561D01*
X7666666Y5602561D02*
X7666666Y7602561D01*
X7666666Y7602561D02*
X8619047Y7602561D01*
X9476190Y5602561D02*
X9476190Y7602561D01*
X9476190Y7602561D02*
X10238095Y7602561D01*
X10238095Y7602561D02*
X10428571Y7507323D01*
X10428571Y7507323D02*
X10523809Y7412085D01*
X10523809Y7412085D02*
X10619047Y7221609D01*
X10619047Y7221609D02*
X10619047Y6935895D01*
X10619047Y6935895D02*
X10523809Y6745419D01*
X10523809Y6745419D02*
X10428571Y6650180D01*
X10428571Y6650180D02*
X10238095Y6554942D01*
X10238095Y6554942D02*
X9476190Y6554942D01*
X11476190Y6364466D02*
X13000000Y6364466D01*
X14333332Y7602561D02*
X14714285Y7602561D01*
X14714285Y7602561D02*
X14904761Y7507323D01*
X14904761Y7507323D02*
X15095237Y7316847D01*
X15095237Y7316847D02*
X15190475Y6935895D01*
X15190475Y6935895D02*
X15190475Y6269228D01*
X15190475Y6269228D02*
X15095237Y5888276D01*
X15095237Y5888276D02*
X14904761Y5697800D01*
X14904761Y5697800D02*
X14714285Y5602561D01*
X14714285Y5602561D02*
X14333332Y5602561D01*
X14333332Y5602561D02*
X14142856Y5697800D01*
X14142856Y5697800D02*
X13952380Y5888276D01*
X13952380Y5888276D02*
X13857142Y6269228D01*
X13857142Y6269228D02*
X13857142Y6935895D01*
X13857142Y6935895D02*
X13952380Y7316847D01*
X13952380Y7316847D02*
X14142856Y7507323D01*
X14142856Y7507323D02*
X14333332Y7602561D01*
X16047618Y7602561D02*
X16047618Y5983514D01*
X16047618Y5983514D02*
X16142856Y5793038D01*
X16142856Y5793038D02*
X16238094Y5697800D01*
X16238094Y5697800D02*
X16428570Y5602561D01*
X16428570Y5602561D02*
X16809523Y5602561D01*
X16809523Y5602561D02*
X16999999Y5697800D01*
X16999999Y5697800D02*
X17095237Y5793038D01*
X17095237Y5793038D02*
X17190475Y5983514D01*
X17190475Y5983514D02*
X17190475Y7602561D01*
X17857142Y7602561D02*
X18999999Y7602561D01*
X18428570Y5602561D02*
X18428570Y7602561D01*
X21000000Y7602561D02*
X22333333Y7602561D01*
X22333333Y7602561D02*
X21000000Y5602561D01*
X21000000Y5602561D02*
X22333333Y5602561D01*
X23476190Y7602561D02*
X23857143Y7602561D01*
X23857143Y7602561D02*
X24047619Y7507323D01*
X24047619Y7507323D02*
X24238095Y7316847D01*
X24238095Y7316847D02*
X24333333Y6935895D01*
X24333333Y6935895D02*
X24333333Y6269228D01*
X24333333Y6269228D02*
X24238095Y5888276D01*
X24238095Y5888276D02*
X24047619Y5697800D01*
X24047619Y5697800D02*
X23857143Y5602561D01*
X23857143Y5602561D02*
X23476190Y5602561D01*
X23476190Y5602561D02*
X23285714Y5697800D01*
X23285714Y5697800D02*
X23095238Y5888276D01*
X23095238Y5888276D02*
X23000000Y6269228D01*
X23000000Y6269228D02*
X23000000Y6935895D01*
X23000000Y6935895D02*
X23095238Y7316847D01*
X23095238Y7316847D02*
X23285714Y7507323D01*
X23285714Y7507323D02*
X23476190Y7602561D01*
X25190476Y5602561D02*
X25190476Y7602561D01*
X25190476Y7602561D02*
X26333333Y5602561D01*
X26333333Y5602561D02*
X26333333Y7602561D01*
X27285714Y6650180D02*
X27952381Y6650180D01*
X28238095Y5602561D02*
X27285714Y5602561D01*
X27285714Y5602561D02*
X27285714Y7602561D01*
X27285714Y7602561D02*
X28238095Y7602561D01*
X13188095Y-3129104D02*
X13664285Y-3129104D01*
X13092857Y-3414819D02*
X13426190Y-2414819D01*
X13426190Y-2414819D02*
X13759523Y-3414819D01*
X14092857Y-2748152D02*
X14092857Y-3414819D01*
X14092857Y-2843390D02*
X14140476Y-2795771D01*
X14140476Y-2795771D02*
X14235714Y-2748152D01*
X14235714Y-2748152D02*
X14378571Y-2748152D01*
X14378571Y-2748152D02*
X14473809Y-2795771D01*
X14473809Y-2795771D02*
X14521428Y-2891009D01*
X14521428Y-2891009D02*
X14521428Y-3414819D01*
X14854762Y-2748152D02*
X15235714Y-2748152D01*
X14997619Y-2414819D02*
X14997619Y-3271961D01*
X14997619Y-3271961D02*
X15045238Y-3367200D01*
X15045238Y-3367200D02*
X15140476Y-3414819D01*
X15140476Y-3414819D02*
X15235714Y-3414819D01*
X15950000Y-3367200D02*
X15854762Y-3414819D01*
X15854762Y-3414819D02*
X15664286Y-3414819D01*
X15664286Y-3414819D02*
X15569048Y-3367200D01*
X15569048Y-3367200D02*
X15521429Y-3271961D01*
X15521429Y-3271961D02*
X15521429Y-2891009D01*
X15521429Y-2891009D02*
X15569048Y-2795771D01*
X15569048Y-2795771D02*
X15664286Y-2748152D01*
X15664286Y-2748152D02*
X15854762Y-2748152D01*
X15854762Y-2748152D02*
X15950000Y-2795771D01*
X15950000Y-2795771D02*
X15997619Y-2891009D01*
X15997619Y-2891009D02*
X15997619Y-2986247D01*
X15997619Y-2986247D02*
X15521429Y-3081485D01*
X16426191Y-2748152D02*
X16426191Y-3414819D01*
X16426191Y-2843390D02*
X16473810Y-2795771D01*
X16473810Y-2795771D02*
X16569048Y-2748152D01*
X16569048Y-2748152D02*
X16711905Y-2748152D01*
X16711905Y-2748152D02*
X16807143Y-2795771D01*
X16807143Y-2795771D02*
X16854762Y-2891009D01*
X16854762Y-2891009D02*
X16854762Y-3414819D01*
X17330953Y-2748152D02*
X17330953Y-3414819D01*
X17330953Y-2843390D02*
X17378572Y-2795771D01*
X17378572Y-2795771D02*
X17473810Y-2748152D01*
X17473810Y-2748152D02*
X17616667Y-2748152D01*
X17616667Y-2748152D02*
X17711905Y-2795771D01*
X17711905Y-2795771D02*
X17759524Y-2891009D01*
X17759524Y-2891009D02*
X17759524Y-3414819D01*
X18664286Y-3414819D02*
X18664286Y-2891009D01*
X18664286Y-2891009D02*
X18616667Y-2795771D01*
X18616667Y-2795771D02*
X18521429Y-2748152D01*
X18521429Y-2748152D02*
X18330953Y-2748152D01*
X18330953Y-2748152D02*
X18235715Y-2795771D01*
X18664286Y-3367200D02*
X18569048Y-3414819D01*
X18569048Y-3414819D02*
X18330953Y-3414819D01*
X18330953Y-3414819D02*
X18235715Y-3367200D01*
X18235715Y-3367200D02*
X18188096Y-3271961D01*
X18188096Y-3271961D02*
X18188096Y-3176723D01*
X18188096Y-3176723D02*
X18235715Y-3081485D01*
X18235715Y-3081485D02*
X18330953Y-3033866D01*
X18330953Y-3033866D02*
X18569048Y-3033866D01*
X18569048Y-3033866D02*
X18664286Y-2986247D01*
%TO.C,H1*%
X35700000Y-12000000D02*
G75*
G03*
X30300000Y-12000000I-2700000J0D01*
G01*
X30300000Y-12000000D02*
G75*
G03*
X35700000Y-12000000I2700000J0D01*
G01*
%TO.C,H3*%
X12700000Y-37000000D02*
G75*
G03*
X7300000Y-37000000I-2700000J0D01*
G01*
X7300000Y-37000000D02*
G75*
G03*
X12700000Y-37000000I2700000J0D01*
G01*
%TO.C,H2*%
X72700000Y-10000000D02*
G75*
G03*
X67300000Y-10000000I-2700000J0D01*
G01*
X67300000Y-10000000D02*
G75*
G03*
X72700000Y-10000000I2700000J0D01*
G01*
%TO.C,H4*%
X72700000Y-44000000D02*
G75*
G03*
X67300000Y-44000000I-2700000J0D01*
G01*
X67300000Y-44000000D02*
G75*
G03*
X72700000Y-44000000I2700000J0D01*
G01*
%TD*%
M02*
