%TF.GenerationSoftware,KiCad,Pcbnew,7.0.11+dfsg-1build4*%
%TF.CreationDate,2026-07-30T22:50:34+00:00*%
%TF.ProjectId,model02,6d6f6465-6c30-4322-9e6b-696361645f70,rev?*%
%TF.SameCoordinates,Original*%
%TF.FileFunction,Copper,L2,Bot*%
%TF.FilePolarity,Positive*%
%FSLAX46Y46*%
G04 Gerber Fmt 4.6, Leading zero omitted, Abs format (unit mm)*
G04 Created by KiCad (PCBNEW 7.0.11+dfsg-1build4) date 2026-07-30 22:50:34*
%MOMM*%
%LPD*%
G01*
G04 APERTURE LIST*
%TA.AperFunction,ComponentPad*%
%ADD10R,1.700000X1.700000*%
%TD*%
%TA.AperFunction,ComponentPad*%
%ADD11O,1.700000X1.700000*%
%TD*%
%TA.AperFunction,ComponentPad*%
%ADD12O,1.000000X2.100000*%
%TD*%
%TA.AperFunction,ComponentPad*%
%ADD13O,1.000000X1.600000*%
%TD*%
%TA.AperFunction,ComponentPad*%
%ADD14R,1.500000X1.500000*%
%TD*%
%TA.AperFunction,ComponentPad*%
%ADD15C,1.500000*%
%TD*%
%TA.AperFunction,HeatsinkPad*%
%ADD16C,0.600000*%
%TD*%
%TA.AperFunction,ViaPad*%
%ADD17C,0.600000*%
%TD*%
%TA.AperFunction,ViaPad*%
%ADD18C,0.500000*%
%TD*%
%TA.AperFunction,ViaPad*%
%ADD19C,0.700000*%
%TD*%
%TA.AperFunction,Conductor*%
%ADD20C,0.250000*%
%TD*%
G04 APERTURE END LIST*
D10*
%TO.P,J3,1*%
%TO.N,RING*%
X29300000Y-24000000D03*
D11*
%TO.P,J3,2*%
%TO.N,TIP*%
X31840000Y-24000000D03*
%TO.P,J3,3*%
%TO.N,SLIC_FR*%
X34380000Y-24000000D03*
%TO.P,J3,4*%
%TO.N,SLIC_RM*%
X36920000Y-24000000D03*
%TO.P,J3,5*%
%TO.N,SLIC_SHK_5V*%
X39460000Y-24000000D03*
%TO.P,J3,6*%
%TO.N,VR_IN*%
X42000000Y-24000000D03*
%TO.P,J3,7*%
%TO.N,VX_OUT*%
X44540000Y-24000000D03*
%TO.P,J3,8*%
%TO.N,N/C*%
X47080000Y-24000000D03*
%TO.P,J3,9*%
%TO.N,GND*%
X49620000Y-24000000D03*
%TO.P,J3,10*%
%TO.N,+5V*%
X52160000Y-24000000D03*
%TO.P,J3,11*%
%TO.N,SLIC_PD*%
X54700000Y-24000000D03*
%TD*%
D12*
%TO.P,J2,S1*%
%TO.N,GND*%
X50680000Y-2670000D03*
D13*
X50680000Y-6850000D03*
D12*
X59320000Y-2670000D03*
D13*
X59320000Y-6850000D03*
%TD*%
D14*
%TO.P,J1,1*%
%TO.N,N/C*%
X25000000Y-47000000D03*
D15*
%TO.P,J1,2*%
%TO.N,TIP*%
X22460000Y-48020000D03*
%TO.P,J1,3*%
%TO.N,RING*%
X25000000Y-49040000D03*
%TO.P,J1,4*%
%TO.N,N/C*%
X22460000Y-50060000D03*
%TD*%
D16*
%TO.P,U1,41*%
%TO.N,GND*%
X13100000Y-14160000D03*
X13100000Y-15560000D03*
X13800000Y-13460000D03*
X13800000Y-14860000D03*
X13800000Y-16260000D03*
X14500000Y-14160000D03*
X14500000Y-15560000D03*
X15200000Y-13460000D03*
X15200000Y-14860000D03*
X15200000Y-16260000D03*
X15900000Y-14160000D03*
X15900000Y-15560000D03*
%TD*%
D17*
%TO.N,GND*%
X32250085Y-16664269D03*
X62478927Y-46282578D03*
D18*
X58478694Y-16450602D03*
D17*
X21135707Y-20047010D03*
X60146310Y-27672360D03*
D18*
X13924136Y-50300783D03*
D17*
X70922482Y-33106296D03*
X44188736Y-17475887D03*
X13531294Y-22055860D03*
X4017674Y-33356899D03*
D18*
X13540000Y-44600000D03*
D17*
X51790582Y-5765278D03*
X16990115Y-33697075D03*
X7808576Y-48542484D03*
X19741356Y-40298677D03*
X17007297Y-41226307D03*
X37978020Y-25878375D03*
X52982485Y-37251147D03*
X54617717Y-20456580D03*
D19*
%TO.N,VBUS_RAW*%
X49558800Y-924800D03*
X59146000Y-815000D03*
%TO.N,+5V*%
X52104800Y-17815300D03*
X49630100Y-15624700D03*
X25563300Y-35126900D03*
X60000000Y-52350000D03*
%TO.N,USB_DP*%
X30617000Y-19749500D03*
X22027900Y-22830200D03*
%TO.N,CC1*%
X51400400Y-10260100D03*
X46035500Y-17469200D03*
%TO.N,I2C_SDA*%
X22435500Y-15168200D03*
X13271700Y-41849900D03*
X13637000Y-31405200D03*
%TO.N,I2C_SCL*%
X23206000Y-11234900D03*
X11205100Y-34038000D03*
%TO.N,I2S_BCLK*%
X8577300Y-13202500D03*
X10385400Y-46019900D03*
%TO.N,I2S_LRCK*%
X10518000Y-49030600D03*
X5781700Y-14167500D03*
%TO.N,I2S_DOUT*%
X5684100Y-18528000D03*
X8406300Y-46987700D03*
%TO.N,I2S_DIN*%
X11722300Y-48688900D03*
X8747900Y-21628100D03*
%TO.N,SLIC_FR*%
X23430000Y-23103300D03*
%TO.N,SLIC_PD*%
X16657900Y-26239100D03*
X23307000Y-27903000D03*
%TO.N,DTMF_Q1*%
X22199300Y-28400900D03*
X18192500Y-26276300D03*
%TO.N,DTMF_Q2*%
X11455500Y-15143700D03*
X38755700Y-29169000D03*
%TO.N,DTMF_Q4*%
X9409700Y-20693400D03*
X14243000Y-29473100D03*
%TO.N,DTMF_DV*%
X35364500Y-32110599D03*
X29484100Y-26063300D03*
%TO.N,VR_IN*%
X26716000Y-34846200D03*
%TO.N,VX_OUT*%
X33953800Y-35795000D03*
%TO.N,ES_VMID*%
X9322600Y-49087000D03*
X17433500Y-44679400D03*
%TO.N,BOOT*%
X39544700Y-21981500D03*
X61243000Y-3357300D03*
%TO.N,LED_R*%
X26414500Y-22967600D03*
X22163300Y-40817700D03*
%TD*%
D20*
%TO.N,VBUS_RAW*%
X49558800Y-924800D02*
X49668600Y-815000D01*
X49668600Y-815000D02*
X59146000Y-815000D01*
%TO.N,+5V*%
X52104800Y-17815300D02*
X51820700Y-17815300D01*
X51820700Y-17815300D02*
X49630100Y-15624700D01*
X50735500Y-43085500D02*
X60000000Y-52350000D01*
X25563300Y-35126900D02*
X26966000Y-36529600D01*
X50735500Y-36529600D02*
X50735500Y-43085500D01*
X52160000Y-25176900D02*
X50735500Y-26601400D01*
X52160000Y-24000000D02*
X52160000Y-17870500D01*
X26966000Y-36529600D02*
X50735500Y-36529600D01*
X52160000Y-17870500D02*
X52104800Y-17815300D01*
X50735500Y-26601400D02*
X50735500Y-36529600D01*
X52160000Y-24588400D02*
X52160000Y-24000000D01*
X52160000Y-24588400D02*
X52160000Y-25176900D01*
%TO.N,USB_DP*%
X22027900Y-22830200D02*
X25108600Y-19749500D01*
X25108600Y-19749500D02*
X30617000Y-19749500D01*
%TO.N,CC1*%
X51400400Y-12104300D02*
X51400400Y-10260100D01*
X46035500Y-17469200D02*
X51400400Y-12104300D01*
%TO.N,I2C_SDA*%
X13637000Y-31405200D02*
X13637000Y-41484600D01*
X15855800Y-29461100D02*
X15855800Y-21747900D01*
X13637000Y-41484600D02*
X13271700Y-41849900D01*
X13911700Y-31405200D02*
X15855800Y-29461100D01*
X15855800Y-21747900D02*
X22435500Y-15168200D01*
X13637000Y-31405200D02*
X13911700Y-31405200D01*
%TO.N,I2C_SCL*%
X14919900Y-29757900D02*
X14919900Y-19521000D01*
X14919900Y-19521000D02*
X23206000Y-11234900D01*
X13852100Y-30230500D02*
X14447300Y-30230500D01*
X14447300Y-30230500D02*
X14919900Y-29757900D01*
X11205100Y-34038000D02*
X11205100Y-32877499D01*
X11205100Y-32877499D02*
X13852100Y-30230500D01*
%TO.N,I2S_BCLK*%
X8577300Y-13202500D02*
X8070399Y-13709400D01*
X8070399Y-13709400D02*
X8070399Y-43704900D01*
X8070399Y-43704900D02*
X10385400Y-46019900D01*
%TO.N,I2S_LRCK*%
X10518000Y-49030600D02*
X10518000Y-48142100D01*
X10518000Y-48142100D02*
X6407600Y-44031700D01*
X6407600Y-44031700D02*
X6407600Y-14793400D01*
X6407600Y-14793400D02*
X5781700Y-14167500D01*
%TO.N,I2S_DOUT*%
X5684100Y-44265500D02*
X5684100Y-18528000D01*
X8406300Y-46987700D02*
X5684100Y-44265500D01*
%TO.N,I2S_DIN*%
X8747900Y-21628100D02*
X8747900Y-32609600D01*
X11993400Y-48417800D02*
X11722300Y-48688900D01*
X8747900Y-32609600D02*
X11993400Y-35855100D01*
X11993400Y-35855100D02*
X11993400Y-48417800D01*
%TO.N,SLIC_FR*%
X34380000Y-24000000D02*
X33203100Y-24000000D01*
X33203100Y-23634200D02*
X33203100Y-24000000D01*
X24248000Y-22285300D02*
X31854200Y-22285300D01*
X23430000Y-23103300D02*
X24248000Y-22285300D01*
X31854200Y-22285300D02*
X33203100Y-23634200D01*
%TO.N,SLIC_PD*%
X20982100Y-25578100D02*
X23307000Y-27903000D01*
X17318900Y-25578100D02*
X20982100Y-25578100D01*
X16657900Y-26239100D02*
X17318900Y-25578100D01*
%TO.N,DTMF_Q1*%
X18192500Y-26276300D02*
X20074700Y-26276300D01*
X20074700Y-26276300D02*
X22199300Y-28400900D01*
%TO.N,DTMF_Q2*%
X11455500Y-14870500D02*
X11455500Y-15143700D01*
X15768000Y-10558000D02*
X11455500Y-14870500D01*
X35589300Y-26002600D02*
X35589300Y-22660900D01*
X38755700Y-29169000D02*
X35589300Y-26002600D01*
X23486400Y-10558000D02*
X15768000Y-10558000D01*
X35589300Y-22660900D02*
X23486400Y-10558000D01*
%TO.N,DTMF_Q4*%
X14243000Y-29473100D02*
X14243000Y-25526700D01*
X14243000Y-25526700D02*
X9409700Y-20693400D01*
%TO.N,DTMF_DV*%
X35364500Y-32110599D02*
X35364500Y-31943700D01*
X35364500Y-31943700D02*
X29484100Y-26063300D01*
%TO.N,TIP*%
X22840200Y-30503100D02*
X26115000Y-27228300D01*
X30318500Y-22823100D02*
X30663100Y-23167700D01*
X28295200Y-22823100D02*
X30318500Y-22823100D01*
X31840000Y-24000000D02*
X30663100Y-24000000D01*
X22460000Y-48020000D02*
X22840200Y-47639800D01*
X30663100Y-23167700D02*
X30663100Y-24000000D01*
X26115000Y-27228300D02*
X26115000Y-25003300D01*
X26115000Y-25003300D02*
X28295200Y-22823100D01*
X22840200Y-47639800D02*
X22840200Y-30503100D01*
%TO.N,RING*%
X29300000Y-24000000D02*
X29300000Y-25176900D01*
X25000000Y-49040000D02*
X23923100Y-47963100D01*
X23923100Y-47963100D02*
X23923100Y-30553800D01*
X23923100Y-30553800D02*
X29300000Y-25176900D01*
%TO.N,VR_IN*%
X34035800Y-34846200D02*
X26716000Y-34846200D01*
X42000000Y-25176900D02*
X42000000Y-26882000D01*
X42000000Y-26882000D02*
X34035800Y-34846200D01*
X42000000Y-24000000D02*
X42000000Y-25176900D01*
%TO.N,VX_OUT*%
X33953800Y-35763100D02*
X33953800Y-35795000D01*
X44540000Y-24000000D02*
X44540000Y-25176900D01*
X44540000Y-25176900D02*
X33953800Y-35763100D01*
%TO.N,ES_VMID*%
X10021900Y-49786300D02*
X12326600Y-49786300D01*
X12326600Y-49786300D02*
X17433500Y-44679400D01*
X9322600Y-49087000D02*
X10021900Y-49786300D01*
%TO.N,BOOT*%
X48953200Y-15549300D02*
X42521100Y-21981400D01*
X39544700Y-21981400D02*
X39544700Y-21981500D01*
X48953200Y-15344400D02*
X48953200Y-15549300D01*
X42521100Y-21981400D02*
X39544700Y-21981400D01*
X60940300Y-3357300D02*
X48953200Y-15344400D01*
X61243000Y-3357300D02*
X60940300Y-3357300D01*
%TO.N,LED_R*%
X24632200Y-27885200D02*
X22163300Y-30354100D01*
X26414500Y-22967600D02*
X24632200Y-24749900D01*
X24632200Y-24749900D02*
X24632200Y-27885200D01*
X22163300Y-30354100D02*
X22163300Y-40817700D01*
%TD*%
%TA.AperFunction,Conductor*%
%TO.N,GND*%
G36*
X23902828Y-11576176D02*
G01*
X35134804Y-22808152D01*
X35162581Y-22862669D01*
X35163800Y-22878156D01*
X35163800Y-22954385D01*
X35144893Y-23012576D01*
X35095393Y-23048540D01*
X35034207Y-23048540D01*
X35012685Y-23038557D01*
X34895019Y-22965702D01*
X34696198Y-22888679D01*
X34696197Y-22888678D01*
X34696195Y-22888678D01*
X34486610Y-22849500D01*
X34273390Y-22849500D01*
X34063804Y-22888678D01*
X33864980Y-22965702D01*
X33864975Y-22965705D01*
X33683699Y-23077946D01*
X33683698Y-23077947D01*
X33525947Y-23221757D01*
X33470206Y-23246987D01*
X33410280Y-23234635D01*
X33389247Y-23218599D01*
X32131394Y-21960746D01*
X32131394Y-21960745D01*
X32107420Y-21936771D01*
X32107418Y-21936770D01*
X32084150Y-21924915D01*
X32070905Y-21916799D01*
X32049781Y-21901451D01*
X32049779Y-21901450D01*
X32024941Y-21893379D01*
X32010591Y-21887435D01*
X31987326Y-21875581D01*
X31961529Y-21871495D01*
X31946429Y-21867870D01*
X31921593Y-21859800D01*
X31887688Y-21859800D01*
X24315393Y-21859800D01*
X24180607Y-21859800D01*
X24180606Y-21859800D01*
X24180600Y-21859801D01*
X24155768Y-21867869D01*
X24140668Y-21871495D01*
X24114871Y-21875581D01*
X24091606Y-21887435D01*
X24077260Y-21893377D01*
X24052423Y-21901447D01*
X24052417Y-21901450D01*
X24032805Y-21915698D01*
X24031295Y-21916797D01*
X24031289Y-21916801D01*
X24018049Y-21924915D01*
X23994780Y-21936772D01*
X23994777Y-21936774D01*
X23970805Y-21960745D01*
X23970806Y-21960746D01*
X23507748Y-22423804D01*
X23453231Y-22451581D01*
X23437744Y-22452800D01*
X23351011Y-22452800D01*
X23239347Y-22480323D01*
X23178322Y-22475891D01*
X23131557Y-22436436D01*
X23116915Y-22377028D01*
X23139988Y-22320360D01*
X23145651Y-22314196D01*
X23988566Y-21471282D01*
X25255852Y-20203996D01*
X25310369Y-20176219D01*
X25325856Y-20175000D01*
X30078779Y-20175000D01*
X30136970Y-20193907D01*
X30144420Y-20199891D01*
X30244760Y-20288783D01*
X30384635Y-20362196D01*
X30538015Y-20400000D01*
X30538018Y-20400000D01*
X30695982Y-20400000D01*
X30695985Y-20400000D01*
X30849365Y-20362196D01*
X30989240Y-20288783D01*
X31107483Y-20184030D01*
X31197220Y-20054023D01*
X31253237Y-19906318D01*
X31272278Y-19749500D01*
X31253237Y-19592682D01*
X31197220Y-19444977D01*
X31124609Y-19339781D01*
X31107484Y-19314971D01*
X31080483Y-19291050D01*
X30989240Y-19210217D01*
X30917322Y-19172471D01*
X30849364Y-19136803D01*
X30695987Y-19099000D01*
X30695985Y-19099000D01*
X30538015Y-19099000D01*
X30538012Y-19099000D01*
X30384635Y-19136803D01*
X30244758Y-19210218D01*
X30187731Y-19260739D01*
X30144426Y-19299103D01*
X30088334Y-19323538D01*
X30078779Y-19324000D01*
X25175993Y-19324000D01*
X25041207Y-19324000D01*
X25041206Y-19324000D01*
X25041200Y-19324001D01*
X25016368Y-19332069D01*
X25001268Y-19335695D01*
X24975471Y-19339781D01*
X24952206Y-19351635D01*
X24937860Y-19357577D01*
X24913023Y-19365647D01*
X24913017Y-19365650D01*
X24891889Y-19381001D01*
X24878649Y-19389115D01*
X24855380Y-19400972D01*
X24855377Y-19400974D01*
X24831405Y-19424945D01*
X24831406Y-19424946D01*
X22105648Y-22150704D01*
X22051131Y-22178481D01*
X22035644Y-22179700D01*
X21948912Y-22179700D01*
X21795535Y-22217503D01*
X21655658Y-22290918D01*
X21537415Y-22395671D01*
X21447680Y-22525676D01*
X21391663Y-22673382D01*
X21391662Y-22673383D01*
X21372622Y-22830198D01*
X21372622Y-22830201D01*
X21391662Y-22987016D01*
X21391663Y-22987018D01*
X21445197Y-23128176D01*
X21447680Y-23134723D01*
X21537415Y-23264728D01*
X21537416Y-23264729D01*
X21537417Y-23264730D01*
X21655660Y-23369483D01*
X21795535Y-23442896D01*
X21948915Y-23480700D01*
X21948918Y-23480700D01*
X22106882Y-23480700D01*
X22106885Y-23480700D01*
X22260265Y-23442896D01*
X22400140Y-23369483D01*
X22518383Y-23264730D01*
X22604756Y-23139596D01*
X22653370Y-23102448D01*
X22714537Y-23100968D01*
X22764892Y-23135725D01*
X22784508Y-23183901D01*
X22789084Y-23221586D01*
X22793763Y-23260118D01*
X22808082Y-23297874D01*
X22849780Y-23407823D01*
X22939515Y-23537828D01*
X22939516Y-23537829D01*
X22939517Y-23537830D01*
X23057760Y-23642583D01*
X23197635Y-23715996D01*
X23351015Y-23753800D01*
X23351018Y-23753800D01*
X23508982Y-23753800D01*
X23508985Y-23753800D01*
X23662365Y-23715996D01*
X23802240Y-23642583D01*
X23920483Y-23537830D01*
X24010220Y-23407823D01*
X24066237Y-23260118D01*
X24085278Y-23103300D01*
X24085278Y-23097312D01*
X24086488Y-23097312D01*
X24097045Y-23043374D01*
X24113563Y-23021483D01*
X24395252Y-22739796D01*
X24449768Y-22712019D01*
X24465255Y-22710800D01*
X25678655Y-22710800D01*
X25736846Y-22729707D01*
X25772810Y-22779207D01*
X25776933Y-22821733D01*
X25759222Y-22967597D01*
X25759222Y-22973587D01*
X25758013Y-22973587D01*
X25747449Y-23027531D01*
X25730933Y-23049417D01*
X24378980Y-24401372D01*
X24378979Y-24401371D01*
X24283672Y-24496678D01*
X24283670Y-24496682D01*
X24271814Y-24519950D01*
X24263700Y-24533191D01*
X24248350Y-24554318D01*
X24240281Y-24579153D01*
X24234338Y-24593501D01*
X24222481Y-24616772D01*
X24218396Y-24642565D01*
X24214771Y-24657665D01*
X24206700Y-24682506D01*
X24206700Y-27667944D01*
X24187793Y-27726135D01*
X24177703Y-27737948D01*
X24111504Y-27804146D01*
X24056987Y-27831923D01*
X23996555Y-27822351D01*
X23953291Y-27779086D01*
X23945004Y-27751911D01*
X23944669Y-27751994D01*
X23943237Y-27746189D01*
X23943237Y-27746182D01*
X23887220Y-27598477D01*
X23829495Y-27514848D01*
X23797484Y-27468471D01*
X23679241Y-27363718D01*
X23679240Y-27363717D01*
X23609302Y-27327010D01*
X23539364Y-27290303D01*
X23385987Y-27252500D01*
X23385985Y-27252500D01*
X23299255Y-27252500D01*
X23241064Y-27233593D01*
X23229251Y-27223504D01*
X22258619Y-26252872D01*
X21259294Y-25253546D01*
X21259294Y-25253545D01*
X21235320Y-25229571D01*
X21235318Y-25229570D01*
X21212050Y-25217715D01*
X21198805Y-25209599D01*
X21177681Y-25194251D01*
X21177679Y-25194250D01*
X21152841Y-25186179D01*
X21138491Y-25180235D01*
X21115226Y-25168381D01*
X21089429Y-25164295D01*
X21074329Y-25160670D01*
X21049493Y-25152600D01*
X21015588Y-25152600D01*
X17386293Y-25152600D01*
X17251507Y-25152600D01*
X17251506Y-25152600D01*
X17226665Y-25160671D01*
X17211565Y-25164296D01*
X17185772Y-25168381D01*
X17162501Y-25180238D01*
X17148153Y-25186181D01*
X17123318Y-25194250D01*
X17102191Y-25209600D01*
X17088949Y-25217715D01*
X17065680Y-25229571D01*
X16970371Y-25324881D01*
X16970370Y-25324880D01*
X16735650Y-25559603D01*
X16681133Y-25587381D01*
X16665646Y-25588600D01*
X16578912Y-25588600D01*
X16425534Y-25626404D01*
X16419934Y-25628528D01*
X16419421Y-25627176D01*
X16365987Y-25636298D01*
X16311141Y-25609176D01*
X16282712Y-25554996D01*
X16281300Y-25538338D01*
X16281300Y-21965156D01*
X16300207Y-21906965D01*
X16310296Y-21895152D01*
X22357752Y-15847696D01*
X22412269Y-15819919D01*
X22427756Y-15818700D01*
X22514482Y-15818700D01*
X22514485Y-15818700D01*
X22667865Y-15780896D01*
X22807740Y-15707483D01*
X22925983Y-15602730D01*
X23015720Y-15472723D01*
X23071737Y-15325018D01*
X23090778Y-15168200D01*
X23071737Y-15011382D01*
X23015720Y-14863677D01*
X22970851Y-14798673D01*
X22925984Y-14733671D01*
X22895634Y-14706783D01*
X22807740Y-14628917D01*
X22708239Y-14576694D01*
X22667864Y-14555503D01*
X22514487Y-14517700D01*
X22514485Y-14517700D01*
X22356515Y-14517700D01*
X22356512Y-14517700D01*
X22203135Y-14555503D01*
X22063258Y-14628918D01*
X21945015Y-14733671D01*
X21855280Y-14863676D01*
X21799263Y-15011382D01*
X21799262Y-15011383D01*
X21780222Y-15168197D01*
X21780222Y-15174187D01*
X21779013Y-15174187D01*
X21768449Y-15228131D01*
X21751933Y-15250017D01*
X15602580Y-21399372D01*
X15514404Y-21487548D01*
X15459887Y-21515325D01*
X15399455Y-21505754D01*
X15356190Y-21462489D01*
X15345400Y-21417544D01*
X15345400Y-19738256D01*
X15364307Y-19680065D01*
X15374396Y-19668252D01*
X23128252Y-11914396D01*
X23182769Y-11886619D01*
X23198256Y-11885400D01*
X23284982Y-11885400D01*
X23284985Y-11885400D01*
X23438365Y-11847596D01*
X23578240Y-11774183D01*
X23696483Y-11669430D01*
X23751349Y-11589941D01*
X23799964Y-11552793D01*
X23861131Y-11551313D01*
X23902828Y-11576176D01*
G37*
%TD.AperFunction*%
%TA.AperFunction,Conductor*%
G36*
X49136111Y-269407D02*
G01*
X49172075Y-318907D01*
X49172075Y-380093D01*
X49143569Y-423603D01*
X49068315Y-490271D01*
X48978580Y-620276D01*
X48922563Y-767982D01*
X48922562Y-767983D01*
X48903522Y-924798D01*
X48903522Y-924801D01*
X48922562Y-1081616D01*
X48922563Y-1081618D01*
X48978580Y-1229323D01*
X49068315Y-1359328D01*
X49068316Y-1359329D01*
X49068317Y-1359330D01*
X49186560Y-1464083D01*
X49326435Y-1537496D01*
X49479815Y-1575300D01*
X49479818Y-1575300D01*
X49637782Y-1575300D01*
X49637785Y-1575300D01*
X49791165Y-1537496D01*
X49931040Y-1464083D01*
X50049283Y-1359330D01*
X50049285Y-1359326D01*
X50049287Y-1359325D01*
X50101790Y-1283262D01*
X50150406Y-1246112D01*
X50183265Y-1240500D01*
X58607779Y-1240500D01*
X58665970Y-1259407D01*
X58673420Y-1265391D01*
X58773760Y-1354283D01*
X58913635Y-1427696D01*
X59067015Y-1465500D01*
X59067018Y-1465500D01*
X59224982Y-1465500D01*
X59224985Y-1465500D01*
X59378365Y-1427696D01*
X59518240Y-1354283D01*
X59636483Y-1249530D01*
X59726220Y-1119523D01*
X59782237Y-971818D01*
X59801278Y-815000D01*
X59782237Y-658182D01*
X59726220Y-510477D01*
X59653923Y-405737D01*
X59636429Y-347107D01*
X59656737Y-289391D01*
X59707092Y-254634D01*
X59735400Y-250500D01*
X73855232Y-250500D01*
X73913423Y-269407D01*
X73925236Y-279496D01*
X79720504Y-6074764D01*
X79748281Y-6129281D01*
X79749500Y-6144768D01*
X79749500Y-47855232D01*
X79730593Y-47913423D01*
X79720504Y-47925236D01*
X73925236Y-53720504D01*
X73870719Y-53748281D01*
X73855232Y-53749500D01*
X28519420Y-53749500D01*
X28461229Y-53730593D01*
X28435117Y-53702404D01*
X28430069Y-53694205D01*
X28430065Y-53694200D01*
X28272566Y-53515247D01*
X28272565Y-53515246D01*
X28174942Y-53436421D01*
X28087080Y-53365477D01*
X28087073Y-53365473D01*
X27878957Y-53249211D01*
X27878952Y-53249209D01*
X27654172Y-53169789D01*
X27419205Y-53129500D01*
X27419200Y-53129500D01*
X27240503Y-53129500D01*
X27240494Y-53129500D01*
X27062466Y-53144652D01*
X27062463Y-53144653D01*
X26831753Y-53204724D01*
X26831742Y-53204728D01*
X26614518Y-53302920D01*
X26416997Y-53436420D01*
X26244883Y-53601377D01*
X26244877Y-53601384D01*
X26165014Y-53709368D01*
X26115210Y-53744911D01*
X26085418Y-53749500D01*
X6144768Y-53749500D01*
X6086577Y-53730593D01*
X6074764Y-53720504D01*
X279496Y-47925236D01*
X251719Y-47870719D01*
X250500Y-47855232D01*
X250500Y-18528001D01*
X5028822Y-18528001D01*
X5047862Y-18684816D01*
X5047863Y-18684817D01*
X5103880Y-18832523D01*
X5193615Y-18962528D01*
X5193616Y-18962529D01*
X5193617Y-18962530D01*
X5225249Y-18990553D01*
X5256267Y-19043291D01*
X5258600Y-19064655D01*
X5258600Y-44198107D01*
X5258600Y-44332893D01*
X5266669Y-44357725D01*
X5270295Y-44372829D01*
X5274381Y-44398626D01*
X5274381Y-44398627D01*
X5286235Y-44421891D01*
X5292179Y-44436241D01*
X5300250Y-44461079D01*
X5315597Y-44482202D01*
X5323715Y-44495450D01*
X5335570Y-44518718D01*
X5335571Y-44518720D01*
X5359545Y-44542694D01*
X5359546Y-44542694D01*
X7722733Y-46905880D01*
X7750510Y-46960397D01*
X7750897Y-46981712D01*
X7751022Y-46981712D01*
X7751022Y-46987701D01*
X7770062Y-47144516D01*
X7770063Y-47144517D01*
X7826080Y-47292223D01*
X7915815Y-47422228D01*
X7915816Y-47422229D01*
X7915817Y-47422230D01*
X8034060Y-47526983D01*
X8173935Y-47600396D01*
X8327315Y-47638200D01*
X8327318Y-47638200D01*
X8485282Y-47638200D01*
X8485285Y-47638200D01*
X8638665Y-47600396D01*
X8778540Y-47526983D01*
X8896783Y-47422230D01*
X8951649Y-47342741D01*
X9000264Y-47305593D01*
X9061431Y-47304113D01*
X9103128Y-47328976D01*
X10063504Y-48289352D01*
X10091281Y-48343869D01*
X10092500Y-48359356D01*
X10092500Y-48493943D01*
X10073593Y-48552134D01*
X10059150Y-48568045D01*
X10027514Y-48596072D01*
X10027512Y-48596074D01*
X9982310Y-48661562D01*
X9933694Y-48698712D01*
X9872526Y-48700190D01*
X9822172Y-48665433D01*
X9819360Y-48661562D01*
X9813087Y-48652474D01*
X9813085Y-48652472D01*
X9780727Y-48623806D01*
X9694840Y-48547717D01*
X9592384Y-48493943D01*
X9554964Y-48474303D01*
X9401587Y-48436500D01*
X9401585Y-48436500D01*
X9243615Y-48436500D01*
X9243612Y-48436500D01*
X9090235Y-48474303D01*
X8950358Y-48547718D01*
X8832115Y-48652471D01*
X8742380Y-48782476D01*
X8686363Y-48930182D01*
X8686362Y-48930183D01*
X8667322Y-49086998D01*
X8667322Y-49087001D01*
X8686362Y-49243816D01*
X8686363Y-49243818D01*
X8730728Y-49360800D01*
X8742380Y-49391523D01*
X8832115Y-49521528D01*
X8832116Y-49521529D01*
X8832117Y-49521530D01*
X8950360Y-49626283D01*
X9090235Y-49699696D01*
X9243615Y-49737500D01*
X9330344Y-49737500D01*
X9388535Y-49756407D01*
X9400348Y-49766496D01*
X9673372Y-50039520D01*
X9673371Y-50039520D01*
X9729435Y-50095583D01*
X9768680Y-50134828D01*
X9791950Y-50146684D01*
X9805189Y-50154797D01*
X9826320Y-50170150D01*
X9851161Y-50178221D01*
X9865505Y-50184163D01*
X9888774Y-50196019D01*
X9914571Y-50200104D01*
X9929665Y-50203727D01*
X9954507Y-50211800D01*
X9954509Y-50211800D01*
X12393994Y-50211800D01*
X12403475Y-50208718D01*
X12418822Y-50203731D01*
X12433928Y-50200103D01*
X12459726Y-50196019D01*
X12483005Y-50184156D01*
X12497338Y-50178220D01*
X12522181Y-50170149D01*
X12543307Y-50154798D01*
X12556553Y-50146682D01*
X12579820Y-50134828D01*
X12675128Y-50039520D01*
X17355752Y-45358896D01*
X17410269Y-45331119D01*
X17425756Y-45329900D01*
X17512482Y-45329900D01*
X17512485Y-45329900D01*
X17665865Y-45292096D01*
X17805740Y-45218683D01*
X17923983Y-45113930D01*
X18013720Y-44983923D01*
X18069737Y-44836218D01*
X18088778Y-44679400D01*
X18069737Y-44522582D01*
X18013720Y-44374877D01*
X17968851Y-44309873D01*
X17923984Y-44244871D01*
X17805741Y-44140118D01*
X17805740Y-44140117D01*
X17735802Y-44103410D01*
X17665864Y-44066703D01*
X17512487Y-44028900D01*
X17512485Y-44028900D01*
X17354515Y-44028900D01*
X17354512Y-44028900D01*
X17201135Y-44066703D01*
X17061258Y-44140118D01*
X16943015Y-44244871D01*
X16853280Y-44374876D01*
X16797263Y-44522582D01*
X16797262Y-44522583D01*
X16778222Y-44679397D01*
X16778222Y-44685387D01*
X16777013Y-44685387D01*
X16766449Y-44739331D01*
X16749933Y-44761217D01*
X12497148Y-49014003D01*
X12442631Y-49041780D01*
X12382199Y-49032209D01*
X12338934Y-48988944D01*
X12329363Y-48928512D01*
X12334578Y-48908893D01*
X12336602Y-48903553D01*
X12358537Y-48845718D01*
X12377578Y-48688900D01*
X12373450Y-48654904D01*
X12377572Y-48612384D01*
X12385318Y-48588542D01*
X12391263Y-48574192D01*
X12403119Y-48550926D01*
X12407203Y-48525128D01*
X12410831Y-48510022D01*
X12418900Y-48485193D01*
X12418900Y-48350407D01*
X12418900Y-41859824D01*
X12421762Y-41851013D01*
X12418900Y-41839975D01*
X12418900Y-35787706D01*
X12410831Y-35762875D01*
X12407203Y-35747765D01*
X12403119Y-35721974D01*
X12391258Y-35698697D01*
X12385319Y-35684359D01*
X12377249Y-35659519D01*
X12361898Y-35638391D01*
X12353783Y-35625148D01*
X12341927Y-35601879D01*
X12246620Y-35506571D01*
X12246620Y-35506572D01*
X12246618Y-35506570D01*
X12011748Y-35271700D01*
X11501960Y-34761913D01*
X11474184Y-34707397D01*
X11483755Y-34646965D01*
X11525954Y-34604252D01*
X11577340Y-34577283D01*
X11695583Y-34472530D01*
X11785320Y-34342523D01*
X11841337Y-34194818D01*
X11860378Y-34038000D01*
X11841337Y-33881182D01*
X11785320Y-33733477D01*
X11695583Y-33603470D01*
X11663950Y-33575445D01*
X11632932Y-33522704D01*
X11630600Y-33501343D01*
X11630600Y-33094754D01*
X11649507Y-33036563D01*
X11659590Y-33024756D01*
X12939233Y-31745112D01*
X12993748Y-31717337D01*
X13054180Y-31726908D01*
X13090709Y-31758878D01*
X13115804Y-31795234D01*
X13146515Y-31839728D01*
X13146516Y-31839729D01*
X13146517Y-31839730D01*
X13178149Y-31867753D01*
X13209167Y-31920491D01*
X13211500Y-31941855D01*
X13211500Y-41117208D01*
X13192593Y-41175399D01*
X13143093Y-41211363D01*
X13136192Y-41213331D01*
X13039336Y-41237203D01*
X12899458Y-41310618D01*
X12781215Y-41415371D01*
X12691480Y-41545376D01*
X12635463Y-41693082D01*
X12635462Y-41693083D01*
X12616421Y-41849899D01*
X12635462Y-42006716D01*
X12635463Y-42006717D01*
X12691480Y-42154423D01*
X12781215Y-42284428D01*
X12781216Y-42284429D01*
X12781217Y-42284430D01*
X12899460Y-42389183D01*
X13039335Y-42462596D01*
X13192715Y-42500400D01*
X13192718Y-42500400D01*
X13350682Y-42500400D01*
X13350685Y-42500400D01*
X13504065Y-42462596D01*
X13643940Y-42389183D01*
X13762183Y-42284430D01*
X13851920Y-42154423D01*
X13907937Y-42006718D01*
X13926978Y-41849900D01*
X13926978Y-41849899D01*
X13926978Y-41843912D01*
X13928189Y-41843912D01*
X13938744Y-41789977D01*
X13955262Y-41768085D01*
X13985528Y-41737820D01*
X13997386Y-41714545D01*
X14005496Y-41701311D01*
X14020849Y-41680181D01*
X14028920Y-41655338D01*
X14034856Y-41641005D01*
X14046719Y-41617726D01*
X14050803Y-41591928D01*
X14054431Y-41576822D01*
X14062500Y-41551993D01*
X14062500Y-41417207D01*
X14062500Y-31941855D01*
X14081407Y-31883664D01*
X14095846Y-31867757D01*
X14127483Y-31839730D01*
X14217220Y-31709723D01*
X14217222Y-31709716D01*
X14219374Y-31705616D01*
X14237032Y-31681615D01*
X14260228Y-31658420D01*
X16180354Y-29738294D01*
X16204328Y-29714320D01*
X16216189Y-29691040D01*
X16224296Y-29677811D01*
X16239650Y-29656680D01*
X16247719Y-29631843D01*
X16253662Y-29617494D01*
X16265519Y-29594226D01*
X16269603Y-29568433D01*
X16273229Y-29553328D01*
X16281300Y-29528493D01*
X16281300Y-29393707D01*
X16281300Y-26939861D01*
X16300207Y-26881670D01*
X16349707Y-26845706D01*
X16410893Y-26845706D01*
X16423632Y-26851074D01*
X16425530Y-26851793D01*
X16425535Y-26851796D01*
X16578915Y-26889600D01*
X16578918Y-26889600D01*
X16736882Y-26889600D01*
X16736885Y-26889600D01*
X16890265Y-26851796D01*
X17030140Y-26778383D01*
X17148383Y-26673630D01*
X17238120Y-26543623D01*
X17294137Y-26395918D01*
X17313178Y-26239100D01*
X17313178Y-26233112D01*
X17314389Y-26233112D01*
X17324944Y-26179177D01*
X17341462Y-26157284D01*
X17377863Y-26120883D01*
X17432378Y-26093108D01*
X17492810Y-26102679D01*
X17536075Y-26145944D01*
X17546143Y-26202821D01*
X17537222Y-26276297D01*
X17537222Y-26276301D01*
X17556262Y-26433116D01*
X17556263Y-26433118D01*
X17569595Y-26468272D01*
X17612280Y-26580823D01*
X17702015Y-26710828D01*
X17702016Y-26710829D01*
X17702017Y-26710830D01*
X17820260Y-26815583D01*
X17960135Y-26888996D01*
X18113515Y-26926800D01*
X18113518Y-26926800D01*
X18271482Y-26926800D01*
X18271485Y-26926800D01*
X18424865Y-26888996D01*
X18564740Y-26815583D01*
X18665073Y-26726696D01*
X18721166Y-26702262D01*
X18730721Y-26701800D01*
X19857444Y-26701800D01*
X19915635Y-26720707D01*
X19927448Y-26730796D01*
X21515733Y-28319080D01*
X21543510Y-28373597D01*
X21543897Y-28394912D01*
X21544022Y-28394912D01*
X21544022Y-28400901D01*
X21563062Y-28557716D01*
X21563063Y-28557718D01*
X21589326Y-28626967D01*
X21619080Y-28705423D01*
X21708815Y-28835428D01*
X21708816Y-28835429D01*
X21708817Y-28835430D01*
X21827060Y-28940183D01*
X21966935Y-29013596D01*
X22120315Y-29051400D01*
X22120318Y-29051400D01*
X22278282Y-29051400D01*
X22278285Y-29051400D01*
X22431665Y-29013596D01*
X22571540Y-28940183D01*
X22689783Y-28835430D01*
X22779520Y-28705423D01*
X22835537Y-28557718D01*
X22837370Y-28542621D01*
X22863150Y-28487137D01*
X22916623Y-28457400D01*
X22977362Y-28464773D01*
X22981631Y-28466883D01*
X23074635Y-28515696D01*
X23165199Y-28538017D01*
X23217170Y-28570299D01*
X23240244Y-28626967D01*
X23225602Y-28686374D01*
X23211508Y-28704143D01*
X21910080Y-30005572D01*
X21910079Y-30005571D01*
X21814772Y-30100878D01*
X21814770Y-30100882D01*
X21802914Y-30124150D01*
X21794800Y-30137391D01*
X21779450Y-30158518D01*
X21771381Y-30183353D01*
X21765438Y-30197701D01*
X21753581Y-30220972D01*
X21749496Y-30246765D01*
X21745871Y-30261865D01*
X21737800Y-30286706D01*
X21737800Y-40281043D01*
X21718893Y-40339234D01*
X21704450Y-40355145D01*
X21672816Y-40383170D01*
X21583080Y-40513176D01*
X21527063Y-40660882D01*
X21527062Y-40660883D01*
X21508022Y-40817698D01*
X21508022Y-40817701D01*
X21527062Y-40974516D01*
X21527063Y-40974517D01*
X21583080Y-41122223D01*
X21672815Y-41252228D01*
X21672816Y-41252229D01*
X21672817Y-41252230D01*
X21791060Y-41356983D01*
X21930935Y-41430396D01*
X22084315Y-41468200D01*
X22084318Y-41468200D01*
X22242282Y-41468200D01*
X22242285Y-41468200D01*
X22292009Y-41455944D01*
X22353032Y-41460375D01*
X22399797Y-41499830D01*
X22414700Y-41552067D01*
X22414700Y-46879150D01*
X22395793Y-46937341D01*
X22346293Y-46973305D01*
X22325404Y-46977673D01*
X22254070Y-46984698D01*
X22254065Y-46984699D01*
X22056045Y-47044768D01*
X21873547Y-47142316D01*
X21713595Y-47273585D01*
X21713585Y-47273595D01*
X21582316Y-47433547D01*
X21484768Y-47616045D01*
X21424699Y-47814065D01*
X21424698Y-47814070D01*
X21404417Y-48019996D01*
X21404417Y-48020003D01*
X21424698Y-48225929D01*
X21424699Y-48225934D01*
X21484768Y-48423954D01*
X21582316Y-48606452D01*
X21680490Y-48726077D01*
X21713590Y-48766410D01*
X21713595Y-48766414D01*
X21873547Y-48897683D01*
X21873548Y-48897683D01*
X21873550Y-48897685D01*
X21894519Y-48908893D01*
X21976456Y-48952690D01*
X22018862Y-48996796D01*
X22027245Y-49057405D01*
X21998402Y-49111365D01*
X21976456Y-49127310D01*
X21873547Y-49182316D01*
X21713595Y-49313585D01*
X21713585Y-49313595D01*
X21582316Y-49473547D01*
X21484768Y-49656045D01*
X21424699Y-49854065D01*
X21424698Y-49854070D01*
X21404417Y-50059996D01*
X21404417Y-50060003D01*
X21424698Y-50265929D01*
X21424699Y-50265934D01*
X21484768Y-50463954D01*
X21582316Y-50646452D01*
X21713585Y-50806404D01*
X21713590Y-50806410D01*
X21713595Y-50806414D01*
X21873547Y-50937683D01*
X21873548Y-50937683D01*
X21873550Y-50937685D01*
X22056046Y-51035232D01*
X22193997Y-51077078D01*
X22254065Y-51095300D01*
X22254070Y-51095301D01*
X22459997Y-51115583D01*
X22460000Y-51115583D01*
X22460003Y-51115583D01*
X22665929Y-51095301D01*
X22665934Y-51095300D01*
X22863954Y-51035232D01*
X23046450Y-50937685D01*
X23206410Y-50806410D01*
X23337685Y-50646450D01*
X23435232Y-50463954D01*
X23495300Y-50265934D01*
X23495301Y-50265929D01*
X23515583Y-50060003D01*
X23515583Y-50059996D01*
X23495301Y-49854070D01*
X23495300Y-49854065D01*
X23465676Y-49756407D01*
X23435232Y-49656046D01*
X23337685Y-49473550D01*
X23313396Y-49443954D01*
X23206414Y-49313595D01*
X23206410Y-49313590D01*
X23191795Y-49301596D01*
X23046452Y-49182316D01*
X23031925Y-49174551D01*
X22943542Y-49127309D01*
X22901137Y-49083204D01*
X22892754Y-49022596D01*
X22921597Y-48968635D01*
X22943540Y-48952691D01*
X23046450Y-48897685D01*
X23206410Y-48766410D01*
X23337685Y-48606450D01*
X23435232Y-48423954D01*
X23468041Y-48315796D01*
X23503026Y-48265599D01*
X23560834Y-48245553D01*
X23619385Y-48263314D01*
X23632782Y-48274530D01*
X23975718Y-48617466D01*
X24003495Y-48671983D01*
X24000451Y-48716208D01*
X23964699Y-48834065D01*
X23964698Y-48834070D01*
X23944417Y-49039996D01*
X23944417Y-49040003D01*
X23964698Y-49245929D01*
X23964699Y-49245934D01*
X24024768Y-49443954D01*
X24122316Y-49626452D01*
X24182426Y-49699696D01*
X24253590Y-49786410D01*
X24253595Y-49786414D01*
X24413547Y-49917683D01*
X24413548Y-49917683D01*
X24413550Y-49917685D01*
X24596046Y-50015232D01*
X24733997Y-50057078D01*
X24794065Y-50075300D01*
X24794070Y-50075301D01*
X24999997Y-50095583D01*
X25000000Y-50095583D01*
X25000003Y-50095583D01*
X25205929Y-50075301D01*
X25205934Y-50075300D01*
X25403954Y-50015232D01*
X25586450Y-49917685D01*
X25746410Y-49786410D01*
X25877685Y-49626450D01*
X25975232Y-49443954D01*
X26035300Y-49245934D01*
X26035301Y-49245929D01*
X26055583Y-49040003D01*
X26055583Y-49039996D01*
X26035301Y-48834070D01*
X26035300Y-48834065D01*
X26002542Y-48726077D01*
X25975232Y-48636046D01*
X25877685Y-48453550D01*
X25875243Y-48450575D01*
X25746414Y-48293595D01*
X25746410Y-48293590D01*
X25712303Y-48265599D01*
X25664084Y-48226027D01*
X25631097Y-48174496D01*
X25634699Y-48113417D01*
X25673514Y-48066120D01*
X25726889Y-48050499D01*
X25794861Y-48050499D01*
X25794864Y-48050499D01*
X25819991Y-48047585D01*
X25922765Y-48002206D01*
X26002206Y-47922765D01*
X26047585Y-47819991D01*
X26050500Y-47794865D01*
X26050499Y-46205136D01*
X26047585Y-46180009D01*
X26002206Y-46077235D01*
X25922765Y-45997794D01*
X25819991Y-45952415D01*
X25819990Y-45952414D01*
X25819988Y-45952414D01*
X25794869Y-45949500D01*
X25794865Y-45949500D01*
X24447600Y-45949500D01*
X24389409Y-45930593D01*
X24353445Y-45881093D01*
X24348600Y-45850500D01*
X24348600Y-42470346D01*
X25895702Y-42470346D01*
X25899915Y-42569535D01*
X25905820Y-42708531D01*
X25905821Y-42708538D01*
X25956045Y-42941580D01*
X25956046Y-42941581D01*
X26044936Y-43162790D01*
X26169928Y-43365790D01*
X26169937Y-43365803D01*
X26327433Y-43544752D01*
X26327436Y-43544755D01*
X26512920Y-43694523D01*
X26624896Y-43757077D01*
X26709852Y-43804537D01*
X26721046Y-43810790D01*
X26945829Y-43890211D01*
X27180800Y-43930500D01*
X27180802Y-43930500D01*
X27359506Y-43930500D01*
X27537533Y-43915347D01*
X27537534Y-43915346D01*
X27537541Y-43915346D01*
X27768249Y-43855275D01*
X27985486Y-43757077D01*
X28183003Y-43623579D01*
X28355118Y-43458621D01*
X28496879Y-43266947D01*
X28604207Y-43054074D01*
X28674016Y-42826123D01*
X28704298Y-42589654D01*
X28694180Y-42351468D01*
X28643954Y-42118419D01*
X28555064Y-41897210D01*
X28430069Y-41694205D01*
X28430065Y-41694200D01*
X28430062Y-41694196D01*
X28272566Y-41515247D01*
X28272565Y-41515246D01*
X28253473Y-41499830D01*
X28087080Y-41365477D01*
X27988877Y-41310617D01*
X27878957Y-41249211D01*
X27878952Y-41249209D01*
X27654172Y-41169789D01*
X27419205Y-41129500D01*
X27419200Y-41129500D01*
X27240503Y-41129500D01*
X27240494Y-41129500D01*
X27062466Y-41144652D01*
X27062463Y-41144653D01*
X26831753Y-41204724D01*
X26831742Y-41204728D01*
X26614518Y-41302920D01*
X26416997Y-41436420D01*
X26244883Y-41601377D01*
X26244877Y-41601384D01*
X26143972Y-41737818D01*
X26103121Y-41793053D01*
X25995793Y-42005926D01*
X25961343Y-42118418D01*
X25925983Y-42233879D01*
X25925983Y-42233880D01*
X25895702Y-42470341D01*
X25895702Y-42470346D01*
X24348600Y-42470346D01*
X24348600Y-30771055D01*
X24367507Y-30712864D01*
X24377590Y-30701057D01*
X28742524Y-26336122D01*
X28797039Y-26308347D01*
X28857471Y-26317918D01*
X28900736Y-26361183D01*
X28902578Y-26365342D01*
X28903879Y-26367821D01*
X28993615Y-26497828D01*
X28993616Y-26497829D01*
X28993617Y-26497830D01*
X29111860Y-26602583D01*
X29251735Y-26675996D01*
X29405115Y-26713800D01*
X29491844Y-26713800D01*
X29550035Y-26732707D01*
X29561848Y-26742796D01*
X34699004Y-31879952D01*
X34726781Y-31934469D01*
X34727278Y-31961889D01*
X34709222Y-32110597D01*
X34709222Y-32110600D01*
X34728262Y-32267415D01*
X34728263Y-32267417D01*
X34781515Y-32407831D01*
X34784280Y-32415122D01*
X34874015Y-32545127D01*
X34874016Y-32545128D01*
X34874017Y-32545129D01*
X34992260Y-32649882D01*
X35132135Y-32723295D01*
X35285515Y-32761099D01*
X35285520Y-32761099D01*
X35291463Y-32761821D01*
X35291117Y-32764664D01*
X35338335Y-32780006D01*
X35374299Y-32829506D01*
X35374299Y-32890692D01*
X35350148Y-32930103D01*
X33888548Y-34391704D01*
X33834031Y-34419481D01*
X33818544Y-34420700D01*
X27254221Y-34420700D01*
X27196030Y-34401793D01*
X27188579Y-34395808D01*
X27088240Y-34306917D01*
X27018302Y-34270210D01*
X26948364Y-34233503D01*
X26794987Y-34195700D01*
X26794985Y-34195700D01*
X26637015Y-34195700D01*
X26637012Y-34195700D01*
X26483635Y-34233503D01*
X26343758Y-34306918D01*
X26225515Y-34411671D01*
X26135780Y-34541676D01*
X26123241Y-34574741D01*
X26084927Y-34622446D01*
X26025891Y-34638519D01*
X25968682Y-34616823D01*
X25965025Y-34613738D01*
X25935541Y-34587618D01*
X25935540Y-34587617D01*
X25848008Y-34541676D01*
X25795664Y-34514203D01*
X25642287Y-34476400D01*
X25642285Y-34476400D01*
X25484315Y-34476400D01*
X25484312Y-34476400D01*
X25330935Y-34514203D01*
X25191058Y-34587618D01*
X25072815Y-34692371D01*
X24983080Y-34822376D01*
X24927063Y-34970082D01*
X24927062Y-34970083D01*
X24908022Y-35126898D01*
X24908022Y-35126901D01*
X24927062Y-35283716D01*
X24927063Y-35283718D01*
X24956171Y-35360470D01*
X24983080Y-35431423D01*
X25072815Y-35561428D01*
X25072816Y-35561429D01*
X25072817Y-35561430D01*
X25191060Y-35666183D01*
X25330935Y-35739596D01*
X25484315Y-35777400D01*
X25571044Y-35777400D01*
X25629235Y-35796307D01*
X25641048Y-35806396D01*
X26617472Y-36782820D01*
X26617471Y-36782820D01*
X26712778Y-36878127D01*
X26712779Y-36878127D01*
X26712780Y-36878128D01*
X26736050Y-36889984D01*
X26749284Y-36898094D01*
X26770419Y-36913449D01*
X26795253Y-36921517D01*
X26809606Y-36927462D01*
X26832874Y-36939319D01*
X26858666Y-36943403D01*
X26873776Y-36947031D01*
X26898607Y-36955100D01*
X26932512Y-36955100D01*
X50211000Y-36955100D01*
X50269191Y-36974007D01*
X50305155Y-37023507D01*
X50310000Y-37054100D01*
X50310000Y-43018107D01*
X50310000Y-43152893D01*
X50313216Y-43162790D01*
X50318069Y-43177725D01*
X50321695Y-43192829D01*
X50325781Y-43218626D01*
X50325781Y-43218627D01*
X50337635Y-43241891D01*
X50343579Y-43256241D01*
X50351650Y-43281079D01*
X50366997Y-43302202D01*
X50375115Y-43315450D01*
X50386970Y-43338718D01*
X50386971Y-43338720D01*
X50410945Y-43362694D01*
X50410946Y-43362694D01*
X59316433Y-52268181D01*
X59344210Y-52322698D01*
X59344597Y-52344013D01*
X59344722Y-52344013D01*
X59344722Y-52350002D01*
X59363762Y-52506816D01*
X59363763Y-52506817D01*
X59419780Y-52654523D01*
X59509515Y-52784528D01*
X59509516Y-52784529D01*
X59509517Y-52784530D01*
X59627760Y-52889283D01*
X59767635Y-52962696D01*
X59921015Y-53000500D01*
X59921018Y-53000500D01*
X60078982Y-53000500D01*
X60078985Y-53000500D01*
X60232365Y-52962696D01*
X60372240Y-52889283D01*
X60490483Y-52784530D01*
X60580220Y-52654523D01*
X60636237Y-52506818D01*
X60655278Y-52350000D01*
X60645343Y-52268181D01*
X60636237Y-52193183D01*
X60636237Y-52193182D01*
X60580220Y-52045477D01*
X60490483Y-51915470D01*
X60372240Y-51810717D01*
X60302302Y-51774010D01*
X60232364Y-51737303D01*
X60078987Y-51699500D01*
X60078985Y-51699500D01*
X59992256Y-51699500D01*
X59934065Y-51680593D01*
X59922252Y-51670504D01*
X52251748Y-44000000D01*
X68394551Y-44000000D01*
X68414316Y-44251146D01*
X68473127Y-44496113D01*
X68569532Y-44728856D01*
X68569535Y-44728862D01*
X68701162Y-44943656D01*
X68701168Y-44943664D01*
X68735552Y-44983923D01*
X68864776Y-45135224D01*
X68864782Y-45135229D01*
X68864785Y-45135232D01*
X68962494Y-45218683D01*
X69056341Y-45298836D01*
X69056343Y-45298837D01*
X69271137Y-45430464D01*
X69271143Y-45430467D01*
X69503887Y-45526872D01*
X69503889Y-45526873D01*
X69748852Y-45585683D01*
X69937118Y-45600500D01*
X69937125Y-45600500D01*
X70062875Y-45600500D01*
X70062882Y-45600500D01*
X70251148Y-45585683D01*
X70496111Y-45526873D01*
X70728859Y-45430466D01*
X70943659Y-45298836D01*
X71135224Y-45135224D01*
X71298836Y-44943659D01*
X71430466Y-44728859D01*
X71526873Y-44496111D01*
X71585683Y-44251148D01*
X71605449Y-44000000D01*
X71585683Y-43748852D01*
X71526873Y-43503889D01*
X71508122Y-43458621D01*
X71430467Y-43271143D01*
X71430464Y-43271137D01*
X71298837Y-43056343D01*
X71298836Y-43056341D01*
X71135224Y-42864776D01*
X71135217Y-42864770D01*
X71135214Y-42864767D01*
X70943664Y-42701168D01*
X70943656Y-42701162D01*
X70728862Y-42569535D01*
X70728856Y-42569532D01*
X70496112Y-42473127D01*
X70496113Y-42473127D01*
X70251146Y-42414316D01*
X70137306Y-42405357D01*
X70062882Y-42399500D01*
X69937118Y-42399500D01*
X69866671Y-42405044D01*
X69748853Y-42414316D01*
X69503886Y-42473127D01*
X69271143Y-42569532D01*
X69271137Y-42569535D01*
X69056343Y-42701162D01*
X69056335Y-42701168D01*
X68864785Y-42864767D01*
X68864767Y-42864785D01*
X68701168Y-43056335D01*
X68701162Y-43056343D01*
X68569535Y-43271137D01*
X68569532Y-43271143D01*
X68473127Y-43503886D01*
X68414316Y-43748853D01*
X68394551Y-44000000D01*
X52251748Y-44000000D01*
X51189996Y-42938248D01*
X51162219Y-42883731D01*
X51161000Y-42868244D01*
X51161000Y-36570878D01*
X51162219Y-36555390D01*
X51166304Y-36529599D01*
X51162219Y-36503807D01*
X51161000Y-36488320D01*
X51161000Y-26818654D01*
X51179907Y-26760463D01*
X51189990Y-26748656D01*
X52413218Y-25525428D01*
X52413220Y-25525428D01*
X52508528Y-25430120D01*
X52520386Y-25406845D01*
X52528496Y-25393611D01*
X52543849Y-25372481D01*
X52551920Y-25347638D01*
X52557856Y-25333305D01*
X52569719Y-25310026D01*
X52573803Y-25284228D01*
X52577432Y-25269120D01*
X52585500Y-25244293D01*
X52585500Y-25136794D01*
X52604407Y-25078603D01*
X52648737Y-25044479D01*
X52675019Y-25034298D01*
X52856302Y-24922052D01*
X53013872Y-24778407D01*
X53142366Y-24608255D01*
X53237405Y-24417389D01*
X53295756Y-24212310D01*
X53315429Y-24000000D01*
X53544571Y-24000000D01*
X53564244Y-24212310D01*
X53622595Y-24417389D01*
X53717634Y-24608255D01*
X53846128Y-24778407D01*
X53878282Y-24807719D01*
X54003692Y-24922047D01*
X54003699Y-24922053D01*
X54067316Y-24961443D01*
X54184981Y-25034298D01*
X54383802Y-25111321D01*
X54593390Y-25150500D01*
X54806610Y-25150500D01*
X55016198Y-25111321D01*
X55215019Y-25034298D01*
X55396302Y-24922052D01*
X55553872Y-24778407D01*
X55682366Y-24608255D01*
X55777405Y-24417389D01*
X55835756Y-24212310D01*
X55855429Y-24000000D01*
X55835756Y-23787690D01*
X55777405Y-23582611D01*
X55682366Y-23391745D01*
X55553872Y-23221593D01*
X55499623Y-23172139D01*
X55396307Y-23077952D01*
X55396300Y-23077946D01*
X55215024Y-22965705D01*
X55215019Y-22965702D01*
X55100651Y-22921396D01*
X55016198Y-22888679D01*
X55016197Y-22888678D01*
X55016195Y-22888678D01*
X54806610Y-22849500D01*
X54593390Y-22849500D01*
X54383804Y-22888678D01*
X54184980Y-22965702D01*
X54184975Y-22965705D01*
X54003699Y-23077946D01*
X54003692Y-23077952D01*
X53846135Y-23221586D01*
X53846131Y-23221589D01*
X53846128Y-23221593D01*
X53846125Y-23221597D01*
X53717635Y-23391743D01*
X53717630Y-23391752D01*
X53622596Y-23582608D01*
X53622595Y-23582611D01*
X53610655Y-23624574D01*
X53564244Y-23787688D01*
X53564244Y-23787690D01*
X53544571Y-24000000D01*
X53315429Y-24000000D01*
X53295756Y-23787690D01*
X53237405Y-23582611D01*
X53142366Y-23391745D01*
X53013872Y-23221593D01*
X52959623Y-23172139D01*
X52856307Y-23077952D01*
X52856300Y-23077946D01*
X52675024Y-22965705D01*
X52675023Y-22965704D01*
X52675019Y-22965702D01*
X52668364Y-22963124D01*
X52648735Y-22955519D01*
X52601305Y-22916866D01*
X52585500Y-22863205D01*
X52585500Y-18294852D01*
X52603025Y-18238614D01*
X52641797Y-18182443D01*
X52685020Y-18119823D01*
X52741037Y-17972118D01*
X52760078Y-17815300D01*
X52741037Y-17658482D01*
X52685020Y-17510777D01*
X52595283Y-17380770D01*
X52477040Y-17276017D01*
X52407102Y-17239310D01*
X52337164Y-17202603D01*
X52183787Y-17164800D01*
X52183785Y-17164800D01*
X52025815Y-17164800D01*
X52025811Y-17164800D01*
X51876361Y-17201636D01*
X51815336Y-17197204D01*
X51782665Y-17175517D01*
X50313666Y-15706518D01*
X50285889Y-15652001D01*
X50285504Y-15630688D01*
X50285378Y-15630688D01*
X50285378Y-15624698D01*
X50266337Y-15467883D01*
X50266337Y-15467882D01*
X50210320Y-15320177D01*
X50161892Y-15250017D01*
X50120584Y-15190171D01*
X50002339Y-15085416D01*
X49997908Y-15083090D01*
X49955172Y-15039303D01*
X49946335Y-14978759D01*
X49973915Y-14925431D01*
X54899346Y-10000000D01*
X68394551Y-10000000D01*
X68414316Y-10251146D01*
X68473127Y-10496113D01*
X68569532Y-10728856D01*
X68569535Y-10728862D01*
X68701162Y-10943656D01*
X68701168Y-10943664D01*
X68797403Y-11056341D01*
X68864776Y-11135224D01*
X68864782Y-11135229D01*
X68864785Y-11135232D01*
X69037371Y-11282634D01*
X69056341Y-11298836D01*
X69056343Y-11298837D01*
X69271137Y-11430464D01*
X69271141Y-11430466D01*
X69448400Y-11503889D01*
X69503887Y-11526872D01*
X69503889Y-11526873D01*
X69748852Y-11585683D01*
X69937118Y-11600500D01*
X69937125Y-11600500D01*
X70062875Y-11600500D01*
X70062882Y-11600500D01*
X70251148Y-11585683D01*
X70496111Y-11526873D01*
X70728859Y-11430466D01*
X70943659Y-11298836D01*
X71135224Y-11135224D01*
X71298836Y-10943659D01*
X71430466Y-10728859D01*
X71526873Y-10496111D01*
X71585683Y-10251148D01*
X71605449Y-10000000D01*
X71585683Y-9748852D01*
X71526873Y-9503889D01*
X71430466Y-9271141D01*
X71298836Y-9056341D01*
X71135224Y-8864776D01*
X71135217Y-8864770D01*
X71135214Y-8864767D01*
X70943664Y-8701168D01*
X70943656Y-8701162D01*
X70728862Y-8569535D01*
X70728856Y-8569532D01*
X70496112Y-8473127D01*
X70496113Y-8473127D01*
X70251146Y-8414316D01*
X70137306Y-8405357D01*
X70062882Y-8399500D01*
X69937118Y-8399500D01*
X69866671Y-8405044D01*
X69748853Y-8414316D01*
X69503886Y-8473127D01*
X69271143Y-8569532D01*
X69271137Y-8569535D01*
X69056343Y-8701162D01*
X69056335Y-8701168D01*
X68864785Y-8864767D01*
X68864767Y-8864785D01*
X68701168Y-9056335D01*
X68701162Y-9056343D01*
X68569535Y-9271137D01*
X68569532Y-9271143D01*
X68473127Y-9503886D01*
X68414316Y-9748853D01*
X68394551Y-10000000D01*
X54899346Y-10000000D01*
X60906442Y-3992904D01*
X60960957Y-3965129D01*
X61004559Y-3969621D01*
X61004820Y-3968563D01*
X61103586Y-3992906D01*
X61164015Y-4007800D01*
X61164018Y-4007800D01*
X61321982Y-4007800D01*
X61321985Y-4007800D01*
X61475365Y-3969996D01*
X61615240Y-3896583D01*
X61733483Y-3791830D01*
X61823220Y-3661823D01*
X61879237Y-3514118D01*
X61898278Y-3357300D01*
X61897420Y-3350236D01*
X61879237Y-3200483D01*
X61879237Y-3200482D01*
X61823220Y-3052777D01*
X61733483Y-2922770D01*
X61615240Y-2818017D01*
X61545302Y-2781310D01*
X61475364Y-2744603D01*
X61321987Y-2706800D01*
X61321985Y-2706800D01*
X61164015Y-2706800D01*
X61164012Y-2706800D01*
X61010635Y-2744603D01*
X60870758Y-2818018D01*
X60752518Y-2922768D01*
X60752514Y-2922773D01*
X60708866Y-2986006D01*
X60692300Y-3002980D01*
X60692586Y-3003266D01*
X60663104Y-3032746D01*
X60663105Y-3032747D01*
X51994904Y-11700948D01*
X51940387Y-11728725D01*
X51879955Y-11719154D01*
X51836690Y-11675889D01*
X51825900Y-11630944D01*
X51825900Y-10796755D01*
X51844807Y-10738564D01*
X51859246Y-10722657D01*
X51890883Y-10694630D01*
X51980620Y-10564623D01*
X52036637Y-10416918D01*
X52055678Y-10260100D01*
X52049530Y-10209470D01*
X52036637Y-10103283D01*
X52036637Y-10103282D01*
X51980620Y-9955577D01*
X51890883Y-9825570D01*
X51772640Y-9720817D01*
X51702702Y-9684110D01*
X51632764Y-9647403D01*
X51479387Y-9609600D01*
X51479385Y-9609600D01*
X51321415Y-9609600D01*
X51321412Y-9609600D01*
X51168035Y-9647403D01*
X51028158Y-9720818D01*
X50909915Y-9825571D01*
X50820180Y-9955576D01*
X50764163Y-10103282D01*
X50764162Y-10103283D01*
X50745122Y-10260098D01*
X50745122Y-10260101D01*
X50764162Y-10416916D01*
X50764163Y-10416917D01*
X50820180Y-10564623D01*
X50909915Y-10694628D01*
X50909916Y-10694629D01*
X50909917Y-10694630D01*
X50941549Y-10722653D01*
X50972567Y-10775391D01*
X50974900Y-10796755D01*
X50974900Y-11887044D01*
X50955993Y-11945235D01*
X50945904Y-11957048D01*
X46113248Y-16789704D01*
X46058731Y-16817481D01*
X46043244Y-16818700D01*
X45956512Y-16818700D01*
X45803135Y-16856503D01*
X45663258Y-16929918D01*
X45545015Y-17034671D01*
X45455280Y-17164676D01*
X45399263Y-17312382D01*
X45399262Y-17312383D01*
X45380222Y-17469198D01*
X45380222Y-17469201D01*
X45399262Y-17626016D01*
X45399263Y-17626018D01*
X45455280Y-17773723D01*
X45545015Y-17903728D01*
X45545016Y-17903729D01*
X45545017Y-17903730D01*
X45579970Y-17934695D01*
X45663256Y-18008480D01*
X45663257Y-18008480D01*
X45663260Y-18008483D01*
X45694313Y-18024781D01*
X45737049Y-18068562D01*
X45745890Y-18129105D01*
X45718307Y-18182443D01*
X42373848Y-21526904D01*
X42319331Y-21554681D01*
X42303844Y-21555900D01*
X40082809Y-21555900D01*
X40024618Y-21536993D01*
X40017160Y-21531003D01*
X39949748Y-21471282D01*
X39916940Y-21442217D01*
X39835307Y-21399372D01*
X39777064Y-21368803D01*
X39623687Y-21331000D01*
X39623685Y-21331000D01*
X39465715Y-21331000D01*
X39465712Y-21331000D01*
X39312335Y-21368803D01*
X39172458Y-21442218D01*
X39054215Y-21546971D01*
X38964480Y-21676976D01*
X38908463Y-21824682D01*
X38908462Y-21824683D01*
X38889422Y-21981498D01*
X38889422Y-21981501D01*
X38908462Y-22138316D01*
X38908463Y-22138318D01*
X38964480Y-22286023D01*
X39054215Y-22416028D01*
X39054216Y-22416029D01*
X39054217Y-22416030D01*
X39172460Y-22520783D01*
X39312335Y-22594196D01*
X39465715Y-22632000D01*
X39465718Y-22632000D01*
X39623682Y-22632000D01*
X39623685Y-22632000D01*
X39777065Y-22594196D01*
X39916940Y-22520783D01*
X40017386Y-22431796D01*
X40073479Y-22407362D01*
X40083034Y-22406900D01*
X42588494Y-22406900D01*
X42597975Y-22403818D01*
X42613322Y-22398831D01*
X42628428Y-22395203D01*
X42654226Y-22391119D01*
X42677505Y-22379256D01*
X42691838Y-22373320D01*
X42716681Y-22365249D01*
X42737807Y-22349898D01*
X42751050Y-22341783D01*
X42774320Y-22329928D01*
X42869628Y-22234620D01*
X42869628Y-22234619D01*
X49023560Y-16080685D01*
X49078075Y-16052910D01*
X49138507Y-16062481D01*
X49159208Y-16076586D01*
X49257860Y-16163983D01*
X49397735Y-16237396D01*
X49551115Y-16275200D01*
X49637844Y-16275200D01*
X49696035Y-16294107D01*
X49707848Y-16304196D01*
X51520684Y-18117032D01*
X51532152Y-18130793D01*
X51567803Y-18182443D01*
X51614315Y-18249828D01*
X51614316Y-18249829D01*
X51614317Y-18249830D01*
X51701149Y-18326756D01*
X51732168Y-18379495D01*
X51734500Y-18400858D01*
X51734500Y-22863205D01*
X51715593Y-22921396D01*
X51671265Y-22955519D01*
X51644983Y-22965701D01*
X51644975Y-22965705D01*
X51463699Y-23077946D01*
X51463692Y-23077952D01*
X51306135Y-23221586D01*
X51306131Y-23221589D01*
X51306128Y-23221593D01*
X51306125Y-23221597D01*
X51177635Y-23391743D01*
X51177630Y-23391752D01*
X51082596Y-23582608D01*
X51082595Y-23582611D01*
X51070655Y-23624574D01*
X51024244Y-23787688D01*
X51024244Y-23787690D01*
X51004571Y-24000000D01*
X51024244Y-24212310D01*
X51082595Y-24417389D01*
X51177634Y-24608255D01*
X51306128Y-24778407D01*
X51338282Y-24807719D01*
X51463692Y-24922047D01*
X51463699Y-24922053D01*
X51573222Y-24989867D01*
X51612743Y-25036576D01*
X51617262Y-25097594D01*
X51591109Y-25144042D01*
X51061199Y-25673952D01*
X50482280Y-26252871D01*
X50482280Y-26252872D01*
X50482279Y-26252871D01*
X50386972Y-26348178D01*
X50386970Y-26348182D01*
X50375114Y-26371450D01*
X50367000Y-26384691D01*
X50351650Y-26405818D01*
X50343581Y-26430653D01*
X50337638Y-26445001D01*
X50325781Y-26468272D01*
X50321696Y-26494065D01*
X50318071Y-26509165D01*
X50310000Y-26534006D01*
X50310000Y-36005100D01*
X50291093Y-36063291D01*
X50241593Y-36099255D01*
X50211000Y-36104100D01*
X34675710Y-36104100D01*
X34617519Y-36085193D01*
X34581555Y-36035693D01*
X34581555Y-35974507D01*
X34583144Y-35969993D01*
X34590037Y-35951818D01*
X34609078Y-35795000D01*
X34605638Y-35766670D01*
X34617393Y-35706627D01*
X34633908Y-35684738D01*
X44864554Y-25454094D01*
X44888528Y-25430120D01*
X44900384Y-25406851D01*
X44908492Y-25393618D01*
X44923850Y-25372481D01*
X44931919Y-25347643D01*
X44937868Y-25333283D01*
X44949718Y-25310027D01*
X44949719Y-25310026D01*
X44953804Y-25284228D01*
X44957429Y-25269128D01*
X44965500Y-25244293D01*
X44965500Y-25136794D01*
X44984407Y-25078603D01*
X45028737Y-25044479D01*
X45055019Y-25034298D01*
X45236302Y-24922052D01*
X45393872Y-24778407D01*
X45522366Y-24608255D01*
X45617405Y-24417389D01*
X45675756Y-24212310D01*
X45695429Y-24000000D01*
X45924571Y-24000000D01*
X45944244Y-24212310D01*
X46002595Y-24417389D01*
X46097634Y-24608255D01*
X46226128Y-24778407D01*
X46258282Y-24807719D01*
X46383692Y-24922047D01*
X46383699Y-24922053D01*
X46447316Y-24961443D01*
X46564981Y-25034298D01*
X46763802Y-25111321D01*
X46973390Y-25150500D01*
X47186610Y-25150500D01*
X47396198Y-25111321D01*
X47595019Y-25034298D01*
X47776302Y-24922052D01*
X47933872Y-24778407D01*
X48062366Y-24608255D01*
X48157405Y-24417389D01*
X48215756Y-24212310D01*
X48235429Y-24000000D01*
X48215756Y-23787690D01*
X48157405Y-23582611D01*
X48062366Y-23391745D01*
X47933872Y-23221593D01*
X47879623Y-23172139D01*
X47776307Y-23077952D01*
X47776300Y-23077946D01*
X47595024Y-22965705D01*
X47595019Y-22965702D01*
X47480651Y-22921396D01*
X47396198Y-22888679D01*
X47396197Y-22888678D01*
X47396195Y-22888678D01*
X47186610Y-22849500D01*
X46973390Y-22849500D01*
X46763804Y-22888678D01*
X46564980Y-22965702D01*
X46564975Y-22965705D01*
X46383699Y-23077946D01*
X46383692Y-23077952D01*
X46226135Y-23221586D01*
X46226131Y-23221589D01*
X46226128Y-23221593D01*
X46226125Y-23221597D01*
X46097635Y-23391743D01*
X46097630Y-23391752D01*
X46002596Y-23582608D01*
X46002595Y-23582611D01*
X45990655Y-23624574D01*
X45944244Y-23787688D01*
X45944244Y-23787690D01*
X45924571Y-24000000D01*
X45695429Y-24000000D01*
X45675756Y-23787690D01*
X45617405Y-23582611D01*
X45522366Y-23391745D01*
X45393872Y-23221593D01*
X45339623Y-23172139D01*
X45236307Y-23077952D01*
X45236300Y-23077946D01*
X45055024Y-22965705D01*
X45055019Y-22965702D01*
X44940651Y-22921396D01*
X44856198Y-22888679D01*
X44856197Y-22888678D01*
X44856195Y-22888678D01*
X44646610Y-22849500D01*
X44433390Y-22849500D01*
X44223804Y-22888678D01*
X44024980Y-22965702D01*
X44024975Y-22965705D01*
X43843699Y-23077946D01*
X43843692Y-23077952D01*
X43686135Y-23221586D01*
X43686131Y-23221589D01*
X43686128Y-23221593D01*
X43686125Y-23221597D01*
X43557635Y-23391743D01*
X43557630Y-23391752D01*
X43462596Y-23582608D01*
X43462595Y-23582611D01*
X43450655Y-23624574D01*
X43404244Y-23787688D01*
X43404244Y-23787690D01*
X43384571Y-24000000D01*
X43404244Y-24212310D01*
X43462595Y-24417389D01*
X43557634Y-24608255D01*
X43686128Y-24778407D01*
X43718282Y-24807719D01*
X43843692Y-24922047D01*
X43843694Y-24922049D01*
X43843698Y-24922052D01*
X43953222Y-24989867D01*
X43992743Y-25036574D01*
X43997262Y-25097592D01*
X43971109Y-25144041D01*
X42594504Y-26520647D01*
X42539987Y-26548424D01*
X42479555Y-26538853D01*
X42436290Y-26495588D01*
X42425500Y-26450643D01*
X42425500Y-25136794D01*
X42444407Y-25078603D01*
X42488737Y-25044479D01*
X42515019Y-25034298D01*
X42696302Y-24922052D01*
X42853872Y-24778407D01*
X42982366Y-24608255D01*
X43077405Y-24417389D01*
X43135756Y-24212310D01*
X43155429Y-24000000D01*
X43135756Y-23787690D01*
X43077405Y-23582611D01*
X42982366Y-23391745D01*
X42853872Y-23221593D01*
X42799623Y-23172139D01*
X42696307Y-23077952D01*
X42696300Y-23077946D01*
X42515024Y-22965705D01*
X42515019Y-22965702D01*
X42400651Y-22921396D01*
X42316198Y-22888679D01*
X42316197Y-22888678D01*
X42316195Y-22888678D01*
X42106610Y-22849500D01*
X41893390Y-22849500D01*
X41683804Y-22888678D01*
X41484980Y-22965702D01*
X41484975Y-22965705D01*
X41303699Y-23077946D01*
X41303692Y-23077952D01*
X41146135Y-23221586D01*
X41146131Y-23221589D01*
X41146128Y-23221593D01*
X41146125Y-23221597D01*
X41017635Y-23391743D01*
X41017630Y-23391752D01*
X40922596Y-23582608D01*
X40922595Y-23582611D01*
X40910655Y-23624574D01*
X40864244Y-23787688D01*
X40864244Y-23787690D01*
X40844571Y-24000000D01*
X40864244Y-24212310D01*
X40922595Y-24417389D01*
X41017634Y-24608255D01*
X41146128Y-24778407D01*
X41178282Y-24807719D01*
X41303692Y-24922047D01*
X41303699Y-24922053D01*
X41484977Y-25034296D01*
X41484978Y-25034296D01*
X41484981Y-25034298D01*
X41511262Y-25044479D01*
X41558693Y-25083129D01*
X41574500Y-25136794D01*
X41574500Y-26664743D01*
X41555593Y-26722934D01*
X41545504Y-26734747D01*
X39452528Y-28827722D01*
X39398011Y-28855499D01*
X39337579Y-28845928D01*
X39301048Y-28813956D01*
X39246184Y-28734471D01*
X39211951Y-28704143D01*
X39127940Y-28629717D01*
X39014730Y-28570299D01*
X38988064Y-28556303D01*
X38834687Y-28518500D01*
X38834685Y-28518500D01*
X38747956Y-28518500D01*
X38689765Y-28499593D01*
X38677952Y-28489504D01*
X36043796Y-25855348D01*
X36016019Y-25800831D01*
X36014800Y-25785344D01*
X36014800Y-24955829D01*
X36033707Y-24897638D01*
X36083207Y-24861674D01*
X36144393Y-24861674D01*
X36180494Y-24882666D01*
X36211646Y-24911065D01*
X36223698Y-24922052D01*
X36223699Y-24922053D01*
X36287316Y-24961443D01*
X36404981Y-25034298D01*
X36603802Y-25111321D01*
X36813390Y-25150500D01*
X37026610Y-25150500D01*
X37236198Y-25111321D01*
X37435019Y-25034298D01*
X37616302Y-24922052D01*
X37773872Y-24778407D01*
X37902366Y-24608255D01*
X37997405Y-24417389D01*
X38055756Y-24212310D01*
X38075429Y-24000000D01*
X38304571Y-24000000D01*
X38324244Y-24212310D01*
X38382595Y-24417389D01*
X38477634Y-24608255D01*
X38606128Y-24778407D01*
X38638282Y-24807719D01*
X38763692Y-24922047D01*
X38763699Y-24922053D01*
X38827316Y-24961443D01*
X38944981Y-25034298D01*
X39143802Y-25111321D01*
X39353390Y-25150500D01*
X39566610Y-25150500D01*
X39776198Y-25111321D01*
X39975019Y-25034298D01*
X40156302Y-24922052D01*
X40313872Y-24778407D01*
X40442366Y-24608255D01*
X40537405Y-24417389D01*
X40595756Y-24212310D01*
X40615429Y-24000000D01*
X40595756Y-23787690D01*
X40537405Y-23582611D01*
X40442366Y-23391745D01*
X40313872Y-23221593D01*
X40259623Y-23172139D01*
X40156307Y-23077952D01*
X40156300Y-23077946D01*
X39975024Y-22965705D01*
X39975019Y-22965702D01*
X39860651Y-22921396D01*
X39776198Y-22888679D01*
X39776197Y-22888678D01*
X39776195Y-22888678D01*
X39566610Y-22849500D01*
X39353390Y-22849500D01*
X39143804Y-22888678D01*
X38944980Y-22965702D01*
X38944975Y-22965705D01*
X38763699Y-23077946D01*
X38763692Y-23077952D01*
X38606135Y-23221586D01*
X38606131Y-23221589D01*
X38606128Y-23221593D01*
X38606125Y-23221597D01*
X38477635Y-23391743D01*
X38477630Y-23391752D01*
X38382596Y-23582608D01*
X38382595Y-23582611D01*
X38370655Y-23624574D01*
X38324244Y-23787688D01*
X38324244Y-23787690D01*
X38304571Y-24000000D01*
X38075429Y-24000000D01*
X38055756Y-23787690D01*
X37997405Y-23582611D01*
X37902366Y-23391745D01*
X37773872Y-23221593D01*
X37719623Y-23172139D01*
X37616307Y-23077952D01*
X37616300Y-23077946D01*
X37435024Y-22965705D01*
X37435019Y-22965702D01*
X37320651Y-22921396D01*
X37236198Y-22888679D01*
X37236197Y-22888678D01*
X37236195Y-22888678D01*
X37026610Y-22849500D01*
X36813390Y-22849500D01*
X36603804Y-22888678D01*
X36404980Y-22965702D01*
X36404975Y-22965705D01*
X36223699Y-23077946D01*
X36223698Y-23077947D01*
X36180496Y-23117332D01*
X36124755Y-23142562D01*
X36064829Y-23130210D01*
X36023609Y-23084993D01*
X36014800Y-23044170D01*
X36014800Y-22593506D01*
X36006731Y-22568675D01*
X36003103Y-22553565D01*
X35999019Y-22527774D01*
X35999018Y-22527772D01*
X35987162Y-22504504D01*
X35981217Y-22490153D01*
X35973149Y-22465319D01*
X35957794Y-22444184D01*
X35949683Y-22430947D01*
X35937828Y-22407680D01*
X35937827Y-22407679D01*
X35937827Y-22407678D01*
X35842520Y-22312371D01*
X35842520Y-22312372D01*
X25530148Y-12000000D01*
X31394551Y-12000000D01*
X31414316Y-12251146D01*
X31473127Y-12496113D01*
X31569532Y-12728856D01*
X31569535Y-12728862D01*
X31701162Y-12943656D01*
X31701168Y-12943664D01*
X31788300Y-13045683D01*
X31864776Y-13135224D01*
X31864782Y-13135229D01*
X31864785Y-13135232D01*
X31943546Y-13202500D01*
X32056341Y-13298836D01*
X32056343Y-13298837D01*
X32271137Y-13430464D01*
X32271141Y-13430466D01*
X32480053Y-13517000D01*
X32503887Y-13526872D01*
X32503889Y-13526873D01*
X32748852Y-13585683D01*
X32937118Y-13600500D01*
X32937125Y-13600500D01*
X33062875Y-13600500D01*
X33062882Y-13600500D01*
X33251148Y-13585683D01*
X33496111Y-13526873D01*
X33728859Y-13430466D01*
X33943659Y-13298836D01*
X34135224Y-13135224D01*
X34298836Y-12943659D01*
X34430466Y-12728859D01*
X34526873Y-12496111D01*
X34585683Y-12251148D01*
X34605449Y-12000000D01*
X34585683Y-11748852D01*
X34526873Y-11503889D01*
X34496460Y-11430466D01*
X34430467Y-11271143D01*
X34430464Y-11271137D01*
X34298837Y-11056343D01*
X34298836Y-11056341D01*
X34202601Y-10943664D01*
X34135232Y-10864785D01*
X34135229Y-10864782D01*
X34135224Y-10864776D01*
X34135217Y-10864770D01*
X34135214Y-10864767D01*
X33943664Y-10701168D01*
X33943656Y-10701162D01*
X33728862Y-10569535D01*
X33728856Y-10569532D01*
X33496112Y-10473127D01*
X33496113Y-10473127D01*
X33251146Y-10414316D01*
X33137306Y-10405357D01*
X33062882Y-10399500D01*
X32937118Y-10399500D01*
X32866671Y-10405044D01*
X32748853Y-10414316D01*
X32503886Y-10473127D01*
X32271143Y-10569532D01*
X32271137Y-10569535D01*
X32056343Y-10701162D01*
X32056335Y-10701168D01*
X31864785Y-10864767D01*
X31864767Y-10864785D01*
X31701168Y-11056335D01*
X31701162Y-11056343D01*
X31569535Y-11271137D01*
X31569532Y-11271143D01*
X31473127Y-11503886D01*
X31414316Y-11748853D01*
X31394551Y-12000000D01*
X25530148Y-12000000D01*
X23763594Y-10233446D01*
X23763594Y-10233445D01*
X23739620Y-10209471D01*
X23739618Y-10209470D01*
X23716350Y-10197615D01*
X23703105Y-10189499D01*
X23681981Y-10174151D01*
X23681979Y-10174150D01*
X23657141Y-10166079D01*
X23642791Y-10160135D01*
X23619526Y-10148281D01*
X23593729Y-10144195D01*
X23578629Y-10140570D01*
X23553793Y-10132500D01*
X23519888Y-10132500D01*
X15835393Y-10132500D01*
X15700607Y-10132500D01*
X15700606Y-10132500D01*
X15675765Y-10140571D01*
X15660665Y-10144196D01*
X15634872Y-10148281D01*
X15611601Y-10160138D01*
X15597253Y-10166081D01*
X15572418Y-10174150D01*
X15551291Y-10189500D01*
X15538050Y-10197614D01*
X15514782Y-10209470D01*
X15514778Y-10209473D01*
X15490805Y-10233445D01*
X15490806Y-10233446D01*
X11202280Y-14521972D01*
X11202278Y-14521973D01*
X11170887Y-14553363D01*
X11146894Y-14571017D01*
X11083263Y-14604414D01*
X11083259Y-14604417D01*
X10965015Y-14709171D01*
X10875280Y-14839176D01*
X10819263Y-14986882D01*
X10819262Y-14986883D01*
X10800222Y-15143698D01*
X10800222Y-15143701D01*
X10819262Y-15300516D01*
X10819263Y-15300518D01*
X10828555Y-15325018D01*
X10875280Y-15448223D01*
X10965015Y-15578228D01*
X10965016Y-15578229D01*
X10965017Y-15578230D01*
X11083260Y-15682983D01*
X11223135Y-15756396D01*
X11376515Y-15794200D01*
X11376518Y-15794200D01*
X11534482Y-15794200D01*
X11534485Y-15794200D01*
X11687865Y-15756396D01*
X11827740Y-15682983D01*
X11945983Y-15578230D01*
X12035720Y-15448223D01*
X12091737Y-15300518D01*
X12110778Y-15143700D01*
X12091737Y-14986882D01*
X12085201Y-14969648D01*
X12072950Y-14937344D01*
X12069993Y-14876230D01*
X12095510Y-14832236D01*
X15915252Y-11012496D01*
X15969769Y-10984719D01*
X15985256Y-10983500D01*
X22469500Y-10983500D01*
X22527691Y-11002407D01*
X22563655Y-11051907D01*
X22567778Y-11094433D01*
X22550722Y-11234897D01*
X22550722Y-11240887D01*
X22549513Y-11240887D01*
X22538949Y-11294831D01*
X22522433Y-11316717D01*
X14666680Y-19172472D01*
X14666679Y-19172471D01*
X14571372Y-19267778D01*
X14571370Y-19267782D01*
X14559514Y-19291050D01*
X14551400Y-19304291D01*
X14536050Y-19325418D01*
X14527981Y-19350253D01*
X14522038Y-19364601D01*
X14510181Y-19387872D01*
X14506096Y-19413665D01*
X14502471Y-19428765D01*
X14494400Y-19453606D01*
X14494400Y-24937344D01*
X14475493Y-24995535D01*
X14425993Y-25031499D01*
X14364807Y-25031499D01*
X14325396Y-25007348D01*
X10093266Y-20775218D01*
X10065489Y-20720701D01*
X10065104Y-20699388D01*
X10064978Y-20699388D01*
X10064978Y-20693398D01*
X10045937Y-20536583D01*
X10045937Y-20536582D01*
X9989920Y-20388877D01*
X9945051Y-20323873D01*
X9900184Y-20258871D01*
X9833616Y-20199897D01*
X9781940Y-20154117D01*
X9712002Y-20117410D01*
X9642064Y-20080703D01*
X9488687Y-20042900D01*
X9488685Y-20042900D01*
X9330715Y-20042900D01*
X9330712Y-20042900D01*
X9177335Y-20080703D01*
X9037458Y-20154118D01*
X8919215Y-20258871D01*
X8829480Y-20388876D01*
X8773463Y-20536582D01*
X8773462Y-20536583D01*
X8754422Y-20693398D01*
X8754422Y-20693401D01*
X8773463Y-20850218D01*
X8774619Y-20854908D01*
X8770187Y-20915932D01*
X8730732Y-20962697D01*
X8678496Y-20977600D01*
X8668915Y-20977600D01*
X8618589Y-20990003D01*
X8557565Y-20985571D01*
X8510801Y-20946115D01*
X8495899Y-20893880D01*
X8495899Y-13952000D01*
X8514806Y-13893809D01*
X8564306Y-13857845D01*
X8594899Y-13853000D01*
X8656282Y-13853000D01*
X8656285Y-13853000D01*
X8809665Y-13815196D01*
X8949540Y-13741783D01*
X9067783Y-13637030D01*
X9157520Y-13507023D01*
X9213537Y-13359318D01*
X9232578Y-13202500D01*
X9213537Y-13045682D01*
X9157520Y-12897977D01*
X9067783Y-12767970D01*
X8949540Y-12663217D01*
X8879602Y-12626510D01*
X8809664Y-12589803D01*
X8656287Y-12552000D01*
X8656285Y-12552000D01*
X8498315Y-12552000D01*
X8498312Y-12552000D01*
X8344935Y-12589803D01*
X8205058Y-12663218D01*
X8086815Y-12767971D01*
X7997080Y-12897976D01*
X7941063Y-13045682D01*
X7941062Y-13045683D01*
X7922022Y-13202497D01*
X7922022Y-13208487D01*
X7920813Y-13208487D01*
X7910250Y-13262429D01*
X7893733Y-13284315D01*
X7817179Y-13360871D01*
X7721872Y-13456177D01*
X7721869Y-13456182D01*
X7710012Y-13479451D01*
X7701902Y-13492686D01*
X7686550Y-13513818D01*
X7686547Y-13513824D01*
X7678480Y-13538653D01*
X7672537Y-13553001D01*
X7660680Y-13576272D01*
X7656595Y-13602065D01*
X7652970Y-13617165D01*
X7646516Y-13637030D01*
X7644899Y-13642007D01*
X7644899Y-13675912D01*
X7644899Y-43637507D01*
X7644899Y-43772293D01*
X7652968Y-43797125D01*
X7656594Y-43812229D01*
X7660680Y-43838026D01*
X7660680Y-43838027D01*
X7672534Y-43861291D01*
X7678478Y-43875641D01*
X7686548Y-43900476D01*
X7686550Y-43900481D01*
X7695781Y-43913187D01*
X7701900Y-43921609D01*
X7710014Y-43934850D01*
X7721871Y-43958120D01*
X7817179Y-44053428D01*
X7817181Y-44053429D01*
X9701833Y-45938081D01*
X9729610Y-45992598D01*
X9729997Y-46013913D01*
X9730122Y-46013913D01*
X9730122Y-46019902D01*
X9749162Y-46176716D01*
X9749163Y-46176717D01*
X9805180Y-46324423D01*
X9894915Y-46454428D01*
X9894916Y-46454429D01*
X9894917Y-46454430D01*
X10013160Y-46559183D01*
X10153035Y-46632596D01*
X10306415Y-46670400D01*
X10306418Y-46670400D01*
X10464382Y-46670400D01*
X10464385Y-46670400D01*
X10617765Y-46632596D01*
X10757640Y-46559183D01*
X10875883Y-46454430D01*
X10965620Y-46324423D01*
X11021637Y-46176718D01*
X11040678Y-46019900D01*
X11030743Y-45938081D01*
X11021637Y-45863083D01*
X11021637Y-45863082D01*
X10965620Y-45715377D01*
X10920751Y-45650373D01*
X10875884Y-45585371D01*
X10757641Y-45480618D01*
X10757640Y-45480617D01*
X10687702Y-45443910D01*
X10617764Y-45407203D01*
X10464387Y-45369400D01*
X10464385Y-45369400D01*
X10377655Y-45369400D01*
X10319464Y-45350493D01*
X10307651Y-45340404D01*
X8524895Y-43557648D01*
X8497118Y-43503131D01*
X8495899Y-43487644D01*
X8495899Y-37959724D01*
X8514806Y-37901533D01*
X8564306Y-37865569D01*
X8625492Y-37865569D01*
X8674992Y-37901533D01*
X8679301Y-37907983D01*
X8701164Y-37943659D01*
X8864776Y-38135224D01*
X9056341Y-38298836D01*
X9056343Y-38298837D01*
X9271137Y-38430464D01*
X9271143Y-38430467D01*
X9503887Y-38526872D01*
X9503889Y-38526873D01*
X9748852Y-38585683D01*
X9937118Y-38600500D01*
X9937125Y-38600500D01*
X10062875Y-38600500D01*
X10062882Y-38600500D01*
X10251148Y-38585683D01*
X10496111Y-38526873D01*
X10728859Y-38430466D01*
X10943659Y-38298836D01*
X11135224Y-38135224D01*
X11298836Y-37943659D01*
X11384489Y-37803887D01*
X11431014Y-37764150D01*
X11492011Y-37759349D01*
X11544180Y-37791319D01*
X11567595Y-37847847D01*
X11567900Y-37855614D01*
X11567900Y-47979425D01*
X11548993Y-48037616D01*
X11499493Y-48073580D01*
X11492601Y-48075546D01*
X11489936Y-48076203D01*
X11350058Y-48149618D01*
X11231815Y-48254371D01*
X11142079Y-48384378D01*
X11142077Y-48384381D01*
X11135066Y-48402870D01*
X11096753Y-48450575D01*
X11037717Y-48466648D01*
X10980507Y-48444952D01*
X10946977Y-48393772D01*
X10943500Y-48367764D01*
X10943500Y-48074706D01*
X10935431Y-48049875D01*
X10931803Y-48034765D01*
X10929464Y-48019996D01*
X10927719Y-48008974D01*
X10915862Y-47985704D01*
X10909917Y-47971353D01*
X10901849Y-47946519D01*
X10886494Y-47925384D01*
X10878383Y-47912147D01*
X10870278Y-47896240D01*
X10866528Y-47888880D01*
X10866527Y-47888879D01*
X10866527Y-47888878D01*
X10771220Y-47793571D01*
X10771220Y-47793572D01*
X6862096Y-43884448D01*
X6834319Y-43829931D01*
X6833100Y-43814444D01*
X6833100Y-14726006D01*
X6825031Y-14701175D01*
X6821403Y-14686065D01*
X6817319Y-14660274D01*
X6805462Y-14637004D01*
X6799517Y-14622653D01*
X6791449Y-14597819D01*
X6776094Y-14576684D01*
X6767983Y-14563447D01*
X6763936Y-14555504D01*
X6756128Y-14540180D01*
X6756127Y-14540179D01*
X6756127Y-14540178D01*
X6660820Y-14444871D01*
X6660820Y-14444872D01*
X6465266Y-14249318D01*
X6437489Y-14194801D01*
X6437104Y-14173488D01*
X6436978Y-14173488D01*
X6436978Y-14167498D01*
X6417937Y-14010683D01*
X6417937Y-14010682D01*
X6361920Y-13862977D01*
X6272183Y-13732970D01*
X6153940Y-13628217D01*
X6072899Y-13585683D01*
X6014064Y-13554803D01*
X5860687Y-13517000D01*
X5860685Y-13517000D01*
X5702715Y-13517000D01*
X5702712Y-13517000D01*
X5549335Y-13554803D01*
X5409458Y-13628218D01*
X5291215Y-13732971D01*
X5201480Y-13862976D01*
X5145463Y-14010682D01*
X5145462Y-14010683D01*
X5126422Y-14167498D01*
X5126422Y-14167501D01*
X5145462Y-14324316D01*
X5145463Y-14324317D01*
X5201480Y-14472023D01*
X5291215Y-14602028D01*
X5291216Y-14602029D01*
X5291217Y-14602030D01*
X5409460Y-14706783D01*
X5549335Y-14780196D01*
X5702715Y-14818000D01*
X5789444Y-14818000D01*
X5847635Y-14836907D01*
X5859448Y-14846996D01*
X5953104Y-14940652D01*
X5980881Y-14995169D01*
X5982100Y-15010656D01*
X5982100Y-17805118D01*
X5963193Y-17863309D01*
X5913693Y-17899273D01*
X5859408Y-17901241D01*
X5763087Y-17877500D01*
X5763085Y-17877500D01*
X5605115Y-17877500D01*
X5605112Y-17877500D01*
X5451735Y-17915303D01*
X5311858Y-17988718D01*
X5193615Y-18093471D01*
X5103880Y-18223476D01*
X5047863Y-18371182D01*
X5047862Y-18371183D01*
X5028822Y-18527998D01*
X5028822Y-18528001D01*
X250500Y-18528001D01*
X250500Y-6144768D01*
X269407Y-6086577D01*
X279496Y-6074764D01*
X675264Y-5678996D01*
X729781Y-5651219D01*
X745268Y-5650000D01*
X39999999Y-5650000D01*
X40000000Y-5650000D01*
X40000000Y-3200000D01*
X51529534Y-3200000D01*
X51549313Y-3350236D01*
X51607302Y-3490233D01*
X51699549Y-3610451D01*
X51819767Y-3702698D01*
X51959764Y-3760687D01*
X52072280Y-3775500D01*
X52072281Y-3775500D01*
X52147719Y-3775500D01*
X52147720Y-3775500D01*
X52260236Y-3760687D01*
X52400233Y-3702698D01*
X52520451Y-3610451D01*
X52612698Y-3490233D01*
X52670687Y-3350236D01*
X52690466Y-3200000D01*
X57309534Y-3200000D01*
X57329313Y-3350236D01*
X57387302Y-3490233D01*
X57479549Y-3610451D01*
X57599767Y-3702698D01*
X57739764Y-3760687D01*
X57852280Y-3775500D01*
X57852281Y-3775500D01*
X57927719Y-3775500D01*
X57927720Y-3775500D01*
X58040236Y-3760687D01*
X58180233Y-3702698D01*
X58300451Y-3610451D01*
X58392698Y-3490233D01*
X58450687Y-3350236D01*
X58470466Y-3200000D01*
X58450687Y-3049764D01*
X58392698Y-2909767D01*
X58300451Y-2789549D01*
X58180233Y-2697302D01*
X58040236Y-2639313D01*
X58040234Y-2639312D01*
X58040232Y-2639312D01*
X57927720Y-2624500D01*
X57852280Y-2624500D01*
X57852279Y-2624500D01*
X57739767Y-2639312D01*
X57739761Y-2639314D01*
X57599768Y-2697301D01*
X57479551Y-2789547D01*
X57479547Y-2789551D01*
X57387301Y-2909768D01*
X57329314Y-3049761D01*
X57329312Y-3049767D01*
X57328916Y-3052776D01*
X57309534Y-3200000D01*
X52690466Y-3200000D01*
X52670687Y-3049764D01*
X52612698Y-2909767D01*
X52520451Y-2789549D01*
X52400233Y-2697302D01*
X52260236Y-2639313D01*
X52260234Y-2639312D01*
X52260232Y-2639312D01*
X52147720Y-2624500D01*
X52072280Y-2624500D01*
X52072279Y-2624500D01*
X51959767Y-2639312D01*
X51959761Y-2639314D01*
X51819768Y-2697301D01*
X51699551Y-2789547D01*
X51699547Y-2789551D01*
X51607301Y-2909768D01*
X51549314Y-3049761D01*
X51549312Y-3049767D01*
X51548916Y-3052776D01*
X51529534Y-3200000D01*
X40000000Y-3200000D01*
X40000000Y-349500D01*
X40018907Y-291309D01*
X40068407Y-255345D01*
X40099000Y-250500D01*
X49077920Y-250500D01*
X49136111Y-269407D01*
G37*
%TD.AperFunction*%
%TD*%
M02*
