%TF.GenerationSoftware,KiCad,Pcbnew,7.0.11+dfsg-1build4*%
%TF.CreationDate,2026-07-30T22:50:34+00:00*%
%TF.ProjectId,model02,6d6f6465-6c30-4322-9e6b-696361645f70,rev?*%
%TF.SameCoordinates,Original*%
%TF.FileFunction,Soldermask,Top*%
%TF.FilePolarity,Negative*%
%FSLAX46Y46*%
G04 Gerber Fmt 4.6, Leading zero omitted, Abs format (unit mm)*
G04 Created by KiCad (PCBNEW 7.0.11+dfsg-1build4) date 2026-07-30 22:50:34*
%MOMM*%
%LPD*%
G01*
G04 APERTURE LIST*
G04 Aperture macros list*
%AMRoundRect*
0 Rectangle with rounded corners*
0 $1 Rounding radius*
0 $2 $3 $4 $5 $6 $7 $8 $9 X,Y pos of 4 corners*
0 Add a 4 corners polygon primitive as box body*
4,1,4,$2,$3,$4,$5,$6,$7,$8,$9,$2,$3,0*
0 Add four circle primitives for the rounded corners*
1,1,$1+$1,$2,$3*
1,1,$1+$1,$4,$5*
1,1,$1+$1,$6,$7*
1,1,$1+$1,$8,$9*
0 Add four rect primitives between the rounded corners*
20,1,$1+$1,$2,$3,$4,$5,0*
20,1,$1+$1,$4,$5,$6,$7,0*
20,1,$1+$1,$6,$7,$8,$9,0*
20,1,$1+$1,$8,$9,$2,$3,0*%
G04 Aperture macros list end*
%ADD10RoundRect,0.225000X-0.225000X-0.250000X0.225000X-0.250000X0.225000X0.250000X-0.225000X0.250000X0*%
%ADD11RoundRect,0.250000X-1.000000X-0.900000X1.000000X-0.900000X1.000000X0.900000X-1.000000X0.900000X0*%
%ADD12RoundRect,0.250000X-0.250000X-0.475000X0.250000X-0.475000X0.250000X0.475000X-0.250000X0.475000X0*%
%ADD13RoundRect,0.225000X0.250000X-0.225000X0.250000X0.225000X-0.250000X0.225000X-0.250000X-0.225000X0*%
%ADD14C,2.700000*%
%ADD15R,0.700000X0.700000*%
%ADD16RoundRect,0.200000X-0.200000X-0.275000X0.200000X-0.275000X0.200000X0.275000X-0.200000X0.275000X0*%
%ADD17RoundRect,0.250000X-0.312500X-1.450000X0.312500X-1.450000X0.312500X1.450000X-0.312500X1.450000X0*%
%ADD18R,1.700000X1.000000*%
%ADD19R,1.700000X1.700000*%
%ADD20O,1.700000X1.700000*%
%ADD21RoundRect,0.150000X-0.512500X-0.150000X0.512500X-0.150000X0.512500X0.150000X-0.512500X0.150000X0*%
%ADD22C,0.650000*%
%ADD23R,0.600000X1.450000*%
%ADD24R,0.300000X1.450000*%
%ADD25O,1.000000X2.100000*%
%ADD26O,1.000000X1.600000*%
%ADD27RoundRect,0.150000X0.150000X-0.875000X0.150000X0.875000X-0.150000X0.875000X-0.150000X-0.875000X0*%
%ADD28RoundRect,0.062500X-0.337500X-0.062500X0.337500X-0.062500X0.337500X0.062500X-0.337500X0.062500X0*%
%ADD29RoundRect,0.062500X-0.062500X-0.337500X0.062500X-0.337500X0.062500X0.337500X-0.062500X0.337500X0*%
%ADD30R,3.350000X3.350000*%
%ADD31RoundRect,0.200000X0.275000X-0.200000X0.275000X0.200000X-0.275000X0.200000X-0.275000X-0.200000X0*%
%ADD32C,2.300000*%
%ADD33R,1.500000X1.500000*%
%ADD34C,1.500000*%
%ADD35R,2.000000X4.500000*%
%ADD36R,1.500000X0.900000*%
%ADD37R,0.900000X1.500000*%
%ADD38C,0.600000*%
%ADD39R,3.900000X3.900000*%
%ADD40RoundRect,0.250000X-0.375000X-1.075000X0.375000X-1.075000X0.375000X1.075000X-0.375000X1.075000X0*%
%ADD41RoundRect,0.250000X-1.500000X-0.550000X1.500000X-0.550000X1.500000X0.550000X-1.500000X0.550000X0*%
G04 APERTURE END LIST*
D10*
%TO.C,C12*%
X26725000Y-16500000D03*
X28275000Y-16500000D03*
%TD*%
%TO.C,C8*%
X51225000Y-37000000D03*
X52775000Y-37000000D03*
%TD*%
D11*
%TO.C,D1*%
X35850000Y-50500000D03*
X40150000Y-50500000D03*
%TD*%
D12*
%TO.C,C6*%
X27050000Y-37000000D03*
X28950000Y-37000000D03*
%TD*%
%TO.C,C3*%
X67050000Y-20500000D03*
X68950000Y-20500000D03*
%TD*%
D10*
%TO.C,C14*%
X14025000Y-52000000D03*
X15575000Y-52000000D03*
%TD*%
D13*
%TO.C,C9*%
X6000000Y-32275000D03*
X6000000Y-30725000D03*
%TD*%
D14*
%TO.C,H1*%
X33000000Y-12000000D03*
%TD*%
D15*
%TO.C,Y1*%
X60915000Y-52550000D03*
X60915000Y-51450000D03*
X59085000Y-51450000D03*
X59085000Y-52550000D03*
%TD*%
D14*
%TO.C,H3*%
X10000000Y-37000000D03*
%TD*%
D16*
%TO.C,RP2*%
X9175000Y-33000000D03*
X10825000Y-33000000D03*
%TD*%
%TO.C,RP1*%
X9175000Y-30000000D03*
X10825000Y-30000000D03*
%TD*%
D10*
%TO.C,C21*%
X67725000Y-39000000D03*
X69275000Y-39000000D03*
%TD*%
D17*
%TO.C,F1*%
X52862500Y-12500000D03*
X57137500Y-12500000D03*
%TD*%
D18*
%TO.C,SW2*%
X66850000Y-1800000D03*
X73150000Y-1800000D03*
X66850000Y-5600000D03*
X73150000Y-5600000D03*
%TD*%
D19*
%TO.C,J3*%
X29300000Y-24000000D03*
D20*
X31840000Y-24000000D03*
X34380000Y-24000000D03*
X36920000Y-24000000D03*
X39460000Y-24000000D03*
X42000000Y-24000000D03*
X44540000Y-24000000D03*
X47080000Y-24000000D03*
X49620000Y-24000000D03*
X52160000Y-24000000D03*
X54700000Y-24000000D03*
%TD*%
D16*
%TO.C,R6*%
X31175000Y-37000000D03*
X32825000Y-37000000D03*
%TD*%
D21*
%TO.C,U5*%
X45862500Y-14550000D03*
X45862500Y-15500000D03*
X45862500Y-16450000D03*
X48137500Y-16450000D03*
X48137500Y-15500000D03*
X48137500Y-14550000D03*
%TD*%
D22*
%TO.C,J2*%
X52110000Y-3200000D03*
X57890000Y-3200000D03*
D23*
X51750000Y-1755000D03*
X52550000Y-1755000D03*
D24*
X53750000Y-1755000D03*
X54750000Y-1755000D03*
X55250000Y-1755000D03*
X56250000Y-1755000D03*
D23*
X57450000Y-1755000D03*
X58250000Y-1755000D03*
X58250000Y-1755000D03*
X57450000Y-1755000D03*
D24*
X56750000Y-1755000D03*
X55750000Y-1755000D03*
X54250000Y-1755000D03*
X53250000Y-1755000D03*
D23*
X52550000Y-1755000D03*
X51750000Y-1755000D03*
D25*
X50680000Y-2670000D03*
D26*
X50680000Y-6850000D03*
D25*
X59320000Y-2670000D03*
D26*
X59320000Y-6850000D03*
%TD*%
D27*
%TO.C,U3*%
X55420000Y-49150000D03*
X56690000Y-49150000D03*
X57960000Y-49150000D03*
X59230000Y-49150000D03*
X60500000Y-49150000D03*
X61770000Y-49150000D03*
X63040000Y-49150000D03*
X64310000Y-49150000D03*
X65580000Y-49150000D03*
X65580000Y-39850000D03*
X64310000Y-39850000D03*
X63040000Y-39850000D03*
X61770000Y-39850000D03*
X60500000Y-39850000D03*
X59230000Y-39850000D03*
X57960000Y-39850000D03*
X56690000Y-39850000D03*
X55420000Y-39850000D03*
%TD*%
D28*
%TO.C,U2*%
X11550000Y-44500000D03*
X11550000Y-45000000D03*
X11550000Y-45500000D03*
X11550000Y-46000000D03*
X11550000Y-46500000D03*
X11550000Y-47000000D03*
X11550000Y-47500000D03*
D29*
X12500000Y-48450000D03*
X13000000Y-48450000D03*
X13500000Y-48450000D03*
X14000000Y-48450000D03*
X14500000Y-48450000D03*
X15000000Y-48450000D03*
X15500000Y-48450000D03*
D28*
X16450000Y-47500000D03*
X16450000Y-47000000D03*
X16450000Y-46500000D03*
X16450000Y-46000000D03*
X16450000Y-45500000D03*
X16450000Y-45000000D03*
X16450000Y-44500000D03*
D29*
X15500000Y-43550000D03*
X15000000Y-43550000D03*
X14500000Y-43550000D03*
X14000000Y-43550000D03*
X13500000Y-43550000D03*
X13000000Y-43550000D03*
X12500000Y-43550000D03*
D30*
X14000000Y-46000000D03*
%TD*%
D10*
%TO.C,C7*%
X35225000Y-37000000D03*
X36775000Y-37000000D03*
%TD*%
D14*
%TO.C,H2*%
X70000000Y-10000000D03*
%TD*%
D16*
%TO.C,R16*%
X56675000Y-19500000D03*
X58325000Y-19500000D03*
%TD*%
D31*
%TO.C,R14*%
X6000000Y-28825000D03*
X6000000Y-27175000D03*
%TD*%
D10*
%TO.C,C20*%
X67725000Y-26500000D03*
X69275000Y-26500000D03*
%TD*%
D21*
%TO.C,U4*%
X57362500Y-16050000D03*
X57362500Y-17000000D03*
X57362500Y-17950000D03*
X59637500Y-17950000D03*
X59637500Y-16050000D03*
%TD*%
D16*
%TO.C,R8*%
X43175000Y-37000000D03*
X44825000Y-37000000D03*
%TD*%
D12*
%TO.C,C2*%
X61550000Y-20500000D03*
X63450000Y-20500000D03*
%TD*%
D16*
%TO.C,R11*%
X52675000Y-20000000D03*
X54325000Y-20000000D03*
%TD*%
D10*
%TO.C,C15*%
X71725000Y-50000000D03*
X73275000Y-50000000D03*
%TD*%
D16*
%TO.C,R1*%
X46175000Y-19800000D03*
X47825000Y-19800000D03*
%TD*%
%TO.C,R7*%
X39175000Y-37000000D03*
X40825000Y-37000000D03*
%TD*%
D14*
%TO.C,H4*%
X70000000Y-44000000D03*
%TD*%
D16*
%TO.C,R2*%
X61175000Y-13000000D03*
X62825000Y-13000000D03*
%TD*%
D12*
%TO.C,C4*%
X27550000Y-20000000D03*
X29450000Y-20000000D03*
%TD*%
D16*
%TO.C,R12*%
X47175000Y-37000000D03*
X48825000Y-37000000D03*
%TD*%
%TO.C,R10*%
X49175000Y-20000000D03*
X50825000Y-20000000D03*
%TD*%
D10*
%TO.C,C13*%
X17525000Y-39500000D03*
X19075000Y-39500000D03*
%TD*%
D12*
%TO.C,C5*%
X23050000Y-37000000D03*
X24950000Y-37000000D03*
%TD*%
D16*
%TO.C,R15*%
X53175000Y-18000000D03*
X54825000Y-18000000D03*
%TD*%
D18*
%TO.C,SW1*%
X3350000Y-44100000D03*
X9650000Y-44100000D03*
X3350000Y-47900000D03*
X9650000Y-47900000D03*
%TD*%
D12*
%TO.C,C17*%
X7050000Y-50500000D03*
X8950000Y-50500000D03*
%TD*%
D32*
%TO.C,J1*%
X27300000Y-42530000D03*
X27300000Y-54530000D03*
D33*
X25000000Y-47000000D03*
D34*
X22460000Y-48020000D03*
X25000000Y-49040000D03*
X22460000Y-50060000D03*
%TD*%
D35*
%TO.C,X1*%
X73000000Y-37250000D03*
X73000000Y-28750000D03*
%TD*%
D10*
%TO.C,C19*%
X15225000Y-41500000D03*
X16775000Y-41500000D03*
%TD*%
D12*
%TO.C,C1*%
X42050000Y-18000000D03*
X43950000Y-18000000D03*
%TD*%
D36*
%TO.C,U1*%
X7250000Y-7140000D03*
X7250000Y-8410000D03*
X7250000Y-9680000D03*
X7250000Y-10950000D03*
X7250000Y-12220000D03*
X7250000Y-13490000D03*
X7250000Y-14760000D03*
X7250000Y-16030000D03*
X7250000Y-17300000D03*
X7250000Y-18570000D03*
X7250000Y-19840000D03*
X7250000Y-21110000D03*
X7250000Y-22380000D03*
X7250000Y-23650000D03*
D37*
X9015000Y-24900000D03*
X10285000Y-24900000D03*
X11555000Y-24900000D03*
X12825000Y-24900000D03*
X14095000Y-24900000D03*
X15365000Y-24900000D03*
X16635000Y-24900000D03*
X17905000Y-24900000D03*
X19175000Y-24900000D03*
X20445000Y-24900000D03*
X21715000Y-24900000D03*
X22985000Y-24900000D03*
D36*
X24750000Y-23650000D03*
X24750000Y-22380000D03*
X24750000Y-21110000D03*
X24750000Y-19840000D03*
X24750000Y-18570000D03*
X24750000Y-17300000D03*
X24750000Y-16030000D03*
X24750000Y-14760000D03*
X24750000Y-13490000D03*
X24750000Y-12220000D03*
X24750000Y-10950000D03*
X24750000Y-9680000D03*
X24750000Y-8410000D03*
X24750000Y-7140000D03*
D38*
X13100000Y-14160000D03*
X13100000Y-15560000D03*
X13800000Y-13460000D03*
X13800000Y-14860000D03*
X13800000Y-16260000D03*
X14500000Y-14160000D03*
D39*
X14500000Y-14860000D03*
D38*
X14500000Y-15560000D03*
X15200000Y-13460000D03*
X15200000Y-14860000D03*
X15200000Y-16260000D03*
X15900000Y-14160000D03*
X15900000Y-15560000D03*
%TD*%
D10*
%TO.C,C16*%
X66725000Y-52000000D03*
X68275000Y-52000000D03*
%TD*%
D12*
%TO.C,C18*%
X10550000Y-50500000D03*
X12450000Y-50500000D03*
%TD*%
D16*
%TO.C,R4*%
X20975000Y-39300000D03*
X22625000Y-39300000D03*
%TD*%
%TO.C,R13*%
X51175000Y-51000000D03*
X52825000Y-51000000D03*
%TD*%
D40*
%TO.C,L1*%
X62100000Y-16500000D03*
X64900000Y-16500000D03*
%TD*%
D41*
%TO.C,C10*%
X13800000Y-33500000D03*
X19200000Y-33500000D03*
%TD*%
M02*
